<svg fill="none" height="36" viewBox="0 0 36 36" width="36" xmlns="http://www.w3.org/2000/svg"><rect fill="#53a655" height="36" rx="7" width="36"></rect><g clip-path="url(#clip0_465_52629)"><rect fill="#53a655" height="24" transform="translate(6 6)" width="24"></rect><path clip-rule="evenodd" d="M26 9H10C8.9 9 8 9.9 8 11V25C8 26.1 8.9 27 10 27H26C27.1 27 28 26.1 28 25V11C28 9.9 27.1 9 26 9ZM26 25H10V11H26V25Z" fill="white" fill-rule="evenodd"></path><path clip-rule="evenodd" d="M25.41 16.42L23.99 15L20.82 18.17L19.41 16.75L18 18.16L20.82 21L25.41 16.42Z" fill="white" fill-rule="evenodd"></path><path d="M16 13H11V15H16V13Z" fill="white"></path><path d="M16 17H11V19H16V17Z" fill="white"></path><path d="M16 21H11V23H16V21Z" fill="white"></path></g><defs><clipPath id="clip0_465_52629"><rect fill="white" height="24" transform="translate(6 6)" width="24"></rect></clipPath></defs></svg>