<svg fill="none" height="36" viewBox="0 0 36 36" width="36" xmlns="http://www.w3.org/2000/svg"><rect fill="#53a655" height="36" rx="7" width="36"></rect><rect fill="#53a655" height="24" transform="translate(6 6)" width="24"></rect><path d="M15 20C17.21 20 19 18.21 19 16C19 13.79 17.21 12 15 12C12.79 12 11 13.79 11 16C11 18.21 12.79 20 15 20ZM15 14C16.1 14 17 14.9 17 16C17 17.1 16.1 18 15 18C13.9 18 13 17.1 13 16C13 14.9 13.9 14 15 14ZM15 22C12.33 22 7 23.34 7 26V28H23V26C23 23.34 17.67 22 15 22ZM9 26C9.22 25.28 12.31 24 15 24C17.7 24 20.8 25.29 21 26H9ZM21.08 14.05C21.92 15.23 21.92 16.76 21.08 17.94L22.76 19.63C24.78 17.61 24.78 14.56 22.76 12.36L21.08 14.05ZM26.07 9L24.44 10.63C27.21 13.65 27.21 18.19 24.44 21.37L26.07 23C29.97 19.11 29.98 13.05 26.07 9Z" fill="white"></path></svg>