<svg fill="none" height="36" viewBox="0 0 36 36" width="36" xmlns="http://www.w3.org/2000/svg"><rect fill="#53a655" height="36" rx="7" width="36"></rect><rect fill="#53a655" height="24" transform="translate(6 6)" width="24"></rect><path d="M25.2 12.6H21.6V10.8C21.6 9.81 20.79 9 19.8 9H16.2C15.21 9 14.4 9.81 14.4 10.8V12.6H10.8C9.81 12.6 9 13.41 9 14.4V25.2C9 26.19 9.81 27 10.8 27H25.2C26.19 27 27 26.19 27 25.2V14.4C27 13.41 26.19 12.6 25.2 12.6ZM16.2 10.8H19.8V12.6H16.2V10.8ZM25.2 25.2H10.8V14.4H25.2V25.2Z" fill="white"></path><path d="M18.8999 16.2H17.0999V18.9H14.3999V20.7H17.0999V23.4H18.8999V20.7H21.5999V18.9H18.8999V16.2Z" fill="white"></path></svg>