<svg fill="none" height="36" viewBox="0 0 36 36" width="36" xmlns="http://www.w3.org/2000/svg"><rect fill="#53a655" height="36" rx="7" width="36"></rect><g clip-path="url(#clip0_465_52636)"><rect fill="#53a655" height="24" transform="translate(6 6)" width="24"></rect><path d="M26.1818 10.4545C25.1727 10.1364 24.0636 10 23 10C21.2273 10 19.3182 10.3636 18 11.3636C16.6818 10.3636 14.7727 10 13 10C11.2273 10 9.31818 10.3636 8 11.3636V24.6818C8 24.9091 8.22727 25.1364 8.45455 25.1364C8.54545 25.1364 8.59091 25.0909 8.68182 25.0909C9.90909 24.5 11.6818 24.0909 13 24.0909C14.7727 24.0909 16.6818 24.4545 18 25.4545C19.2273 24.6818 21.4545 24.0909 23 24.0909C24.5 24.0909 26.0455 24.3636 27.3182 25.0455C27.4091 25.0909 27.4545 25.0909 27.5455 25.0909C27.7727 25.0909 28 24.8636 28 24.6364V11.3636C27.4545 10.9545 26.8636 10.6818 26.1818 10.4545ZM26.1818 22.7273C25.1818 22.4091 24.0909 22.2727 23 22.2727C21.4545 22.2727 19.2273 22.8636 18 23.6364V13.1818C19.2273 12.4091 21.4545 11.8182 23 11.8182C24.0909 11.8182 25.1818 11.9545 26.1818 12.2727V22.7273Z" fill="white"></path><path d="M23 15.4545C23.8 15.4545 24.5727 15.5364 25.2727 15.6909V14.3091C24.5545 14.1727 23.7818 14.0909 23 14.0909C21.4545 14.0909 20.0545 14.3545 18.9091 14.8455V16.3545C19.9363 15.7727 21.3636 15.4545 23 15.4545Z" fill="white"></path><path d="M18.9089 17.2639V18.773C19.9362 18.1911 21.3635 17.873 22.9998 17.873C23.7998 17.873 24.5726 17.9548 25.2726 18.1093V16.7275C24.5544 16.5911 23.7817 16.5093 22.9998 16.5093C21.4544 16.5093 20.0544 16.7821 18.9089 17.2639Z" fill="white"></path><path d="M22.9998 18.9365C21.4544 18.9365 20.0544 19.2002 18.9089 19.6911V21.2002C19.9362 20.6183 21.3635 20.3002 22.9998 20.3002C23.7998 20.3002 24.5726 20.382 25.2726 20.5365V19.1547C24.5544 19.0093 23.7817 18.9365 22.9998 18.9365Z" fill="white"></path></g><defs><clipPath id="clip0_465_52636"><rect fill="white" height="24" transform="translate(6 6)" width="24"></rect></clipPath></defs></svg>