<svg xmlns="http://www.w3.org/2000/svg" width="450" height="370" fill="none" viewBox="0 0 450 370"><path fill="#dfece3" d="M415.062 370c36.096-41.086 45.038-152.549 23.008-181.506-40.143-52.763-12.636-16.933-47.776-47.942-25.287-22.315 15.433-59.313-44.866-90.011-9.503-4.839-20.661-4.195-30.964-1.442-39.768 10.625-79.027 1.219-102.02-5.306-26.029-7.386-109.311-12.868-156.382 73.725-33.6 61.811-7.135 114.867-38.964 158.315-33.357 45.536-9.741 80.716 2.48 94.167z"/><path fill="#53a655" d="M122.656 267.552c-3.24-2.016-6.984-3.312-10.728-3.672-1.728-.216-3.672-.144-5.112.936-.288.216-.576.576-.504.936.072.288.288.504.504.648 4.392 3.312 11.016 3.744 15.84 1.152m-.216-.288c-2.448-1.872-4.896-3.816-6.912-6.12-2.088-2.304-3.744-5.04-4.32-8.064-.216-.936-.216-1.944.36-2.664 5.4 4.32 9.792 9.864 10.872 16.848"/><path fill="#53a655" d="M122.656 267.48c-.432-3.024-.576-6.12.144-9.144.72-2.952 2.304-5.832 4.824-7.56.936 2.232.576 4.824-.144 7.128-1.008 3.6-2.664 7.056-4.824 10.152m5.4 9.216c-3.312.432-6.192 2.16-8.64 4.392s-4.176 5.256-4.968 8.496c3.24-.216 5.976-2.448 7.992-5.04 2.016-2.664 3.384-5.472 5.616-7.848m1.152 1.512c-2.664-6.552-1.728-14.4 2.448-20.088 1.944 6.624 1.224 14.184-2.448 20.088m7.2 8.568a15.07 15.07 0 0 0-8.64 2.016c-2.592 1.512-4.752 3.744-6.048 6.48-.216.36-.36.792-.072 1.152.216.288.648.288 1.008.288 2.88-.216 5.472-1.944 7.56-3.888 2.088-2.088 3.888-4.32 6.192-6.048m-.216-.504c-1.512-4.968-1.656-10.296-.288-15.336.504-1.944 1.44-4.032 3.24-4.968.144-.072.36-.144.504-.072s.216.216.288.36c.648 1.368.864 2.88.792 4.392s-.36 2.952-.72 4.464c-.576 2.736-.864 5.616-2.376 7.992-.36.576-.648 1.152-.936 1.728s-.288.792-.576 1.296m19.008 3.024c-1.44-5.328.072-11.808 3.456-16.2.216-.288.576-.648 1.008-.648.648.072.792.864.72 1.512-.216 5.4-2.016 10.8-5.184 15.336m1.728 1.152c6.48 1.656 13.968.072 19.368-3.96-3.24-1.656-6.984-2.088-10.512-1.296-3.456.792-6.696 2.376-8.856 5.256m1.44-3.6c3.672-5.904 10.656-9.792 17.568-10.152-.792 2.808-3.096 5.04-5.76 6.336-2.592 1.296-5.544 1.872-8.424 2.448-1.08.288-2.664.504-3.384 1.368M155.488 270c1.008-3.384 1.944-6.768 2.232-10.296s-.216-7.2-2.016-10.152c-3.384 6.552-3.744 14.256-.288 20.808m11.52-6.12c3.96-7.2 12.096-13.032 20.304-13.824-3.168 7.92-11.808 13.968-20.304 13.824m-2.448 1.44c5.904.936 11.016 4.68 16.56 6.984 1.152.504 2.448.864 3.744.72s2.52-1.008 2.808-2.304c.216-1.008-.216-2.16-1.008-2.88-.72-.792-1.728-1.224-2.736-1.656-6.048-2.52-12.528-2.592-18.864-1.08"/><path fill="#53a655" d="M161.032 269.784c1.368.36 1.8 1.08 2.88 2.016 3.6 3.096 7.92 5.328 12.528 6.408.504.144 1.08.144 1.368-.288.216-.36-.072-.864-.36-1.152-1.944-2.376-4.68-4.032-7.56-5.112s-5.4-2.376-8.856-2.088m-3.888-24.912c4.824 4.536 11.592 6.84 18.216 6.192.288 0 .648-.072.792-.288.432-.504-.072-1.296-.648-1.656-5.328-4.176-11.808-5.904-18.36-4.248"/><path fill="#53a655" d="M161.752 243c6.408-4.752 15.12-6.192 22.68-3.744-2.88 2.808-6.84 4.32-10.8 4.752s-7.992 0-11.88-1.008m-1.8-11.52c-.504-5.328-.216-9.576-.576-14.904 0-.432-.144-.936-.504-1.08-.576-.216-1.008.504-1.224 1.008-1.584 4.968-.72 10.584 2.304 14.832"/><path fill="#53a655" d="M159.52 232.056c3.6-2.232 6.336-5.184 8.856-8.568 1.728-2.376 3.24-5.256 2.808-8.208-2.448-.072-4.752 1.296-6.408 3.168-1.584 1.872-2.52 4.176-3.24 6.552-.648 2.304-1.152 4.752-2.016 7.056m8.712-2.448c7.92-2.952 15.336-7.272 21.744-12.816-2.592-1.08-5.544-.432-8.136.648-5.904 2.376-10.8 6.408-13.68 12.168m-6.192 5.328c4.032.432 8.064.72 12.096.072 3.888-.648 7.632-2.232 11.304-3.744.288-.144.648-.288.792-.576.144-.36 0-.72-.288-.936a2.7 2.7 0 0 0-.936-.432c-3.96-1.08-8.28-.576-12.168.72-3.96 1.296-7.2 2.88-10.8 4.896m-22.896 9.936c-2.736-5.544-2.592-11.952-.216-17.712 1.656 2.52 1.872 5.76 1.584 8.784s-1.224 6.12-1.296 9.144m-11.016-5.76c-6.84-.144-13.68 2.808-18.36 7.776 3.384.504 6.912-.36 10.008-1.872s5.832-3.672 8.568-5.76m-7.56-2.592c-3.312-.288-6.552-.72-9.792.288s-6.12 3.24-7.488 6.336c3.096.36 6.336-.432 9.144-1.728 2.88-1.296 5.544-3.096 8.136-4.896m10.872.144c-3.024-1.944-6.12-3.96-9.576-4.824-3.528-.792-7.56-.216-10.008 2.448 2.808 1.656 6.264 1.872 9.576 1.872s7.344-.072 10.44 1.08"/><path fill="#53a655" d="M131.656 237.168c-5.112-5.04-7.128-14.112-5.04-21.024 4.104 6.12 5.904 13.68 5.04 21.024m14.184-14.328c.936-2.232 1.656-4.608 2.52-6.912s1.944-4.536 3.6-6.408c1.656-1.8 3.888-3.168 6.408-3.312-1.512 6.984-6.12 13.176-12.384 16.632m-2.736 2.952c-1.584-2.232-3.456-5.184-5.616-6.84s-5.04-2.664-7.704-2.016c2.736 4.824 7.848 8.28 13.32 8.856m.504-2.736c-1.08-2.664-2.088-5.4-2.52-8.208s-.144-5.904 1.296-8.352c2.808 5.328 3.744 11.088 1.368 16.632m1.944-16.704c1.584-5.328 6.48-9.216 11.664-11.016.648-.216 1.368-.432 2.016-.288.72.072 1.368.576 1.512 1.224.216.936-.576 1.728-1.224 2.304-4.032 3.528-8.856 6.192-13.968 7.776m.072-4.32c.216-3.384.432-6.84 1.512-10.08s3.24-6.264 6.336-7.704c.504 3.456-1.008 6.912-2.808 9.864s-4.032 5.76-5.112 9.072m0 1.224c-1.296-3.888-1.44-8.784-3.744-12.096-1.584-2.376-4.176-3.96-5.616-6.408-.936 2.304-.648 4.968.36 7.344.936 2.304 2.592 4.32 4.248 6.12 1.656 1.728 3.168 3.096 4.752 5.04"/><path fill="#53a655" d="M145.84 318.096c-.072 0-.216-25.704-.216-57.456s.072-57.456.144-57.456.216 25.704.216 57.456c.072 31.68 0 57.456-.144 57.456"/><path fill="#53a655" d="M168.304 240.984s-.36.144-.936.36c-.72.216-1.584.504-2.664.864-2.232.792-5.328 1.872-8.712 3.24-3.312 1.44-6.408 2.592-8.208 4.104a7.5 7.5 0 0 0-1.656 2.16c-.288.576-.288 1.008-.36.936v-.288c0-.144.072-.432.216-.72.216-.648.72-1.512 1.584-2.304s2.16-1.584 3.6-2.232 3.024-1.368 4.68-2.016a132 132 0 0 1 8.712-3.168c1.152-.36 2.088-.648 2.736-.792a13 13 0 0 0 1.008-.144"/><path fill="#53a655" d="M175.72 222.912s-.072.144-.288.288c-.216.216-.504.432-.792.792-.792.72-1.8 1.656-3.096 2.808-2.664 2.376-6.264 5.616-10.296 9.144-4.032 3.6-7.488 6.984-9.864 9.504-1.224 1.296-2.16 2.376-2.808 3.096-.288.36-.576.648-.72.864s-.288.288-.288.288.072-.144.216-.36.36-.504.72-.864c.648-.792 1.512-1.872 2.736-3.168 2.376-2.592 5.832-6.048 9.792-9.648 4.032-3.528 7.704-6.768 10.368-9.072 1.296-1.152 2.376-2.016 3.168-2.736.36-.288.648-.504.864-.72.144-.144.288-.288.288-.216"/><path fill="#53a655" d="M156.928 239.472c-.072-.072.72-1.944 1.584-4.392s1.224-4.536 1.368-4.464c.072 0-.144 2.16-1.008 4.608a40 40 0 0 1-1.224 3.096c-.432.72-.648 1.224-.72 1.152m-11.088 15.624s-.216-.216-.648-.72-.936-1.224-1.584-2.016c-1.296-1.728-3.168-4.104-5.256-6.696s-3.96-4.896-5.328-6.624a60 60 0 0 1-1.584-2.016c-.36-.504-.576-.72-.576-.792 0 0 .288.216.648.648q.648.648 1.728 1.944c1.44 1.656 3.384 3.96 5.4 6.552 2.088 2.592 3.888 4.968 5.112 6.768.648.864 1.152 1.584 1.512 2.088.432.576.648.864.576.864"/><path fill="#53a655" d="M140.944 248.76c-.072.072-1.368-1.512-2.088-3.888-.504-1.656-.504-3.168-.504-3.888h.144c-.072.288-.144.432-.144.432v-.504h.144c.072.72.144 2.16.648 3.816.72 2.376 1.872 3.96 1.8 4.032m-6.408-7.992c-.072.072-.504-.504-1.44-.864s-2.448-.432-4.032-.288-3.024.432-4.032.648c-1.008.288-1.656.432-1.656.432 0-.072.576-.36 1.584-.648s2.448-.648 4.104-.792c1.584-.144 3.168 0 4.104.432 1.08.432 1.44 1.08 1.368 1.08m-1.44-1.944c0 .072-.864-.36-2.232-.792-1.368-.504-3.312-.936-5.544-1.152-2.232-.144-4.176 0-5.616.288s-2.304.504-2.304.432c0 0 .216-.144.576-.216.36-.144.936-.288 1.656-.504 1.44-.36 3.456-.576 5.688-.432s4.248.72 5.544 1.224c.648.288 1.224.504 1.584.72.432.288.648.36.648.432m12.744-8.208c-.072 0-.792-2.448-1.584-5.616-.792-3.096-1.368-5.688-1.224-5.688.072 0 .792 2.448 1.584 5.616.72 3.096 1.296 5.616 1.224 5.688"/><path fill="#53a655" d="M145.912 230.616c-.144 0-.576-1.656-1.8-3.384-1.152-1.728-2.664-2.592-2.664-2.736 0-.072.432.144 1.008.504a10 10 0 0 1 1.944 1.944c1.296 1.872 1.584 3.672 1.512 3.672m-.072 73.728c-.072 0-.144-.648-.432-1.728a21.8 21.8 0 0 0-1.728-4.464c-1.8-3.6-5.04-8.208-9.144-12.888-2.016-2.304-4.032-4.536-5.688-6.624s-3.096-4.104-4.104-5.904-1.656-3.312-2.088-4.32a8.6 8.6 0 0 1-.432-1.224c-.072-.288-.144-.432-.072-.432 0 0 .216.576.648 1.656s1.08 2.52 2.16 4.248c1.008 1.728 2.448 3.744 4.104 5.76 1.656 2.088 3.672 4.248 5.688 6.624 4.104 4.608 7.344 9.288 9.072 12.96a28.3 28.3 0 0 1 1.656 4.536q.216.864.216 1.296c.144.36.144.504.144.504"/><path fill="#53a655" d="M166.144 281.376s-.36.216-1.08.576c-.648.36-1.656 1.008-2.736 1.8-1.08.864-2.376 1.944-3.6 3.312a68 68 0 0 0-3.96 4.608c-2.664 3.384-5.184 6.336-6.696 8.712-.792 1.152-1.296 2.16-1.656 2.88s-.576 1.08-.576 1.08 0-.144.072-.288c.072-.216.216-.504.36-.864.36-.72.864-1.728 1.584-2.952 1.44-2.448 3.96-5.472 6.624-8.784 1.368-1.656 2.664-3.24 3.96-4.608a29.5 29.5 0 0 1 3.744-3.312c1.152-.864 2.16-1.368 2.88-1.728.36-.144.648-.288.864-.36.144 0 .216-.072.216-.072"/><path fill="#53a655" d="M166.576 288.864c0 .072-.864.144-2.232.36-1.368.144-3.312.432-5.328 1.08s-3.672 1.656-4.752 2.52-1.656 1.584-1.656 1.512c0 0 .072-.216.36-.504.216-.288.648-.72 1.152-1.224a13.7 13.7 0 0 1 4.824-2.664c2.088-.648 4.032-.864 5.4-.936 1.368-.216 2.232-.216 2.232-.144m-13.392 4.536c-.144-.072.864-1.584 1.656-3.672.72-2.088.936-3.96 1.008-3.96s.072.432-.072 1.224c-.072.72-.288 1.8-.648 2.88s-.936 2.016-1.296 2.592c-.36.648-.576 1.008-.648.936m19.584-31.968s-.144.072-.36.216c-.288.144-.648.288-1.08.504s-1.008.432-1.656.792-1.368.648-2.16 1.152c-.36.216-.792.432-1.224.72-.432.216-.864.504-1.296.792-.936.576-1.8 1.224-2.808 1.944a60.5 60.5 0 0 0-5.832 5.112c-1.872 2.016-3.528 4.032-4.896 5.976-.648 1.008-1.296 1.944-1.8 2.88-.288.432-.576.864-.792 1.296s-.432.864-.648 1.224c-.432.792-.72 1.512-1.08 2.16-.288.648-.576 1.224-.72 1.656q-.324.648-.432 1.08c-.072.216-.144.36-.144.36s0-.144.144-.36c.072-.288.216-.648.36-1.08q.216-.756.648-1.728c.288-.648.576-1.44 1.008-2.232l.648-1.296c.216-.432.504-.864.792-1.368.504-.936 1.152-1.872 1.8-2.88a58 58 0 0 1 4.896-6.048c1.944-2.016 3.96-3.672 5.832-5.112 1.008-.72 1.872-1.368 2.808-1.872.432-.288.864-.576 1.296-.792s.864-.432 1.224-.648a30 30 0 0 1 2.16-1.08c.648-.288 1.224-.576 1.728-.72a8 8 0 0 0 1.08-.432c.36-.216.504-.216.504-.216"/><path fill="#53a655" d="M156.64 272.16s.144-.648.864-1.296c.72-.72 2.016-1.296 3.528-1.368s2.88.36 3.744.72c.936.36 1.44.648 1.44.72s-.576-.144-1.512-.432-2.232-.648-3.672-.576-2.664.576-3.384 1.224c-.648.504-.936 1.08-1.008 1.008m-2.376 2.52c-.072-.072.792-1.368 1.008-3.312.216-1.872-.36-3.384-.216-3.456.072 0 .216.36.432.936.144.648.288 1.512.144 2.52s-.432 1.872-.72 2.376c-.36.648-.648.936-.648.936"/><path fill="#263238" d="M128.056 308.016c.576 9.864 3.528 19.872 8.064 29.952h19.8c4.32-10.008 7.128-20.016 7.632-29.952z"/><path fill="#263238" d="M160.384 323.928c0 .072-6.552.216-14.544.216-8.064 0-14.544-.072-14.544-.216 0-.072 6.552-.216 14.544-.216 7.992.072 14.544.144 14.544.216m-.504 3.6c0 .072-6.12.216-13.68.216s-13.68-.072-13.68-.216c0-.072 6.12-.216 13.68-.216s13.68.144 13.68.216m-23.4-13.032c.072 0 .216 2.016.216 4.536s-.072 4.536-.216 4.536c-.072 0-.216-2.016-.216-4.536 0-2.448.072-4.536.216-4.536"/><path fill="#fafafa" d="M147.064 314.496c.072 0 .216 2.088.216 4.752 0 2.592-.072 4.752-.216 4.752-.072 0-.216-2.088-.216-4.752.072-2.592.144-4.752.216-4.752"/><path fill="#263238" d="M157.072 314.424c.072 0 .216 2.16.216 4.824s-.072 4.824-.216 4.824-.216-2.16-.216-4.824.072-4.824.216-4.824"/><path fill="#263238" d="M162.904 314.496c0 .072-7.632.216-17.064.216s-17.064-.072-17.064-.216c0-.072 7.632-.216 17.064-.216 9.432.072 17.064.144 17.064.216m258.336 23.4c0 .072-69.912.216-156.24.216-86.256 0-156.24-.072-156.24-.216 0-.072 69.912-.216 156.24-.216 86.256 0 156.24.072 156.24.216"/><path fill="#fff" d="M383.584 161.136h-71.856c-5.904 0-10.728-4.824-10.728-10.728V71.064c0-5.904 4.824-10.728 10.728-10.728h71.856c5.904 0 10.728 4.824 10.728 10.728v79.344c0 5.904-4.824 10.728-10.728 10.728"/><path fill="#ebebeb" d="M316.12 60.264s4.32 19.008 4.32 24.912.216 17.928 1.584 27.288 2.664 16.416 3.096 19.944-2.664 28.728-2.664 28.728h50.472s-2.448-27.072-3.096-34.488-.864-24.408 2.016-34.92 5.832-17.496 8.064-24.48L382 60.336h-65.88z"/><path fill="#e56363" d="M367.168 94.896c-2.088-4.968-9.864-11.448-15.336-11.088l-15.264 2.952c-5.616 4.608-10.008 12.456-10.656 19.584-.36 4.032-.288 8.136 1.152 11.952 1.512 3.888 4.464 7.128 8.064 9.432 3.528 2.304 7.704 3.672 11.88 4.392 5.112.864 10.8.72 14.904-2.304 2.88-2.088 4.68-5.328 5.688-8.64.936-3.384 1.152-6.84 1.296-10.368.216-5.472.36-11.016-1.728-15.912"/><path fill="#263238" d="M365.008 96.048c-.288-3.816-3.024-5.544-5.184-6.264s-2.88-2.376-2.88-2.376c-4.464-6.768-5.688-27.144-5.688-27.144h-15.192s.36 19.296-.36 23.4-1.368 5.328-2.448 8.568c-1.152 3.24-2.088 4.752-2.232 7.56s.432 5.4.576 7.776c.072 1.08.648 1.8 1.368 2.232.72.504 1.584.792 2.52.792.72 0 1.728.072 2.736.072 1.728 0 6.84-2.52 9.072-2.088 2.232.36 4.824 2.808 9.288 3.312.792.072 1.512.072 2.232 0 3.024-.36 5.472-2.592 6.192-5.4 0-.072.072-.216.072-.288.144-1.296.216-6.336-.072-10.152"/><path fill="#263238" d="M365.152 115.488c-.576-2.592-3.384-3.168-6.912-2.736-3.6.36-9.72-2.736-11.592-2.88s-6.192 1.584-8.856 1.8-3.672-.936-5.04.576-.504 4.392-.504 4.392c.936 2.664 1.8 5.76 4.608 9s4.32 7.272 4.536 11.448c.216 4.248.504 24.048.504 24.048h11.448s.576-13.104.576-16.848.504-8.352 1.728-12.312c1.152-3.528 2.088-4.752 4.608-6.624 2.808-1.872 5.544-7.272 4.896-9.864"/><path fill="#263238" d="M330.52 117.864c-.504-.792-1.728-.864-2.304-.072-.216.288-.432.576-.576 1.008-.936 2.16-1.8 5.112.576 8.064 2.376 3.024 3.672 34.416 3.672 34.416h4.68s-1.44-22.392-1.44-24.984c0-2.52.648-9.432-.288-11.664-.792-1.656-3.096-5.112-4.32-6.768"/><path fill="#263238" d="m330.52 117.864.144.144c.072.144.216.288.432.504.36.504.864 1.152 1.44 2.088a40 40 0 0 1 2.16 3.528c.36.72.504 1.584.648 2.52.072.936.144 1.872.144 2.88 0 2.016-.144 4.248-.216 6.624.072 2.376.216 4.896.36 7.56.36 5.328.72 11.304 1.08 17.496v.216h-5.04v-.144c-.288-6.552-.648-12.744-1.08-18.36-.216-2.808-.504-5.472-.792-7.992-.288-2.448-.576-4.824-1.152-6.84a4.8 4.8 0 0 0-.648-1.368c-.288-.432-.576-.864-.792-1.296a6.04 6.04 0 0 1-.648-2.664c0-1.728.576-3.096 1.08-4.176.288-.504.576-1.008 1.008-1.224s.864-.216 1.152-.072c.648.216.72.576.72.576s-.144-.288-.792-.504c-.288-.072-.72-.072-1.08.144s-.648.72-.936 1.224c-.432 1.08-1.008 2.448-1.008 4.104q0 1.296.648 2.592c.216.432.432.864.792 1.224.288.432.576.936.72 1.44.576 2.088.936 4.392 1.224 6.84.288 2.52.576 5.184.792 7.992.432 5.616.864 11.808 1.152 18.36l-.216-.144h4.68l-.216.216c-.36-6.264-.72-12.168-1.08-17.496-.144-2.664-.288-5.184-.36-7.632.072-2.376.216-4.608.216-6.624 0-1.008 0-1.944-.072-2.88-.072-.864-.216-1.728-.576-2.448a28.6 28.6 0 0 0-2.088-3.528 37 37 0 0 0-1.44-2.16c-.144-.216-.288-.432-.36-.576.072-.072 0-.144 0-.144"/><path fill="#fafafa" d="M364.144 104.616c-3.024.144-5.616 2.232-8.496 3.096-3.96 1.152-8.136.072-12.096-.864s-8.28-1.728-11.952-.144c0 .288.072.576.072.792.072 1.08.648 1.8 1.368 2.232.72.504 1.584.792 2.52.792.72 0 1.728.072 2.736.072 1.728 0 6.84-2.52 9.072-2.088 2.232.36 4.824 2.808 9.288 3.312.792.072 1.512.072 2.232 0 3.024-.36 5.472-2.592 6.192-5.4 0-.072.072-.216.072-.288.072-.288.072-.72.144-1.368-.504-.144-.864-.144-1.152-.144"/><path fill="#263238" d="M365.008 96.048s0 .144.072.36c0 .288.072.648.072 1.152.072 1.008.144 2.52.144 4.464 0 .936 0 2.016-.072 3.24 0 .288-.072.576-.072.936a7 7 0 0 1-.288.936c-.216.576-.504 1.224-.936 1.8-.792 1.152-2.016 2.088-3.456 2.664-1.512.576-3.24.648-4.896.288-1.728-.288-3.456-1.008-5.112-1.872-.864-.432-1.728-.864-2.592-1.152-.936-.288-1.872-.144-2.88.144-1.944.432-3.888 1.296-6.048 1.8-.576.144-1.152.072-1.656.072h-1.656c-1.152 0-2.304-.36-3.168-1.152-.432-.432-.792-.936-.936-1.512-.072-.288-.072-.576-.072-.864l-.072-.864a481 481 0 0 1-.432-3.528c-.072-1.224-.144-2.448 0-3.672s.504-2.448.936-3.6c.936-2.304 1.8-4.68 2.592-7.056.36-1.224.72-2.448.936-3.744.288-1.296.36-2.52.432-3.888.216-3.528.216-7.056.216-10.512s0-6.768-.072-10.08v-.216h15.552v.144c.432 5.688 1.08 10.872 1.944 15.48s1.944 8.64 3.744 11.664c.432.864 1.152 1.512 1.944 1.944.36.216.792.36 1.152.504s.792.288 1.08.504a7.45 7.45 0 0 1 2.88 2.664 5.44 5.44 0 0 1 .792 2.304c-.072.36-.072.648-.072.648s0-.072-.072-.216c0-.144-.072-.36-.072-.648a5.5 5.5 0 0 0-.864-2.232 8.25 8.25 0 0 0-2.808-2.592c-.36-.144-.72-.36-1.08-.504s-.792-.288-1.224-.504a4.94 4.94 0 0 1-2.016-2.016c-1.872-3.024-2.88-7.128-3.816-11.664a128 128 0 0 1-1.944-15.48l.144.144h-15.192l.216-.216c.072 3.24.072 6.624.072 10.08s0 6.912-.216 10.512c0 .648-.072 1.296-.144 1.944s-.216 1.296-.288 1.944c-.288 1.296-.576 2.52-.936 3.744a104 104 0 0 1-2.592 7.128c-.432 1.152-.792 2.304-.936 3.528s-.072 2.376 0 3.6c.072 1.152.288 2.376.432 3.528l.072.864c0 .288 0 .576.072.864.144.504.432 1.008.792 1.368.792.72 1.872 1.08 2.952 1.08h1.656c.576 0 1.08.072 1.584-.072 2.088-.504 4.032-1.296 5.976-1.8.504-.144 1.008-.216 1.512-.288s1.008 0 1.512.144c.936.288 1.8.792 2.664 1.152 1.656.864 3.312 1.512 5.04 1.872 1.656.36 3.312.288 4.752-.216a6.83 6.83 0 0 0 3.384-2.592c.432-.576.72-1.152.936-1.728.144-.288.216-.576.288-.864s.072-.576.144-.864c.072-1.152.072-2.232.144-3.168 0-1.944 0-3.384-.072-4.464 0-.504-.072-.864-.072-1.152z"/><path fill="#fafafa" d="M365.008 115.92c.072 0 .144-.072.216-.072 0-.072 0-.216-.072-.288-.576-2.592-3.384-3.168-6.912-2.736-3.6.36-9.72-2.736-11.592-2.88s-6.192 1.584-8.856 1.8-3.672-.936-5.04.576c-.432.432-.648 1.008-.72 1.584 1.44 1.224 3.672 1.512 5.616 1.296 2.304-.288 4.536-1.224 6.84-1.44 3.456-.288 6.84 1.008 10.224 2.016 3.456.936 7.2 1.584 10.296.144"/><path fill="#263238" d="M365.152 115.488s0 .072.072.216c0 .072 0 .144.072.288v.432c0 .648-.144 1.512-.504 2.664q-.54 1.728-1.944 3.888c-.504.72-1.08 1.44-1.8 2.088s-1.584 1.224-2.376 2.016c-1.584 1.512-2.448 3.816-3.096 6.264q-.972 3.78-1.296 8.208c-.216 5.904-.432 12.6-.648 19.728v.144h-11.808v-.216c-.072-4.104-.216-8.424-.288-12.744-.072-2.52-.144-5.04-.144-7.488 0-1.224-.072-2.448-.072-3.672-.072-1.224-.216-2.376-.504-3.528-.504-2.304-1.512-4.464-2.808-6.336-.648-.936-1.368-1.8-2.088-2.664-.648-.936-1.296-1.872-1.8-2.808a27 27 0 0 1-1.296-3.024c-.144-.504-.36-1.008-.504-1.512l-.288-.72c-.072-.288-.144-.504-.144-.792-.144-1.008-.144-2.16.288-3.096.216-.504.576-.864 1.08-1.152.432-.288 1.008-.36 1.512-.288 1.008.144 1.944.288 2.808.216.936-.072 1.8-.288 2.664-.504 1.728-.432 3.384-.936 5.04-1.224.432-.072.792-.144 1.224-.072s.792.144 1.224.288c.792.216 1.512.504 2.16.72 1.44.504 2.736.936 3.96 1.296 1.296.36 2.448.576 3.6.648.576 0 1.08-.072 1.584-.072h1.44c.936.072 1.728.216 2.448.504.648.288 1.152.648 1.44 1.08.288.36.432.72.504 1.008.288.072.288.216.288.216-.072 0-.072-.504-.648-1.296a3.2 3.2 0 0 0-1.44-1.008q-.972-.432-2.376-.432h-1.44c-.504 0-1.008.072-1.584.144-1.152 0-2.376-.288-3.6-.576-1.296-.36-2.592-.792-4.032-1.296-.72-.216-1.44-.504-2.16-.72a3.3 3.3 0 0 0-1.152-.216c-.36 0-.792.072-1.224.072-1.584.288-3.24.864-5.04 1.296-.864.216-1.8.432-2.736.504s-1.944-.072-2.88-.216c-.504-.072-.936 0-1.296.288-.36.216-.72.576-.936 1.008-.432.864-.432 1.944-.216 2.88.072.216.072.504.144.72l.216.72c.144.504.36 1.008.504 1.512.36 1.008.792 2.016 1.296 2.952q.756 1.404 1.728 2.808c.648.864 1.44 1.728 2.088 2.664a18.1 18.1 0 0 1 2.808 6.48c.288 1.152.432 2.376.504 3.6 0 1.224.072 2.448.072 3.672.072 2.448.144 4.968.144 7.488.072 4.392.216 8.64.288 12.744l-.216-.216h11.448l-.144.144c.288-7.128.504-13.752.72-19.728.216-2.952.648-5.76 1.296-8.28.36-1.224.72-2.448 1.224-3.528s1.152-2.088 1.944-2.808c.792-.792 1.656-1.368 2.376-1.944a9.2 9.2 0 0 0 1.728-2.088 20 20 0 0 0 2.016-3.816c.432-1.08.576-2.016.576-2.592z"/><path fill="#3b454a" d="M356.512 99.648c-.792-1.512-2.16-1.872-6.336-2.952-1.728-.432-3.456-.864-5.256-.864s-3.6.504-4.968 1.728c-1.512 1.368-2.088 3.6-1.8 5.544.216 2.016 1.224 3.888 2.376 5.544s2.52 3.168 3.744 4.824c.576.72 1.08 1.584 2.016 1.872.864.288 1.944 0 2.736-.36 2.232-1.08 3.816-3.024 5.112-5.112.936-1.44 2.304-3.096 2.664-4.752.504-1.584.504-3.96-.288-5.472"/><path fill="#263238" d="M356.512 99.648s.144.144.288.576c.144.36.288.936.36 1.728s.072 1.728-.072 2.808-.72 2.232-1.44 3.384c-.36.576-.792 1.152-1.152 1.8s-.864 1.296-1.296 1.944c-1.008 1.296-2.232 2.52-3.888 3.384-.792.432-1.8.72-2.808.432s-1.656-1.152-2.232-1.944c-1.152-1.584-2.52-3.096-3.744-4.824s-2.16-3.6-2.448-5.616.216-4.032 1.44-5.472 3.096-1.944 4.68-2.088c1.656-.144 3.168.144 4.464.432 1.368.288 2.52.648 3.6.936 1.008.288 1.944.576 2.664.936.72.288 1.152.72 1.368 1.08.216.288.216.504.216.504-.072.072-.36-.864-1.728-1.512a23 23 0 0 0-2.664-.864 68 68 0 0 0-3.6-.864c-1.296-.288-2.808-.504-4.392-.36s-3.24.72-4.464 2.016c-1.152 1.296-1.656 3.24-1.368 5.184s1.224 3.744 2.376 5.4c1.224 1.656 2.592 3.168 3.744 4.824.576.792 1.152 1.584 2.016 1.8s1.8-.072 2.52-.432c1.584-.792 2.808-2.016 3.816-3.24a31 31 0 0 0 1.368-1.872c.432-.648.792-1.224 1.224-1.8 1.656-2.232 1.728-4.536 1.584-6.048-.072-.72-.216-1.296-.288-1.728 0-.36-.144-.504-.144-.504"/><path fill="#a3a3a3" d="M383.584 161.136s.288 0 .936-.072c.288 0 .72-.072 1.152-.144.432-.144 1.008-.216 1.584-.432a11.3 11.3 0 0 0 3.816-2.376c1.296-1.224 2.448-3.024 2.952-5.328.288-1.152.288-2.376.216-3.672v-63.36c0-4.896 0-10.008-.072-15.264-.144-2.592-1.224-5.112-3.168-6.984-1.872-1.872-4.536-3.024-7.272-3.024h-72a10.67 10.67 0 0 0-8.208 3.888c-1.008 1.224-1.656 2.592-2.088 4.104s-.288 3.024-.36 4.608v77.04c-.072 2.52.72 4.968 2.304 6.912 1.512 1.872 3.6 3.24 5.904 3.744 1.152.288 2.304.288 3.456.288h16.56c16.704 0 30.24.072 39.672.072zH369.04c-9.36 0-22.896 0-39.672.072h-16.56c-1.152 0-2.376 0-3.528-.288-2.376-.504-4.536-1.944-6.12-3.888s-2.376-4.536-2.376-7.056v-77.04c0-1.512-.072-3.168.36-4.68.36-1.512 1.152-3.024 2.16-4.248 2.016-2.52 5.184-4.032 8.496-4.032h72c2.808 0 5.544 1.224 7.488 3.096 1.944 1.944 3.096 4.536 3.24 7.2.072 5.256 0 10.368 0 15.264v63.36c0 1.296 0 2.52-.288 3.672-.504 2.304-1.728 4.104-3.024 5.4-1.296 1.224-2.664 2.016-3.888 2.376-.576.216-1.08.36-1.584.432-.432.072-.864.144-1.152.144-.72.216-1.008.216-1.008.216m-83.016-34.704h-2.664c-1.8 0-4.32 0-7.416.072h-1.224c-.432 0-.792 0-1.224.072-.792.144-1.656.504-2.232 1.08-.648.576-1.08 1.44-1.224 2.376-.072.432-.072.936-.072 1.44v21.888c-.072 1.152-.72 2.232-1.584 2.952s-2.016 1.08-3.024 1.08c-4.104 0-7.848 0-10.944-.072-3.096 0-5.616-.072-7.416-.072h-2.664 2.664c1.8 0 4.32 0 7.416-.072 3.096 0 6.84 0 10.944-.072 1.008 0 2.016-.288 2.808-1.008.792-.648 1.296-1.656 1.44-2.736.072-2.232 0-4.536 0-6.912v-14.904c0-.504 0-1.008.072-1.512a4.35 4.35 0 0 1 1.368-2.592c.72-.648 1.584-1.08 2.448-1.152.432-.072.864-.072 1.296-.072h1.224c3.096 0 5.616.072 7.416.072h2.52z"/><path fill="#a3a3a3" d="M302.08 126.576c0 .864-.72 1.656-1.656 1.656-.864 0-1.656-.72-1.656-1.656 0-.864.72-1.656 1.656-1.656.936.072 1.656.792 1.656 1.656m-43.344 32.616a1.655 1.655 0 1 0 .001-3.31 1.655 1.655 0 0 0-.001 3.31"/><path fill="#263238" d="M342.904 317.88s-2.88-19.944-2.664-31.536 0-24.696 0-24.696h1.368s-.936 23.04.072 36.936 3.6 19.296 3.6 19.296z"/><path fill="#53a655" d="M351.616 239.112c-.288-.648-.576-1.368-1.224-1.8-.864-.504-1.944-.288-2.88 0-4.032 1.44-7.632 9-9.288 12.96l5.4 18.072c9.648-8.928 11.304-20.736 7.992-29.232"/><path fill="#263238" d="M350.032 238.104s0 .072-.072.216-.144.36-.288.648c-.216.576-.576 1.368-.936 2.448-.792 2.088-1.8 4.896-2.664 8.136s-1.512 6.192-1.872 8.352q-.324 1.62-.432 2.592c-.072.288-.072.504-.144.72 0 .144-.072.216-.072.216v-.216c0-.216.072-.432.072-.72.072-.648.216-1.512.36-2.592.36-2.16.936-5.184 1.8-8.424.936-3.24 1.944-6.12 2.736-8.136.432-1.008.792-1.872 1.008-2.376.144-.288.216-.504.288-.648.216-.144.216-.216.216-.216"/><path fill="#455a64" d="M341.176 272.736c-5.04-2.808-7.992-7.992-8.28-13.752-.216-4.032 1.008-7.92 2.448-11.736.144-.36.288-.648.576-.864.432-.216.936 0 1.368.216 3.672 2.088 5.904 6.048 7.056 10.08.792 2.664 1.224 5.544.792 8.28-.36 2.808-1.944 5.832-3.96 7.776"/><path fill="#263238" d="M341.176 272.736v-.936c0-.576 0-1.44-.072-2.52-.072-2.16-.36-5.112-.936-8.352a139 139 0 0 0-1.728-8.208c-.216-1.008-.432-1.872-.576-2.448-.072-.288-.144-.504-.144-.648s-.072-.216-.072-.216 0 .072.072.216.144.432.216.648c.144.576.36 1.44.648 2.448.504 2.088 1.224 4.968 1.8 8.208s.792 6.192.864 8.352v3.24c-.072.144-.072.216-.072.216"/><path fill="#53a655" d="M341.176 272.736c-5.04-2.808-7.992-7.992-8.28-13.752-.216-4.032 1.008-7.92 2.448-11.736.144-.36.288-.648.576-.864.432-.216.936 0 1.368.216 3.672 2.088 5.904 6.048 7.056 10.08.792 2.664 1.224 5.544.792 8.28-.36 2.808-1.944 5.832-3.96 7.776" opacity=".3"/><path fill="#53a655" d="M346.864 303.264c4.968 1.08 9 4.608 13.824 6.264 3.168 1.152 6.768 1.512 9.288 3.744-.576-1.512-2.016-2.52-3.456-3.384-3.96-2.448-8.136-4.464-12.528-5.976-2.232-.792-4.68-1.44-6.984-.792m-7.344 4.536c-6.192-.072-12.744-5.4-18.864-5.688 6.48-2.088 15.696-.36 18.864 5.688m2.448-14.832c3.168-1.152 6.624-1.224 9.936-.648 3.312.504 6.48 1.584 9.648 2.664-.288-2.16-2.088-3.744-3.672-5.184-1.224-1.08-2.448-2.16-3.888-2.952s-3.024-1.368-4.68-1.296c-1.944.072-3.816 1.08-5.112 2.592-1.296 1.368-2.016 2.808-2.232 4.824"/><path fill="#455a64" d="M329.368 285.984c-3.888-3.312-9.792-3.024-14.976-2.88 7.92 3.744 16.416 8.928 23.184 14.472.288-3.672-3.24-7.416-8.208-11.592"/><path fill="#53a655" d="M329.368 285.984c-3.888-3.312-9.792-3.024-14.976-2.88 7.92 3.744 16.416 8.928 23.184 14.472.288-3.672-3.24-7.416-8.208-11.592" opacity=".3"/><path fill="#53a655" d="M343.84 281.376c1.944-1.296 3.96-2.52 5.976-3.456 2.088-.936 3.96-2.448 5.976-3.528 2.592-1.368 4.824-3.312 7.128-5.04 2.376-1.728 4.968-3.312 7.848-3.744-2.376-.504-4.824-.216-7.128.432s-4.536 1.656-6.696 2.592c-3.024 1.368-6.12 2.808-8.64 4.968-2.448 2.232-4.68 4.464-4.464 7.776"/><path fill="#263238" d="M360.544 307.656s-.072 0-.216-.072-.36-.144-.576-.288c-.432-.216-1.152-.648-2.016-1.008a26 26 0 0 1-1.368-.72c-.504-.216-1.008-.504-1.584-.72-1.152-.504-2.448-1.008-3.816-1.296-1.368-.36-2.808-.432-3.96-.072-.576.144-1.152.288-1.656.504a8 8 0 0 0-1.368.72c-.792.504-1.368 1.008-1.728 1.44-.36.36-.504.648-.576.576 0 0 0-.072.144-.216.072-.144.216-.288.36-.504.36-.432.864-.936 1.656-1.512a8 8 0 0 1 1.368-.72c.504-.216 1.08-.36 1.728-.504 1.224-.36 2.664-.288 4.104.072s2.736.864 3.816 1.368c.576.288 1.08.504 1.584.792.504.216.936.504 1.368.72.864.432 1.512.864 1.944 1.08.216.144.36.216.504.288.216.072.288.072.288.072m-25.488-3.024s.144 0 .36.144c.216.072.576.216 1.008.432.864.432 1.944 1.08 2.952 2.088s1.8 2.088 2.232 2.88l.504 1.008c.072.216.144.36.144.36s-.288-.504-.72-1.296a16.4 16.4 0 0 0-2.232-2.808 15 15 0 0 0-2.88-2.088c-.864-.504-1.368-.72-1.368-.72m-13.68-19.008s.072 0 .288.072.432.144.72.288c.36.144.72.288 1.152.432s.936.432 1.512.648c2.232 1.008 5.184 2.736 8.064 5.112a36 36 0 0 1 3.744 3.672 41 41 0 0 1 2.664 3.384c.72 1.008 1.224 1.872 1.584 2.448-.36-.576-.936-1.368-1.656-2.376s-1.656-2.16-2.664-3.312c-1.08-1.224-2.376-2.448-3.744-3.672-2.88-2.376-5.76-4.104-7.992-5.184-.576-.288-1.08-.504-1.512-.72-.432-.144-.864-.36-1.152-.432-.288-.144-.576-.216-.72-.288-.216 0-.288-.072-.288-.072m30.024 3.672s-.216 0-.504-.072c-.144 0-.36-.072-.576-.072-.216-.072-.504-.072-.792-.072-1.08-.072-2.736 0-4.248.864-.792.36-1.44.936-1.944 1.44s-.936 1.08-1.224 1.512c-.648.936-.792 1.656-.864 1.656 0 0 0-.144.144-.504.144-.288.288-.72.576-1.224s.72-1.08 1.224-1.584c.504-.576 1.224-1.08 2.016-1.512 1.584-.864 3.24-.936 4.392-.792.288.072.576.072.792.072.216.072.432.072.576.144.288.072.432.144.432.144M357.664 270s-.072.072-.216.144l-.72.36c-.576.36-1.44.792-2.52 1.44s-2.304 1.368-3.6 2.304-2.736 2.016-4.032 3.384a11 11 0 0 0-1.656 2.088c-.432.792-.792 1.512-1.152 2.232a51 51 0 0 0-1.728 3.888c-.432 1.152-.648 2.088-.864 2.736a54 54 0 0 0-.216 1.008v-.288c0-.144.072-.432.144-.792.144-.648.36-1.656.792-2.808a69 69 0 0 1 1.656-3.96c.36-.72.72-1.512 1.152-2.232.432-.792 1.008-1.512 1.656-2.16 1.296-1.368 2.736-2.448 4.032-3.384a41 41 0 0 1 3.6-2.304c1.08-.576 1.944-1.08 2.592-1.368.288-.144.504-.216.72-.36.288.072.36.072.36.072m-17.424 18.792s-.072-.216-.144-.504c-.072-.36-.144-.864-.288-1.44a36 36 0 0 0-1.152-4.68c-.576-1.8-1.296-3.312-1.8-4.464a30 30 0 0 0-.576-1.296c-.144-.288-.216-.504-.216-.504s.144.144.288.432l.648 1.296a28 28 0 0 1 1.872 4.464c.576 1.8.936 3.456 1.08 4.68.072.576.144 1.08.216 1.44s.144.576.072.576"/><path fill="#53a655" d="M339.808 274.68c-.144-2.376-.936-4.608-2.016-6.696-3.024-5.688-8.64-9.936-14.976-11.16a3460 3460 0 0 0 13.896 20.664l1.8 3.672c1.224-2.016 1.44-4.176 1.296-6.48"/><path fill="#263238" d="M359.752 315.36h-32.256v5.688h32.256z"/><path fill="#263238" d="m329.872 319.968 2.736 17.712h21.384l3.312-17.712z"/><path fill="#263238" d="M359.68 321.12c0 .072-7.272.144-16.272.144s-16.272-.072-16.272-.144 7.272-.144 16.272-.144 16.272.072 16.272.144"/><path fill="#fff" d="m242.392 65.592 4.968 1.872c1.8 3.168 4.392 5.904 7.776 7.776 9.792 5.472 22.176 1.944 27.648-7.776 5.472-9.792 1.944-22.176-7.776-27.648-9.792-5.472-22.176-1.944-27.648 7.776-2.304 4.104-3.024 8.64-2.376 12.888z"/><path fill="#263238" d="M242.392 65.592s.072-.072.144-.288c.144-.216.288-.576.504-.936.432-.864 1.08-2.16 1.872-3.816l.072-.144.072.144-.144.072c-.36-2.52-.432-5.976.864-9.792.36-.936.72-1.944 1.224-2.88.216-.504.576-.936.864-1.44.144-.216.288-.504.432-.72s.36-.432.504-.72c1.44-1.872 3.24-3.6 5.472-4.968a20.7 20.7 0 0 1 7.632-2.808 20.35 20.35 0 0 1 8.784.576c5.904 1.656 11.376 6.408 13.536 12.816l.432 1.224.288 1.224c.216.792.288 1.656.432 2.52.144 1.656.144 3.312-.144 4.968-.504 3.24-1.728 6.264-3.528 8.784s-4.104 4.536-6.624 5.904c-2.52 1.44-5.184 2.232-7.848 2.52-5.256.576-10.008-1.008-13.32-3.168-3.384-2.232-5.472-4.968-6.624-7.2h.072c-1.584-.648-2.808-1.08-3.672-1.44-.432-.144-.72-.288-.936-.36-.216 0-.36-.072-.36-.072s.144.072.36.144.576.216.936.36q1.296.432 3.672 1.296a20.55 20.55 0 0 0 6.624 7.056c3.312 2.16 7.992 3.672 13.176 3.096 2.592-.288 5.256-1.08 7.704-2.52a20 20 0 0 0 6.48-5.832c1.8-2.448 2.952-5.472 3.456-8.64.288-1.584.288-3.24.144-4.896-.144-.792-.144-1.656-.36-2.448l-.288-1.224-.432-1.224c-2.16-6.264-7.488-11.016-13.32-12.6a19.7 19.7 0 0 0-8.64-.576c-2.808.432-5.328 1.368-7.56 2.736-2.16 1.368-4.032 3.024-5.4 4.896-.144.216-.36.432-.504.648s-.288.504-.432.72c-.288.504-.648.936-.864 1.368-.504.936-.936 1.872-1.224 2.808-1.296 3.744-1.296 7.2-.936 9.648l.072.576-.216-.504h.144c-.864 1.584-1.512 2.88-1.944 3.744-.216.432-.36.72-.504.936-.072.36-.144.432-.144.432"/><path fill="#263238" d="M260.248 57.528a2.01 2.01 0 0 1-2.016 2.016c-1.08 0-2.016-.936-2.016-2.016 0-1.152.936-2.016 2.016-2.016s2.016.936 2.016 2.016m7.056 0a2.01 2.01 0 0 1-2.016 2.016c-1.08 0-2.016-.936-2.016-2.016 0-1.152.936-2.016 2.016-2.016s2.016.936 2.016 2.016m7.128 0a2.01 2.01 0 0 1-2.016 2.016c-1.08 0-2.016-.936-2.016-2.016 0-1.152.936-2.016 2.016-2.016s2.016.936 2.016 2.016"/><path fill="#ae7461" d="m195.16 88.848-.432-37.584c-.432-9.36 4.68-17.352 14.04-17.568h.864c8.712.36 15.696 7.344 16.056 16.056.288 8.136.576 17.064.36 21.384-.504 8.928-9.504 10.008-9.504 10.008s-.072 5.472-.072 8.064l2.088 6.12-7.344-1.8z"/><path fill="#6f4439" d="M216.472 81.144s-5.688.072-11.52-3.96c0 0 2.52 6.84 11.52 6.408z"/><path fill="#263238" d="M222.808 58.176c0 .648-.576 1.224-1.296 1.224s-1.296-.504-1.296-1.224c0-.648.576-1.224 1.296-1.224s1.296.504 1.296 1.224m.72-4.464c-.144.144-1.08-.576-2.52-.648-1.368-.072-2.448.576-2.592.432-.072-.072.072-.36.576-.648.432-.288 1.224-.576 2.088-.576.864.072 1.584.36 1.944.72.504.288.576.648.504.72m-13.176 4.464c0 .648-.576 1.224-1.296 1.224s-1.296-.504-1.296-1.224c0-.648.576-1.224 1.296-1.224s1.296.504 1.296 1.224m-.288-4.752c-.144.144-1.08-.576-2.52-.648-1.368-.072-2.448.576-2.592.432-.072-.072.072-.36.576-.648.432-.288 1.224-.576 2.088-.576.864.072 1.584.36 1.944.72.432.36.576.648.504.72m4.464 10.8c0-.072.864-.216 2.232-.288.36 0 .72-.072.792-.288s-.072-.648-.216-1.08c-.288-.864-.576-1.8-.936-2.736-1.296-3.888-2.232-7.056-2.016-7.128.144-.072 1.296 3.024 2.592 6.912.288.936.576 1.872.864 2.736.144.432.36.864.144 1.368-.072.288-.36.432-.576.504s-.432.072-.576.072c-1.44.072-2.304 0-2.304-.072m-3.888-15.048c-.216.36-1.512-.072-3.168-.216s-3.024.072-3.168-.288c-.072-.144.216-.504.792-.72.576-.288 1.44-.432 2.448-.36s1.8.36 2.376.72.792.648.72.864m13.176.432c-.288.288-1.44-.072-2.736-.072-1.368-.072-2.52.144-2.736-.216-.144-.144.072-.504.576-.72.504-.288 1.296-.504 2.232-.432s1.728.36 2.16.72c.432.288.576.576.504.72"/><path fill="#ae7461" d="M195.16 57.888c-.144-.072-6.12-2.088-6.12 4.032-.072 6.12 6.12 4.896 6.12 4.752z"/><path fill="#6f4439" d="M193.288 64.368s-.072.072-.288.144c-.144.072-.504.144-.792 0-.648-.216-1.152-1.296-1.224-2.376 0-.576.144-1.08.288-1.512.216-.432.504-.792.792-.792a.58.58 0 0 1 .648.288c.072.144.072.288.072.288s.144-.072.072-.36a.4.4 0 0 0-.216-.36.56.56 0 0 0-.576-.144c-.504 0-.936.432-1.152.936s-.432 1.08-.36 1.728c0 1.224.648 2.376 1.512 2.664.432.144.792 0 1.008-.144.216-.216.288-.288.216-.36"/><path fill="#263238" d="M210.208 65.088c.216 0 .216 1.368 1.44 2.376s2.736.864 2.736 1.008c0 .072-.36.288-.936.288-.648 0-1.512-.144-2.304-.792-.72-.576-1.08-1.44-1.08-2.016-.072-.504.072-.864.144-.864M238 41.76c-.072-.36-.36-.648-.648-.864-.72-.432-1.512-.36-2.304-.432a13.8 13.8 0 0 1-5.616-1.44c.576-.288 1.152-.648 1.656-1.152 1.008-1.008 1.584-2.52 1.152-3.816-.072-.216-.216-.504-.504-.576-.432-.144-.72.288-1.008.576-.936 1.008-1.8 1.44-3.168 1.296-.864-.072-1.656-.288-2.304-.72l-.072-.072c-.288-.36-.648-.648-.936-.936-2.304-2.304-4.248-3.96-6.264-4.752-2.952-1.224-7.992-1.8-11.16-1.008s-5.976 3.312-6.408 6.48c-1.728-1.512-4.392-1.512-6.48-.72h-.072c-2.376.792-3.744 3.312-4.464 5.76-.072.144-.072.288-.144.432a8.9 8.9 0 0 1-3.24 3.096c-.216.144-.504.288-.504.576s.216.504.432.648c.576.432 1.224.72 1.944.792a12 12 0 0 1-.792 1.656c-.288.432-.576 1.008-.36 1.44.144.36.648.504 1.08.504.432-.072.792-.288 1.08-.504-.288.648-.576 1.296-.792 1.872.864.144 1.728.072 2.592-.144.504 2.304.792 6.48 1.368 7.992 1.656.072 2.016-.144 2.88.144 1.08.36.648 2.232 2.016 1.728.72-.288 1.8-2.952 2.088-3.6a35.8 35.8 0 0 0 1.656-14.832c1.008-1.008 2.16-1.872 3.528-2.448l-.072.072c2.52-.864 5.4-1.656 7.704-.432 1.872.936 2.88 2.88 4.248 4.392 2.592 2.952 5.544 4.536 9.432 4.752.288 2.736.36 7.128.504 9.648l2.232-5.04c.144-.288.36-.576.432-.864l.072-.072c.216-.504.432-.936.72-1.44 1.368 1.224 3.384-.576 2.304-2.088-.216-.288-.432-.576-.72-.792.648.576 1.584.864 2.376.648s1.44-1.08 1.44-1.944c-.072-.576-.432-1.08-1.008-1.368a6.4 6.4 0 0 0 3.24-.648c.432-.432 1.08-1.008.864-1.8"/><path fill="#fff" d="M203.224 35.28s-.36.216-.936.792c-.504.576-1.152 1.584-1.44 2.952-.144.72-.216 1.44-.288 2.304 0 .792.072 1.728.072 2.664.072.936.072 1.944 0 2.952 0 .504-.072 1.008-.216 1.584-.144.504-.288 1.08-.648 1.512-.288.36-.864.504-1.296.432s-.864-.36-1.152-.648c-.576-.648-.72-1.512-.864-2.304h.216c-.288.648-.648 1.368-1.08 1.872s-1.08.864-1.728.936c-.288 0-.648 0-.936-.144a1.4 1.4 0 0 1-.648-.648c-.144-.288-.216-.504-.216-.792s.144-.504.288-.72l.072.072c-.72.792-1.44 1.224-1.944 1.44-.288.144-.432.216-.576.216.144-.072.36-.144.576-.288a5 5 0 0 0 1.872-1.44l.072.072c-.288.288-.36.864-.072 1.368.144.216.288.432.576.576.216.144.576.144.864.144.576-.072 1.224-.36 1.656-.864s.792-1.152 1.08-1.8l.144-.288.072.288c.144.72.288 1.584.792 2.16.288.288.648.504 1.008.576s.792-.072 1.08-.36c.36-.36.504-.936.576-1.368a5.5 5.5 0 0 0 .216-1.512c.072-1.008 0-2.016 0-2.952-.072-.936-.072-1.8-.072-2.664s.144-1.584.288-2.304c.288-1.368.936-2.448 1.512-3.024.72-.576 1.08-.792 1.08-.792m27.72 9.072-.072.072c-.072.072-.144.072-.216.144s-.216.144-.36.216-.36.216-.576.288c-.864.36-2.16.792-3.888.648-1.656-.144-3.672-.72-5.4-2.088-1.8-1.296-3.312-3.24-4.608-5.4-.648-1.08-1.152-2.232-1.728-3.24s-1.224-2.016-1.944-2.736c-.792-.792-1.656-1.368-2.592-1.584-.432-.144-.936-.144-1.368-.144s-.864.072-1.224.216a4.3 4.3 0 0 0-1.872 1.08c-.504.432-.792.936-1.008 1.296-.432.792-.432 1.368-.504 1.368v-.072c0-.072 0-.144.072-.288.072-.216.144-.576.36-1.008s.504-.864 1.008-1.368a6.3 6.3 0 0 1 1.944-1.152 4.1 4.1 0 0 1 1.296-.216c.432 0 .936 0 1.44.144.936.288 1.872.864 2.664 1.656s1.44 1.728 2.016 2.808 1.08 2.16 1.728 3.24c1.224 2.16 2.808 4.104 4.536 5.4s3.672 1.944 5.328 2.088a8 8 0 0 0 3.816-.576c.72-.504 1.152-.792 1.152-.792"/><path fill="#fff" d="M231.808 40.392s-.144.072-.36.216-.576.288-.936.504c-.432.144-.936.36-1.512.504a8 8 0 0 1-1.944.216c-.72 0-1.368-.072-1.944-.144a21 21 0 0 1-1.512-.432c-.432-.144-.792-.288-1.008-.432s-.36-.216-.36-.216.504.216 1.368.504a8 8 0 0 0 1.512.36c.576.072 1.224.144 1.872.144s1.296-.072 1.872-.216q.864-.216 1.512-.432c.936-.288 1.44-.576 1.44-.576"/><path fill="#263238" d="m227.992 313.416-.648 16.416s17.064 6.12 17.208 9.144l-32.976-.072-.072-25.56z"/><path fill="#fff" d="M217.12 328.392c-.648.144-1.08.864-.936 1.512s.864 1.08 1.512.936 1.224-.936 1.008-1.584c-.216-.576-1.08-1.08-1.656-.792m-5.472 10.44.072-2.592 31.608 1.008s1.44.648 1.296 1.584zm16.272-9.288c0 .144-.792.216-1.584.72s-1.224 1.152-1.368 1.08c-.144 0 .072-.936 1.08-1.512.936-.576 1.944-.432 1.872-.288m3.456 1.44c.072.144-.648.432-1.224 1.08s-.72 1.368-.864 1.368-.288-.864.432-1.656c.72-.936 1.656-.936 1.656-.792m2.016 3.96c-.144 0-.36-.72.072-1.584s1.152-1.152 1.224-1.08c.072.144-.432.576-.72 1.296-.432.72-.432 1.368-.576 1.368m-5.76-9.144c-.072.144-.792-.072-1.728 0s-1.656.36-1.728.216.576-.72 1.656-.72c1.152-.072 1.944.432 1.8.504"/><path fill="#263238" d="m188.392 314.424-.936 19.8 3.96 15.912c.288 1.152-.504 2.304-1.728 2.448-.648.144-1.368-.072-1.872-.576-3.096-2.952-14.04-14.112-14.04-15.12-.072-1.656-.576-21.24-.576-21.24z"/><path fill="#fff" d="m189.76 352.584-15.984-17.28v.864c.072.864.216 1.44.72 2.016 1.296 1.512 4.896 5.616 13.392 13.896.432.432 1.152.648 1.872.504"/><path fill="#fff" d="M178.168 329.04c.504.36.648 1.08.288 1.584s-1.152.648-1.656.288-.72-1.224-.288-1.728c.432-.432 1.368-.576 1.728-.144" opacity=".6"/><path fill="#fff" d="M185.224 343.872c.144.072.576-.936 1.872-1.512 1.224-.576 2.376-.288 2.376-.36s-.216-.216-.72-.288-1.152 0-1.872.288c-.648.288-1.152.792-1.44 1.152-.216.36-.216.648-.216.72m1.44 2.664c.072.072.792-.576 1.872-.792 1.08-.288 1.944-.072 2.016-.216.072-.072-.936-.576-2.16-.216-1.224.288-1.872 1.152-1.728 1.224m-4.032-6.12c.072.072 1.152-.864 2.736-1.44s3.024-.504 3.096-.648c0-.072-1.512-.432-3.24.216-1.728.576-2.736 1.8-2.592 1.872m-.288-6.048c.072.144 1.224-.288 2.664-.36 1.512-.072 2.664.36 2.664.216.072-.072-1.08-.72-2.664-.648-1.584 0-2.736.648-2.664.792m.144-5.832c.072.144 1.224-.504 2.808-.432s2.664.792 2.736.72c0-.072-.216-.288-.648-.576s-1.224-.504-2.016-.576a4.35 4.35 0 0 0-2.088.36c-.576.216-.864.432-.792.504m2.736-1.584s.072-.288.072-.72c0-.504-.144-1.224-.576-1.944-.216-.36-.432-.864-1.008-1.152-.288-.144-.72-.072-.936.144s-.36.576-.36.864c0 1.224 1.08 2.52 2.52 2.736s2.808-.576 3.456-1.656c.144-.288.216-.648.072-.936-.144-.36-.576-.504-.864-.432-.648.072-1.008.432-1.368.648-.72.504-1.152 1.08-1.44 1.512s-.36.648-.36.648c.072.072.576-.936 1.944-1.944.36-.216.792-.504 1.224-.504.216 0 .432.072.504.216s0 .432-.072.648c-.504.864-1.728 1.584-3.024 1.44-1.224-.144-2.16-1.224-2.232-2.304 0-.216.072-.504.216-.648a.44.44 0 0 1 .504-.072c.432.144.648.576.864.936.936 1.44.792 2.592.864 2.52"/><path fill="#263238" d="M238.144 176.328s2.88 9.216 2.52 20.664c-.144 4.392-10.224 126.72-10.224 126.72l-20.808.864.792-114.624-1.656.432s-9.216 49.248-9.792 57.168c-.504 7.128-7.848 59.112-7.848 59.112l-18.936-.504 3.024-66.96 4.176-65.736 1.8-19.152z"/><path fill="#fff" d="M206.68 198.432s.288.216.864.432 1.44.576 2.592.792a6 6 0 0 0 1.944-.072c.648-.144 1.368-.432 1.944-1.008s.936-1.296 1.152-2.088.288-1.584.432-2.448c.504-3.312.864-6.336 1.008-8.568.072-1.08.144-2.016.144-2.592v-.936s-.072.36-.144.936c-.072.72-.144 1.584-.288 2.592-.216 2.16-.576 5.184-1.152 8.496-.288 1.656-.432 3.312-1.44 4.32s-2.448 1.152-3.528 1.08a12.2 12.2 0 0 1-2.592-.648 7 7 0 0 0-.936-.288m5.544-15.768s-.144-.072-.432-.072-.72.072-1.152.432c-.432.288-.792.864-.792 1.584s.648 1.44 1.44 1.656c.792.288 1.728.072 2.16-.576.432-.576.432-1.224.288-1.728s-.432-.792-.648-1.008c-.216-.144-.432-.216-.432-.144-.072.072.576.288.792 1.224.072.432 0 1.008-.36 1.44s-1.08.576-1.728.36-1.152-.72-1.152-1.296.288-1.008.576-1.368c.792-.576 1.44-.432 1.44-.504m-32.544 9.576s.216.072.72.072c.432 0 1.152 0 1.944-.072 1.656-.144 3.888-.648 6.192-1.656 2.304-1.08 4.104-2.448 5.256-3.528a18 18 0 0 0 1.296-1.44c.288-.36.432-.576.36-.576-.072-.072-.72.72-1.872 1.8a21.4 21.4 0 0 1-5.256 3.384 22.5 22.5 0 0 1-6.048 1.728c-1.584.216-2.592.216-2.592.288m50.184-9.936c-.072 0 .36.792 1.152 2.016a21.3 21.3 0 0 0 3.816 4.176c1.656 1.44 3.384 2.52 4.752 3.168 1.296.648 2.16.936 2.16.864s-.792-.432-2.016-1.152-2.952-1.8-4.608-3.24-2.952-2.88-3.816-4.032c-.936-1.08-1.368-1.8-1.44-1.8"/><path fill="#263238" d="m189.76 174.024.432.216c.288.144.72.288 1.224.504 1.08.432 2.664 1.008 4.608 1.656s4.32 1.296 6.984 2.016c2.664.648 5.616 1.224 8.712 1.728s6.12.792 8.784 1.008c2.736.144 5.184.288 7.2.216 2.088 0 3.744-.072 4.896-.144.504-.072 1.008-.072 1.296-.072s.432-.072.432-.072H232.6c-1.152 0-2.808.072-4.896 0-2.088 0-4.464-.144-7.2-.288-2.736-.216-5.688-.576-8.784-1.008-3.096-.504-6.048-1.08-8.64-1.728a177 177 0 0 1-6.984-1.872c-1.944-.576-3.528-1.152-4.608-1.512-.504-.144-.936-.288-1.224-.432-.36-.216-.504-.216-.504-.216"/><path fill="#53a655" d="m229.792 92.448-14.616-4.824s.072 4.608-6.552 4.752c-7.632.144-13.896-5.616-13.896-5.616s-11.52 4.536-14.832 7.2l3.096 58.32L184 168.984s-1.656 2.736-1.656 5.616-.072 4.824-.072 4.824c20.304 6.12 38.952 11.304 57.528 5.328 0 0 1.08-9.72 0-12.384s-.864-2.952-.864-2.952l-1.8-30.816-1.656-23.544z"/><path fill="#53a655" d="M218.92 89.136c-.216-1.728-2.304-5.472-2.304-5.472l-4.824 6.12-17.136-9.072-2.88 6.048 12.672 8.784 6.408-1.008 4.968-.936z"/><path fill="#263238" d="M192.064 86.76s.072.144.288.288.504.432.936.792a53 53 0 0 0 3.6 2.664c3.096 2.16 7.56 4.968 12.816 7.56l.144.072.072-.144c.216-.288.432-.648.576-.936 1.008-1.728 1.656-3.528 2.088-5.328h-.36c.216 1.368.792 2.448 1.368 3.456s1.152 1.944 1.8 2.808l.216.288.072-.288a687 687 0 0 1 2.304-6.48c.216-.72.432-1.368.648-1.8l.216-.648s-.144.216-.288.648-.432 1.08-.72 1.8c-.576 1.584-1.44 3.816-2.448 6.408l.288-.072a48 48 0 0 1-1.728-2.808c-.504-1.008-1.152-2.16-1.296-3.312l-.144-1.152-.216 1.08c-.36 1.728-1.08 3.528-2.016 5.184-.216.36-.36.648-.576.936l.288-.072c-5.256-2.52-9.72-5.256-12.816-7.416q-2.376-1.62-3.672-2.592c-.36-.288-.72-.504-1.008-.72-.36-.144-.432-.216-.432-.216"/><path fill="#fff" d="m229.936 89.856 5.832 34.848 8.712 6.336s-4.176 4.176-.216 7.56c4.032 3.384 11.304 7.2 11.304 7.2s8.784-9.936 8.784-15.192c0-5.184-4.464-10.152-8.784-13.68-2.232-1.8-3.6-3.6-3.6-3.6s-9.792-16.416-14.04-19.872c-4.176-3.384-7.992-3.6-7.992-3.6m-55.368 144.792 42.768 1.944-.864-100.8s-7.056-17.712-12.024-27.864c-4.968-10.224-11.664-23.544-11.664-23.544l-3.096 4.176-10.8 3.816-.288 35.136 4.824 33.768-3.816 20.088z"/><path fill="#fff" d="m233.32 90.504-11.952-2.232-3.24-3.024-1.944 49.896 1.08 101.448h27.864l-5.4-73.584-3.96-48.312z"/><path fill="#263238" d="m215.104 132.552-.432-.432c-.288-.288-.648-.72-1.152-1.296-1.008-1.152-2.376-2.736-4.104-4.68a534 534 0 0 0-6.12-6.984c-1.152-1.296-2.376-2.664-3.6-4.104-.648-.72-1.224-1.44-1.872-2.16s-1.368-1.44-1.728-2.52c-.288-.792-.144-1.584-.072-2.304q.216-1.08.648-2.16a38 38 0 0 1 1.872-3.816l.144.288c-1.512-.144-2.88-.216-4.248-.288-.648-.072-1.368-.072-2.016-.216s-1.296-.36-1.8-.792-.792-1.008-.936-1.656c-.144-.576-.072-1.152-.072-1.728.072-1.08.144-2.088.144-2.952.072-1.8.072-3.24.144-4.248v-1.512 5.76c0 .936-.072 1.944-.144 3.024 0 .504 0 1.08.072 1.656.144.576.36 1.08.792 1.44s1.008.576 1.656.72 1.296.144 1.944.144c1.368.072 2.808.216 4.32.288h.288l-.144.288c-.72 1.152-1.368 2.376-1.872 3.744a10 10 0 0 0-.648 2.088c-.144.72-.216 1.44 0 2.16.288.936 1.008 1.656 1.656 2.376s1.296 1.44 1.872 2.16c1.224 1.44 2.448 2.808 3.6 4.176 2.304 2.664 4.32 5.04 6.048 7.056 1.656 2.016 3.096 3.6 4.032 4.752q.648.864 1.08 1.296c.504.216.648.432.648.432m1.368 0s0-.216.072-.504q.108-.54.432-1.512c.432-1.296 1.008-3.168 1.8-5.472s1.656-5.04 2.592-8.064c.504-1.512.936-3.096 1.44-4.824a55 55 0 0 0 1.296-5.184c.144-.864.36-1.728.216-2.448-.144-.792-.72-1.44-1.296-1.944-1.224-1.08-2.592-1.944-3.888-2.592l-.288-.144.216-.144c1.008-.72 1.944-1.44 2.88-2.088s1.872-1.224 2.16-2.16-.216-1.872-.72-2.52c-.504-.72-.936-1.44-1.368-2.016a117 117 0 0 1-1.872-2.952c-.216-.36-.36-.576-.432-.792s-.144-.288-.144-.288.072.072.216.288.288.432.504.792c.504.72 1.08 1.656 1.944 2.88.432.648.864 1.296 1.44 2.016.288.36.504.792.72 1.224s.288 1.008.072 1.512c-.36 1.08-1.368 1.728-2.232 2.376-.936.648-1.872 1.368-2.88 2.088v-.288c1.368.72 2.736 1.512 3.96 2.664.576.576 1.224 1.224 1.44 2.16.144.936-.072 1.8-.216 2.592-.36 1.8-.792 3.6-1.296 5.256s-.936 3.312-1.44 4.824c-.936 3.024-1.872 5.76-2.664 8.064a319 319 0 0 0-1.872 5.4c-.216.576-.36 1.08-.504 1.44-.216.144-.288.36-.288.36m19.296-22.392s.072.36.144 1.008c.072.72.144 1.584.216 2.664.144 2.304.36 5.4.576 8.784s.432 6.48.576 8.784c.072 1.08.144 1.944.144 2.664 0 .648.072 1.008 0 1.008 0 0-.072-.36-.144-.936-.072-.648-.144-1.512-.288-2.664-.216-2.232-.432-5.328-.648-8.784s-.36-6.552-.432-8.784c-.072-1.152-.072-2.016-.072-2.664-.072-.72-.072-1.08-.072-1.08m-1.584-16.992c.072 0 .36 2.376.576 5.328s.288 5.328.144 5.328c-.072 0-.36-2.376-.576-5.328-.144-2.88-.216-5.256-.144-5.328m16.56 27.432c.072.072-1.296 2.52-3.024 5.544-1.8 3.024-3.312 5.4-3.384 5.328s1.296-2.52 3.024-5.544c1.8-3.024 3.312-5.4 3.384-5.328"/><path fill="#263238" d="M257.728 124.056c0 .072-.648-.072-1.728-.072s-2.592.144-4.176.648-2.88 1.224-3.744 1.872-1.368 1.08-1.368 1.08.36-.576 1.224-1.296 2.16-1.512 3.816-2.016c1.584-.504 3.168-.576 4.248-.504s1.728.288 1.728.288m-41.256 109.8v-.72c0-.648-.072-1.656-.072-2.88-.072-2.52-.144-6.192-.216-10.656-.144-9-.288-21.384-.36-35.064s0-26.064.072-35.064c.072-4.464.072-8.064.144-10.656 0-1.224.072-2.232.072-2.88v-1.008 14.544c0 9 0 21.384.072 35.064s.216 26.064.216 35.064c.072 4.464.072 8.064.072 10.656z"/><path fill="#ffbf9d" d="M170.176 202.464c3.24-5.256 21.816-35.64 35.28-57.528 0 0 4.032-8.784 14.76-10.944s53.208 35.928 53.208 35.928l-27 21.384-23.328-26.568h-1.44s-2.592 9.36-8.208 15.552C206.896 187.56 184 207.792 184 207.792z"/><path fill="#ffbf9d" d="M142.528 218.88s-1.872-2.808 3.312-4.176 9.504-2.52 12.456-4.248c3.528-2.088 8.928-5.832 11.232-7.776a223 223 0 0 0 4.392-3.672s11.448 6.192 11.304 6.336c-.216.144-1.368 1.872-1.296 3.528.144 1.656 2.808 8.136.504 11.664-.576.936-32.256.144-36.864-.288-4.608-.288-5.04-1.368-5.04-1.368"/><path fill="#263238" d="M270.472 167.328s-16.992 4.968-25.344 24.048l-5.112-7.488s6.84-16.92 24.336-22.032zm-14.976-12.6s-15.984 5.328-22.968 21.168l-4.68-5.688s7.848-15.84 22.392-20.16zm-56.088-1.512s3.744 13.248 20.664 16.92l-3.384 6.192s-13.824-3.744-20.88-17.136zm-13.752 23.688s6.696 10.152 18.504 12.744l-5.76 5.4s-12.096-3.096-16.56-11.88z"/><path fill="#263238" d="m195.592 188.064 26.856-35.136s-5.904-5.04-6.192-4.752c-.36.288-27.72 37.296-27.72 37.296zm60.48-19.44-29.88-25.272-4.824 7.2 31.608 25.344z"/><path fill="#455a64" d="M257.296 164.736c0 .072-.72.504-1.8 1.296-1.152.792-2.664 1.944-4.32 3.24-1.584 1.368-2.952 2.664-3.96 3.744-.936 1.008-1.512 1.656-1.512 1.656s.072-.216.288-.504.576-.792 1.008-1.296a33 33 0 0 1 3.888-3.816 42 42 0 0 1 4.392-3.168c1.224-.792 2.016-1.224 2.016-1.152m-8.712-6.48c0 .072-.648.36-1.728 1.008-1.08.576-2.448 1.512-3.888 2.664a25 25 0 0 0-3.384 3.312 133 133 0 0 1-1.296 1.512c-.072 0 .36-.72 1.08-1.656.792-.936 1.944-2.232 3.384-3.456s2.952-2.088 4.032-2.664c1.08-.504 1.8-.72 1.8-.72m-4.968-5.184c0 .072-.648.432-1.656 1.152s-2.376 1.728-3.816 3.024a40 40 0 0 0-3.456 3.312c-.864.936-1.296 1.512-1.368 1.512s.36-.72 1.152-1.656a31 31 0 0 1 3.456-3.456 43 43 0 0 1 3.888-2.952c1.08-.72 1.728-1.008 1.8-.936"/><path fill="#455a64" d="M257.296 174.672c-.072.072-1.368-1.296-2.952-2.952s-3.168-2.592-3.096-2.736c.072-.072 1.728.792 3.384 2.448a22 22 0 0 1 1.944 2.232c.504.576.792.936.72 1.008"/><path fill="#263238" d="M226.995 154.058a7.416 7.416 0 1 0-10.489-10.488 7.416 7.416 0 0 0 10.489 10.488"/><path fill="#455a64" d="M229.144 148.824c-.072 0 0-.648-.288-1.8a7.43 7.43 0 0 0-2.736-4.032c-.864-.648-1.872-1.152-3.096-1.368a7 7 0 0 0-3.816.36 5.5 5.5 0 0 0-1.8 1.008 7.5 7.5 0 0 0-1.512 1.512c-.864 1.152-1.368 2.736-1.44 4.32 0 1.584.504 3.096 1.44 4.32.432.576.936 1.152 1.512 1.512a7.6 7.6 0 0 0 1.8 1.008c1.296.504 2.592.504 3.816.36 1.224-.216 2.232-.72 3.096-1.368 1.656-1.296 2.448-2.88 2.736-4.032s.288-1.872.288-1.8c0 0 .072.648-.144 1.8-.288 1.152-1.008 2.88-2.664 4.176-.864.648-1.944 1.224-3.168 1.44s-2.664.216-3.96-.288c-.648-.216-1.296-.576-1.944-1.008a8.3 8.3 0 0 1-1.584-1.584c-.936-1.224-1.44-2.88-1.512-4.536 0-1.656.576-3.24 1.512-4.536.432-.648 1.008-1.152 1.584-1.584a6.2 6.2 0 0 1 1.944-1.008c1.368-.504 2.736-.504 3.96-.288s2.304.792 3.168 1.44c1.728 1.368 2.448 3.024 2.664 4.176.288 1.08.144 1.8.144 1.8m-16.056 12.24-1.368 1.944c-.432.648-1.296.792-1.944.36s-.792-1.296-.36-1.944l1.368-1.944c.432-.648 1.296-.792 1.944-.36s.864 1.296.36 1.944m-9 11.952-1.368 1.944c-.432.648-1.296.792-1.944.36s-.792-1.296-.36-1.944l1.368-1.944c.432-.648 1.296-.792 1.944-.36s.792 1.296.36 1.944m-5.4 7.776-1.368 1.944c-.432.648-1.296.792-1.944.36s-.792-1.296-.36-1.944l1.368-1.944c.432-.648 1.296-.792 1.944-.36s.792 1.296.36 1.944m14.76-12.816c0 .072-.792-.144-1.944-.72-1.152-.504-2.664-1.44-4.176-2.664a22.2 22.2 0 0 1-3.456-3.528c-.792-1.008-1.152-1.656-1.152-1.656.072 0 .504.576 1.368 1.512.792.936 2.016 2.16 3.456 3.384s2.952 2.088 4.032 2.664c1.224.648 1.944.936 1.872 1.008m-3.672 5.4c0 .072-.72-.288-1.8-.864a30 30 0 0 1-3.888-2.808c-1.44-1.224-2.592-2.448-3.384-3.456-.792-.936-1.152-1.584-1.152-1.656.072 0 .504.576 1.296 1.44.792.936 2.016 2.088 3.384 3.312 1.44 1.224 2.808 2.16 3.816 2.88 1.152.72 1.8 1.08 1.728 1.152m-10.8 14.472c0 .072-.72-.144-1.872-.648a20.6 20.6 0 0 1-4.176-2.448 28.4 28.4 0 0 1-3.6-3.24c-.864-.936-1.296-1.512-1.296-1.584.072-.072.576.504 1.44 1.368s2.16 2.016 3.6 3.096a38 38 0 0 0 4.032 2.52c1.224.576 1.944.864 1.872.936"/><path fill="#455a64" d="M224.68 148.824a2.92 2.92 0 0 1-2.952 2.952 2.92 2.92 0 0 1-2.952-2.952 2.92 2.92 0 0 1 2.952-2.952 2.92 2.92 0 0 1 2.952 2.952m18.36 12.96c-.072.072-1.296-.936-2.88-2.016-1.584-1.152-2.88-2.016-2.808-2.088s1.44.648 3.024 1.8 2.736 2.232 2.664 2.304m-34.632 3.456c.072.072-.72 1.152-1.872 2.376-1.08 1.224-2.088 2.16-2.16 2.088s.72-1.152 1.872-2.376 2.088-2.16 2.16-2.088m-14.832 20.016c.072.072-.648 1.512-1.872 3.096s-2.448 2.664-2.52 2.592 1.008-1.296 2.232-2.808c1.152-1.584 2.016-2.952 2.16-2.88"/><path fill="#263238" d="M413.248 164.664c1.728.36 3.456.792 4.896 1.8s2.592 2.52 2.736 4.248-.792 3.6-2.52 4.176l-.144 1.368c-2.016-2.088-4.968-2.808-7.848-3.168s-5.328.216-7.992-.936c1.44-1.728 2.88-3.816 4.968-4.464-1.44-.36-3.096-.216-4.392.432.72-1.8 2.448-3.096 4.392-3.528 2.016-.432 3.96-.288 5.904.072"/><path fill="#263238" d="M420.016 172.8c6.048-.288 8.784 6.912 9.936 11.664 1.08 4.752-.144 9.864-2.592 13.968-2.448 4.176-5.976 7.488-9.72 10.512-.432-1.08-.936-2.232-1.368-3.312.432.936-.072 2.088-.936 2.664-.792.576-1.872.72-2.808.864-2.376.288-4.752.504-7.128.432-6.264-.216-12.312-2.376-18.216-4.464 4.248-2.088 9.144-2.448 13.896-2.664 1.656-.072 3.456-.144 4.824-1.152 1.224-.864 1.872-2.376 2.304-3.888.36-1.512.504-3.024.864-4.536.864-3.312 3.096-6.264 6.048-7.92z"/><path fill="#ffbf9d" d="m410.728 202.176-34.848 7.056c-5.904 1.224-14.904 1.728-16.344-7.704-.648-8.28 6.624-11.952 12.168-13.032 2.592-.504 4.824-1.008 5.04-1.08 0 0-.936-9.072 7.704-11.448 4.176-1.152 12.96-2.88 20.952-4.32 8.568-1.584 16.92 3.744 19.152 12.168l.216.864c1.944 9.144-4.824 15.84-14.04 17.496"/><path fill="#ff9a6c" d="M376.816 187.416s1.152 5.544 6.336 10.44c0 0-7.056-1.08-8.568-9.936z"/><path fill="#263238" d="M404.68 187.344c-.144.216.864 1.08 1.152 2.52.36 1.44-.216 2.736 0 2.808.072.072.36-.216.648-.72.216-.504.432-1.368.216-2.304s-.72-1.584-1.152-1.944-.792-.432-.864-.36m-4.032.36c-.648.144-1.008.792-.864 1.44s.72 1.08 1.368.936 1.008-.792.864-1.44-.72-1.08-1.368-.936m-6.912-2.088c.072 0 0-.864-.216-2.304-.072-.36-.072-.72.144-.792.216-.144.648-.072 1.08-.072.936.072 1.872.216 2.88.288 4.032.432 7.344.648 7.416.432 0-.144-3.24-.648-7.344-1.008-1.008-.072-1.944-.216-2.88-.288-.432 0-.936-.144-1.368.216-.216.144-.36.432-.36.72 0 .216.072.432.072.576.288 1.44.504 2.232.576 2.232m16.632 1.296c-.288.216.144 1.368.36 2.736.216 1.44.072 2.664.432 2.736.144.072.432-.216.648-.792.216-.504.288-1.296.216-2.16-.144-.864-.432-1.584-.792-2.016-.432-.36-.72-.576-.864-.504m-5.4-13.464c-.216.216.288 1.296.576 2.664.36 1.368.36 2.592.648 2.664.144.072.36-.216.432-.792.144-.504.144-1.296-.072-2.16a6.2 6.2 0 0 0-.864-1.944c-.288-.36-.576-.504-.72-.432"/><path fill="#ffbf9d" d="M404.176 203.184c.072.144 3.384 5.472-2.592 6.912-5.976 1.368-6.12-4.896-5.976-4.968.072-.072 8.568-1.944 8.568-1.944"/><path fill="#ff9a6c" d="M398.2 206.352s-.072.144-.072.288c-.072.216 0 .504.144.792.36.576 1.512.864 2.592.648a4.4 4.4 0 0 0 1.44-.648c.36-.288.648-.648.648-.936 0-.36-.216-.504-.432-.576s-.288 0-.288 0 .072-.144.36-.144c.144 0 .288 0 .432.144s.288.288.288.576c.072.504-.288 1.008-.648 1.296-.432.36-.936.648-1.584.72-1.224.216-2.52-.144-2.952-.936-.216-.36-.144-.792-.072-1.008 0-.144.144-.216.144-.216"/><path fill="#263238" d="M401.584 174.024c-.144.216.864 1.08 1.152 2.52.36 1.44-.216 2.736 0 2.808.072.072.36-.216.648-.72.216-.504.432-1.368.216-2.304s-.72-1.584-1.152-1.944-.792-.432-.864-.36m-3.672 2.232c-.648.144-1.008.792-.864 1.44s.72 1.08 1.368.936 1.008-.792.864-1.44c-.072-.72-.72-1.08-1.368-.936m19.008-2.808c3.384-1.944 5.832.576 8.712 3.096 2.952 2.52 3.96 6.984 2.52 10.584-.792 1.872-2.088 3.456-3.168 5.184-1.008 1.728-1.8 3.888-1.152 5.76-2.52-1.44-3.96-4.68-3.384-7.56-2.016 2.88-3.168 6.408-3.312 9.936-2.304-2.088-2.736-5.832-1.008-8.352-2.592 1.512-4.752 3.672-6.336 6.264-.288.432-.576.936-1.152.936-.504 0-.864-.576-1.008-1.08-.936-2.88-.144-6.264 1.944-8.352 2.304-2.304 4.896-4.104 7.272-6.336 1.152-1.08 2.88-3.888 2.448-5.688-.36-1.512-1.584-4.176-3.096-4.464"/><path fill="#263238" d="M423.76 185.904c.504.144.792.648 1.008 1.08 1.44 3.096.36 6.912-1.872 9.576-2.232 2.592-5.4 4.248-8.568 5.544-2.592 1.08-5.256 2.016-8.064 1.872l-2.52-1.008c-.72-.288-1.584-.072-2.448-.072-.792 0-1.8-.36-1.872-1.152-.072-.576.36-1.152.936-1.44 1.512-.936 3.6-.792 5.112-1.8 1.008-.648 1.584-1.8 2.376-2.736 1.368-1.656 3.24-2.808 5.112-3.888 3.096-1.8 6.192-3.672 9.36-5.472.36-.36.936-.648 1.44-.504"/><path fill="#263238" d="M416.92 173.448c3.384-1.944 5.832.576 8.712 3.096 2.952 2.52 3.96 6.984 2.52 10.584-.792 1.872-2.088 3.456-3.168 5.184-1.008 1.728-1.8 3.888-1.152 5.76-2.52-1.44-3.96-4.68-3.384-7.56-2.016 2.88-3.168 6.408-3.312 9.936-2.304-2.088-2.736-5.832-1.008-8.352-2.592 1.512-4.752 3.672-6.336 6.264-.288.432-.576.936-1.152.936-.504 0-.864-.576-1.008-1.08-.936-2.88-.144-6.264 1.944-8.352 2.304-2.304 4.896-4.104 7.272-6.336 1.152-1.08 2.88-3.888 2.448-5.688-.36-1.512-1.584-4.176-3.096-4.464"/><path fill="#455a64" d="M422.824 191.88s0-.288.072-.864.288-1.368.72-2.232c.432-.936 1.08-1.944 1.728-3.096.288-.576.648-1.224.864-1.944s.288-1.512.216-2.304a7.3 7.3 0 0 0-1.872-3.96c-.864-1.008-1.944-1.728-2.808-2.232a20 20 0 0 0-2.16-1.08c-.504-.216-.792-.288-.864-.288 0 .072 1.152.504 2.88 1.584.864.504 1.8 1.224 2.664 2.232s1.584 2.304 1.728 3.816c.216 1.512-.36 2.88-.936 4.032-.648 1.152-1.296 2.232-1.656 3.168-.432.936-.576 1.8-.648 2.304 0 .504.072.864.072.864"/><path fill="#455a64" d="M416.56 188.784c.072 0 .576-.792 1.728-1.944.576-.576 1.224-1.224 1.872-2.088.648-.792 1.368-1.8 1.656-3.024.36-1.224.288-2.448.072-3.456-.288-1.08-.792-1.944-1.296-2.52-.504-.648-1.008-1.08-1.368-1.296s-.576-.36-.648-.288.864.504 1.8 1.8c.432.648.936 1.44 1.152 2.448a7.4 7.4 0 0 1-.072 3.312c-.288 1.152-.936 2.088-1.584 2.952-.648.792-1.296 1.512-1.8 2.088s-.936 1.152-1.152 1.512c-.288.288-.36.504-.36.504m-4.752-20.304c0 .072.576.072 1.44.288.864.144 2.088.504 3.168 1.224s1.8 1.8 2.088 2.592c.36.792.36 1.368.36 1.368.072 0 .144-.576-.144-1.44s-1.008-2.016-2.16-2.808-2.448-1.08-3.312-1.224c-.936-.144-1.44-.072-1.44 0"/><path fill="#455a64" d="M408.064 195.552v.288c0 .144.072.432.144.792a8 8 0 0 0 1.152 2.736c.36.504.792 1.152 1.584 1.44.36.144.864.144 1.224-.144s.504-.792.504-1.224c.072-.432 0-.936.072-1.368 0-.432.072-.936.216-1.44a7.6 7.6 0 0 1 1.296-2.808l-.288-.144c-.432 1.872.36 4.176 2.304 5.328l.216.144.072-.216c.36-1.728 1.08-3.384 2.304-4.824l-.36-.144c-.216 2.304.792 4.824 2.88 6.192.072.072.144.144.216.144l.288.144v-.36c.072-1.08.576-2.088 1.224-3.024.648-.864 1.368-1.656 2.088-2.448s1.44-1.584 2.016-2.448 1.008-1.8 1.368-2.736c1.368-3.744.792-7.632-.504-10.296-1.368-2.736-3.24-4.32-4.608-5.256s-2.304-1.152-2.304-1.152c0 .072.864.36 2.232 1.296s3.168 2.592 4.464 5.256c.648 1.296 1.08 2.88 1.224 4.608s-.144 3.6-.792 5.4c-.648 1.872-1.8 3.528-3.312 5.04-.72.792-1.512 1.584-2.16 2.52s-1.152 2.016-1.224 3.168l.288-.144c-.072-.072-.144-.072-.216-.144-1.944-1.296-2.952-3.672-2.736-5.832l.072-.648-.432.504c-1.224 1.512-2.016 3.24-2.304 5.04l.288-.144c-1.8-1.008-2.592-3.24-2.16-4.968l.216-.864-.504.72a8.2 8.2 0 0 0-1.296 2.952c-.144.504-.144 1.008-.216 1.512v1.368c-.072.432-.144.864-.432 1.08a1.01 1.01 0 0 1-1.008.144c-.648-.288-1.152-.864-1.512-1.368-.72-1.008-1.08-2.016-1.224-2.664-.288-.648-.36-1.008-.36-1.008"/><path fill="#263238" d="M392.872 189.36c0-.216-1.512-.216-2.52-1.512-1.08-1.296-.936-2.88-1.152-2.88-.072 0-.288.36-.288 1.008s.216 1.584.864 2.376 1.512 1.08 2.16 1.152c.576.144.936 0 .936-.144m-96.984-2.592-22.392-17.28-28.368 22.536s29.304.288 29.808 0c.504-.36 20.952-5.256 20.952-5.256"/><path fill="#ffbf9d" d="M98.176 194.616c-1.152.72-.936 2.592-.36 3.744.648 1.224-.216-.144.504 1.008 1.08 1.728 1.368 3.816 2.304 5.616 2.88 5.544 10.656 6.624 14.4 11.592 1.872 2.52 2.664 5.832 4.968 7.92 2.088 1.944 5.4 2.448 7.992 1.224 4.248-1.944 6.048-7.632 10.512-9.072 0 0-1.008-12.168-1.728-12.096-.648 0-6.84.36-14.544-1.152s-15.768-4.032-18-6.048c-2.232-1.944-2.736-4.752-6.048-2.736"/><path fill="#ffbf9d" d="M242.176 187.776s-35.28.288-43.056 4.392c-7.848 4.104-14.256 5.688-14.256 5.688L130 204.336l1.8 12.6s48.888 4.536 57.528 2.808 17.208-4.752 22.032-4.32 33.264.792 33.264.792z"/><path fill="#263238" d="M224.464 187.2s16.344-.72 24.552-.792c19.728-.144 36.072-.504 36.072-.504l4.536 32.4h-67.392z"/><path fill="#ff9a6c" d="M224.392 188.424s-.072 0-.216.072c-.216 0-.432.072-.72.072-.648.072-1.584.216-2.736.36-2.376.288-5.832.648-10.08 1.152-2.16.288-4.464.432-6.912 1.008-2.448.504-4.968 1.584-7.488 2.808-1.296.648-2.592 1.296-3.96 1.8s-2.88.936-4.392 1.368a94 94 0 0 1-9.36 1.944c-3.24.576-6.408.936-9.504 1.296s-6.048.72-8.856 1.008c-5.616.648-10.728 1.224-14.976 1.728s-7.704.864-10.08 1.152c-1.152.144-2.088.216-2.736.288-.288 0-.504.072-.72.072h-.216s.072 0 .216-.072c.144 0 .432-.072.72-.072.648-.072 1.584-.216 2.736-.36 2.376-.288 5.832-.72 10.08-1.224s9.36-1.152 14.976-1.8q4.212-.54 8.856-1.08c3.096-.36 6.264-.72 9.504-1.296a94 94 0 0 0 9.36-1.944c1.512-.432 2.952-.792 4.32-1.368 1.368-.504 2.664-1.152 3.96-1.8 2.52-1.224 5.04-2.304 7.56-2.808s4.824-.72 6.984-.936c4.248-.432 7.704-.792 10.152-1.08 1.152-.144 2.088-.216 2.736-.288.288 0 .504-.072.72-.072-.072.072 0 .072.072.072"/><path fill="#455a64" d="M271.84 185.544s-.144 0-.432.072c-.36 0-.792.072-1.296.072-1.152.072-2.736.144-4.752.288-4.032.216-9.576.36-15.768.576-6.12.144-11.664.36-15.768.432-1.944.072-3.6.144-4.752.144h-1.728s.144 0 .432-.072c.36 0 .792-.072 1.296-.072 1.152-.072 2.736-.144 4.752-.288 4.032-.216 9.576-.36 15.768-.576 6.12-.144 11.664-.36 15.768-.432 1.944-.072 3.6-.144 4.752-.144z"/><path fill="#53a655" d="M373.072 190.584s-15.912-7.344-26.496-7.776c-7.416-.288-52.632 2.016-52.632 2.016s-6.552-1.152-9.288-.072c-2.664 1.08-4.392 1.08-4.392 1.08l3.528 33.192 75.816-.936 11.232-.504c2.304-.072 8.208-1.08 9.504-3.024 2.952-4.608 3.528-10.584 1.224-15.624-1.584-3.744-4.464-6.192-8.496-8.352"/><path fill="#ffbf9d" d="M324.256 218.448c12.816-1.728 34.632-3.24 34.632-3.24s10.512 2.232 13.104 1.584c2.592-.576 7.056-2.376 7.488-10.08.216-3.312-1.08-6.12-2.592-8.208-2.376-3.312-6.336-5.04-10.368-4.752-6.048.432-13.032 2.592-13.032 2.592l-28.728 6.552s-27.864-2.16-44.928 1.944l-.648 3.456v6.984z"/><path fill="#53a655" d="m344.344 197.352 11.448 23.184s15.696-3.024 16.056-3.24c.432-.216 7.2-1.512 8.352-3.888 1.224-2.376 5.544-8.496 1.44-14.544-4.176-6.048-8.496-7.776-15.336-6.696-6.84 1.008-21.96 5.184-21.96 5.184"/><path fill="#ffbf9d" d="M279.832 204.84s-7.56-3.456-9.648-3.384-7.2 1.368-9.072 2.088c-.504.216-1.944.864-1.944.864s-3.744-.144-4.752.36c-1.008.576-.648 1.44.072 2.016 0 0-1.656.72-.432 2.376l.504.36s-.432 1.296 1.656 2.376l1.08.792s.576 1.224 1.296 1.8 7.848 2.304 9.792 2.88 6.408 0 8.352-.576c2.016-.576 4.32-1.296 4.32-1.296l1.656-10.44z"/><path fill="#ff9a6c" d="M269.824 202.896c0 .072-.576.216-1.512.504-.936.216-2.304.504-3.816.648-1.512.216-2.88.288-3.816.288h-1.584c0-.144 2.448-.288 5.4-.648 1.512-.216 2.808-.432 3.816-.576.864-.144 1.44-.216 1.512-.216m-5.904 5.76c0 .072-2.232-.072-4.896-.648s-4.752-1.224-4.752-1.296 2.16.432 4.824.936c2.664.576 4.824.936 4.824 1.008m.504 3.96c0 .072-.576 0-1.584-.144-.936-.144-2.304-.504-3.672-.936-1.44-.504-2.664-1.008-3.528-1.44a11 11 0 0 1-1.368-.792c.072-.072 2.16 1.008 4.968 1.944 2.88.864 5.184 1.296 5.184 1.368m2.592 2.664c0 .072-.576.072-1.512-.072-.936-.072-2.232-.36-3.672-.72-1.368-.432-2.592-.936-3.456-1.368s-1.296-.792-1.296-.792c.072-.072 2.088 1.008 4.896 1.8 2.736.864 5.112 1.08 5.04 1.152"/><path fill="#455a64" d="M417.496 207.072h-30.672a5.81 5.81 0 0 0-5.832 5.832 5.81 5.81 0 0 0 5.832 5.832h30.672a5.81 5.81 0 0 0 5.832-5.832 5.81 5.81 0 0 0-5.832-5.832"/><path fill="#263238" d="M275.656 227.808c-.072.072 28.44 16.704 63.648 37.008 35.208 20.376 63.792 36.792 63.792 36.72.072-.072-28.44-16.704-63.648-37.008-35.208-20.376-63.792-36.792-63.792-36.72"/><path fill="#263238" d="M404.392 230.76c-.072-.072-29.304 16.272-65.232 36.576-36 20.304-65.16 36.864-65.088 36.936s29.304-16.272 65.304-36.576c35.928-20.304 65.016-36.792 65.016-36.936"/><path fill="#6f4439" d="M401.743 337.855h6.768v-108.72h-6.768z"/><path fill="#263238" d="M149.296 227.808c-.072.072 28.44 16.704 63.648 37.008 35.208 20.376 63.792 36.792 63.792 36.72.072-.072-28.44-16.704-63.648-37.008-35.136-20.376-63.72-36.792-63.792-36.72"/><path fill="#263238" d="M278.032 230.76c-.072-.072-29.304 16.272-65.232 36.576-36 20.304-65.16 36.864-65.088 36.936s29.304-16.272 65.304-36.576c35.928-20.304 65.088-36.792 65.016-36.936"/><path fill="#6f4439" d="M272.23 337.727h6.768v-116.64h-6.768zm-126.516.168h6.768V229.823h-6.768z"/><path fill="#455a64" d="M417.352 231.192H143.32a7.405 7.405 0 0 1-7.416-7.416 7.405 7.405 0 0 1 7.416-7.416h274.032a7.405 7.405 0 0 1 7.416 7.416 7.405 7.405 0 0 1-7.416 7.416"/><path fill="#263238" d="M255.28 146.016c-.072 0 .216-1.224.288-3.096.072-.936.072-2.088-.288-3.312s-1.152-2.376-2.304-3.312q-1.728-1.404-3.456-2.16c-1.152-.504-2.304-.648-3.24-.576a5.1 5.1 0 0 0-2.16.648c-.432.288-.72.432-.72.432s.144-.288.648-.576c.432-.288 1.224-.648 2.16-.792 1.008-.144 2.16 0 3.384.504a14.5 14.5 0 0 1 3.6 2.16c.576.504 1.08 1.008 1.512 1.584a4.9 4.9 0 0 1 .864 1.872c.36 1.296.288 2.448.216 3.456a14 14 0 0 1-.36 2.304c-.072.576-.144.864-.144.864"/><path fill="#ae7461" d="M244.84 135.576s-6.624.504-7.92.72-2.088 1.08-3.456 3.024c-1.152 1.728-2.736 4.248-1.656 5.184 1.08.864 1.512.288 1.512.288s-1.944 2.808-.144 3.816c1.368.792 2.736-.72 2.736-.72s-.36 1.872 1.008 2.376c1.44.432 3.312-2.16 3.312-2.16s1.008 1.944 2.592 1.368c1.944-.72 2.448-1.44 3.816-2.016 1.44-.504 4.752-.504 5.904-3.6.648-1.8.648-2.376.648-2.376l1.8-2.232c.432-.216-3.528-6.336-9.144-5.472z"/><path fill="#6f4439" d="M240.304 138.456h-.432c-.288 0-.648.072-1.08.144-.216 0-.504.072-.72.144-.144 0-.216.072-.36.144s-.216.144-.36.216c-.504.36-.864.792-1.296 1.44a109 109 0 0 0-2.016 3.024c-.504.792-.792 1.296-.792 1.296-.072-.072.864-2.16 2.52-4.536.216-.288.36-.576.648-.864a2.25 2.25 0 0 1 .792-.648l.432-.216c.144-.072.288-.144.432-.144.288-.072.504-.072.792-.072.864-.144 1.44 0 1.44.072m3.312 2.592c.072.072-.576.288-1.44.648-.432.144-1.008.36-1.584.648l-.864.432c-.216.216-.504.432-.72.72-.936 1.152-1.584 2.376-2.088 3.168-.504.864-.936 1.296-1.008 1.296s.288-.576.72-1.44c.504-.864 1.08-2.088 2.088-3.312.216-.288.504-.576.792-.792s.648-.36.936-.504c.648-.216 1.152-.432 1.656-.576.864-.216 1.512-.36 1.512-.288m1.224 3.024s-.216.36-.648.648c-.432.36-1.152.72-1.872 1.152-.648.504-1.224 1.08-1.656 1.44-.36.36-.36.72-.432.72 0 0-.072-.072-.072-.288 0-.144.072-.432.288-.648.36-.432.864-1.08 1.584-1.584s1.44-.792 1.944-1.08c.576-.144.864-.36.864-.36m6.264-4.536c-.072.072-1.008-1.08-2.52-2.088s-2.952-1.44-2.952-1.512 1.584.144 3.168 1.224c1.584 1.008 2.376 2.376 2.304 2.376"/><path fill="#fff" d="m178.384 144.648 2.88-18.648-2.304-33.696s-12.312 2.952-15.336 22.392c-.72 4.752-7.632 35.856-5.256 39.744 4.104 6.84 29.952 17.424 29.952 17.424l9.36-17.28z"/><path fill="#263238" d="m189.688 162.504.216-.648q.216-.648.648-1.728a269 269 0 0 0 2.304-6.336l.072.144a1412 1412 0 0 0-12.888-8.064l-1.728-1.08-.072-.072v-.144c1.008-6.192 1.872-11.736 2.52-15.768.36-1.944.576-3.528.792-4.68q.108-.756.216-1.296c.072-.288.072-.432.072-.432v.432c-.072.36-.072.72-.144 1.296q-.216 1.728-.648 4.752c-.576 4.032-1.44 9.576-2.376 15.768l-.072-.216 1.728 1.08c4.896 3.096 9.36 5.904 12.888 8.136l.072.072-.072.144c-1.008 2.592-1.872 4.752-2.448 6.264-.288.72-.504 1.296-.72 1.728s-.36.648-.36.648m-6.912-49.608c-.072 0 .216-1.152.216-3.024s-.36-4.536-1.512-7.128c-1.152-2.664-2.808-4.68-4.248-5.904-.72-.576-1.44-.936-1.944-1.08s-.792-.144-.792-.216c0 0 .288-.072.864.072.504.144 1.296.432 2.016 1.008 1.512 1.152 3.24 3.24 4.464 5.976 1.152 2.664 1.44 5.4 1.44 7.272-.072.936-.144 1.728-.288 2.232s-.216.792-.216.792"/><path fill="#ae7461" d="M194.728 154.872c.288.144 4.68 0 6.552.144 1.872.216 11.232 5.976 11.808 6.624s2.16 2.16-.216 4.104c0 0 1.224 1.656.288 2.736s-3.096.072-3.096.072.36 1.944-.864 2.232c-1.224.216-9.648-4.752-9.648-4.752s5.472 4.032 4.68 4.896c-.792.936-1.44 1.08-2.304.72s-5.472-3.6-5.472-3.6-1.224.648-4.896-.792-5.256-4.032-5.256-4.032l-1.584-.792s-1.728-3.168.504-6.48c2.088-3.024 7.632-1.872 7.632-1.872z"/><path fill="#6f4439" d="M199.768 162.36c0-.072.648.216 1.656.648s2.376 1.152 3.816 2.016 2.664 1.728 3.528 2.448a14 14 0 0 1 1.368 1.152c0 .072-.576-.36-1.512-.936a67 67 0 0 0-3.6-2.304c-1.44-.864-2.736-1.584-3.744-2.088-.936-.576-1.512-.864-1.512-.936m2.016-3.312c0-.072.72.144 1.8.648 1.08.432 2.52 1.152 4.032 2.088a46 46 0 0 1 3.744 2.592c.936.72 1.44 1.224 1.368 1.296 0 .072-.576-.36-1.584-1.08-.936-.648-2.232-1.584-3.816-2.52-1.512-.936-2.952-1.656-3.96-2.16-.936-.504-1.584-.864-1.584-.864m-4.536 6.12c0-.072.648 0 1.368.288s1.152.72 1.08.792-.576-.144-1.296-.504c-.576-.216-1.152-.504-1.152-.576"/><path fill="#263238" d="M192.928 153.864h-.936c-.576 0-1.44.144-2.448.288s-2.232.432-3.312 1.224-1.8 2.16-2.304 3.672-.504 3.024-.432 4.392.36 2.592.576 3.6.504 1.8.648 2.376l.216.864s-.144-.288-.36-.864a16 16 0 0 1-.72-2.376c-.288-1.008-.576-2.232-.648-3.6-.144-1.368-.072-2.952.432-4.536.504-1.512 1.296-2.952 2.448-3.816s2.448-1.152 3.528-1.224c1.008-.144 1.872-.144 2.448-.144.576.072.864.144.864.144"/></svg>