<svg fill="none" height="34" viewBox="0 0 33 34" width="33" xmlns="http://www.w3.org/2000/svg"><path clip-rule="evenodd" d="M15.907 11.444c.044.312-.12.327-.431.49-.342.193-.654.297-1.01.401-.267.074-.52.148-.698.282-.268-1.47-.372-3.149-.327-4.649.015-.713.104-1.515.357-2.198.178-.46.579-.639 1.054-.535.787.164 1.1.61 1.292 1.218.179.58.283 1.174.283 1.783-.743.148-.996 1.054-.98 1.693 0 .03-.016.044-.03.06-.06.029-.06.103-.015.177.059.104.074.208.06.312-.016.09-.03.179.088.179.03 0 .045.014.074.03.03.044.045.118.045.192-.03.387.208.357.238.565Zm1.396 0c-.045.312.119.327.43.49.342.193.654.297 1.01.401.268.074.52.148.699.282.267-1.47.37-3.149.326-4.649-.015-.713-.104-1.515-.356-2.198-.178-.46-.58-.639-1.055-.535-.787.164-1.099.61-1.292 1.218a6.042 6.042 0 0 0-.282 1.783c.743.148.995 1.054.98 1.693 0 .03.015.044.03.06.06.029.06.103.015.177a.474.474 0 0 0-.06.312c.015.09.03.179-.089.179-.03 0-.044.014-.074.03a.372.372 0 0 0-.045.192c.03.387-.207.357-.237.565Zm-.698 22.026h.297c.03-.49.06-.965.104-1.44.044-.476 0-.906-.06-1.382-.163-1.114-.223-2.183 0-3.416.208-1.01.149-1.752-.015-2.703-.148-.92-.148-1.886-.297-2.822 0-.03-.014-.045-.044-.045-.015 0-.03.015-.045.045-.133.95-.148 1.901-.297 2.822-.148.95-.223 1.708-.015 2.703.223 1.233.179 2.302 0 3.416-.074.46-.104.892-.059 1.382.044.475.074.965.104 1.44h.327Zm3.267-20.422c.045.163.045.371.06.639 0 .356 0 .653.104 1.01.118.386.223.757.252 1.158.03.282.074.446.208.698.535.965.995 2.065 1.485 3.134.075.163.134.208.297.252.179.06.312.134.446.268.074.074.163.134.238.208.06.044.119.119.193.148.118.045.148.193-.015.193-.09 0-.149 0-.223-.03-.074-.029-.148-.088-.208-.133-.089-.06-.148-.06-.104.06.134.4.372.787.49 1.188.06.193-.089.237-.178.074l-.312-.58c-.03-.044-.074-.014-.06.03.105.238.224.476.327.713.09.208-.103.238-.178.075-.133-.238-.237-.476-.356-.713-.03-.045-.09-.015-.06.03.09.207.194.415.283.623.074.193-.09.238-.194.074-.103-.193-.193-.4-.297-.609-.014-.044-.074-.014-.059.03.074.178.149.357.208.535.045.163-.074.193-.163.06a3.49 3.49 0 0 1-.327-.67 3.158 3.158 0 0 1-.267-1.039c-.03-.356-.134-.52-.372-.787-.371-.416-.728-.772-1.025-1.188a4.502 4.502 0 0 1-.564-1.01c-.149-.416-.253-.817-.475-1.218-.178-.342-.193-.609-.223-.966 0-.074-.074-.074-.074 0a3.613 3.613 0 0 1-.208 1.13c-.283.787-.297 1.44-.12 2.257.343 1.456.417 3.06.343 4.575-.03.594-.06 1.203-.223 1.767-.238.772-.223 1.381-.075 2.183a5.766 5.766 0 0 1-.222 2.124c-.149.52-.327.98-.401 1.515-.149.995-.179 1.99.594 2.644 3-.134 4.797-.163 6.386-1.456 1.649-1.336 3.105-3.208 4.456-4.841.98-1.218 1.233-2.526 1.5-4.01.446-2.57 1.604-5.036 1.916-7.531.09-.668.045-1.396-.638-1.619-.758-.252-1.367.208-1.857.713-.965.965-1.56 2.154-2.064 3.386-.401 1.025-.713 2.05-1.01 3.105-.238.831-.595 1.44-1.159 1.945-.342.312-.876.758-1.366.847-.149.03-.223-.134-.104-.238 1.351-1.054 2.213-2.332 2.584-4.025.401-1.842 1.277-3.847 2.54-5.436.134-3.594.208-7.723-1.53-11.02-.832-1.575-3.134-1.278-2.703.787.119.564.252 1.114.386 1.678.178.743.327 1.47.475 2.213.342 1.723.223 3.357.119 5.094-.074 1.114-.09 2.288-.193 3.402-.045.43-.475.371-.46-.015.014-1.693.222-3.891.37-5.555.105-1.263-.148-2.332-.415-3.55-.238-1.07-.475-2.139-.728-3.193-.134-.743-.327-1.456.401-1.931-.326-1.1-.639-1.857-1.93-1.738-1.1.104-1.144 1.04-1.13 1.916.03 1.575.342 3.149.684 4.887.267 1.366.4 2.718.326 4.1-.118 1.202-.326 2.45-.356 3.653 0 .223 0 .46-.015.683-.015.401-.43.371-.445.015-.015-.238 0-.49 0-.728.03-1.04.163-2.05.282-3.09.193-1.41.06-2.643-.193-4.04-.297-1.648-.476-3.326-.61-5.004-.103-.654-.177-1.055-.875-1.055-.936.134-1.114.876-1.174 1.634 0 .668.06 1.337.104 2.005.06.772.119 1.53.163 2.302.09 1.56.015 3.12-.163 4.649-.06.238-.089.416-.119.609Zm-6.535 0c-.044.163-.044.371-.06.639 0 .356 0 .653-.103 1.01-.12.386-.223.757-.253 1.158-.03.282-.074.446-.208.698-.534.965-.995 2.065-1.485 3.134-.074.163-.134.208-.297.252-.178.06-.312.134-.446.268-.074.074-.163.134-.237.208-.06.044-.12.119-.193.148-.12.045-.149.193.014.193.09 0 .15 0 .223-.03.075-.029.149-.088.208-.133.09-.06.149-.06.104.06-.133.4-.371.787-.49 1.188-.06.193.09.237.178.074l.312-.58c.03-.044.075-.014.06.03-.104.238-.223.476-.327.713-.09.208.104.238.178.075.134-.238.238-.476.357-.713.03-.045.089-.015.059.03-.09.207-.193.415-.282.623-.074.193.089.238.193.074.104-.193.193-.4.297-.609.015-.044.074-.014.06.03-.075.178-.15.357-.209.535-.044.163.075.193.164.06.133-.209.237-.431.326-.67.15-.356.238-.653.268-1.039.03-.356.134-.52.371-.787.372-.416.728-.772 1.025-1.188.223-.312.43-.654.564-1.01.149-.416.253-.817.476-1.218.178-.342.193-.609.223-.966 0-.074.074-.074.074 0 .015.402.074.758.208 1.13.282.787.297 1.44.118 2.257-.341 1.456-.415 3.06-.341 4.575.03.594.06 1.203.223 1.767.237.772.208 1.381.074 2.183-.06.728.015 1.396.223 2.124.148.52.326.98.4 1.515.15.995.179 1.99-.593 2.644-3-.134-4.798-.163-6.387-1.456-1.649-1.336-3.104-3.208-4.456-4.841-.98-1.218-1.233-2.526-1.5-4.01-.445-2.57-1.604-5.036-1.916-7.531-.089-.668-.044-1.396.639-1.619.757-.252 1.366.208 1.856.713.966.965 1.56 2.154 2.065 3.386.4 1.025.713 2.05 1.01 3.105.238.831.594 1.44 1.158 1.945.342.312.877.758 1.367.847.163.03.223-.134.104-.238-1.352-1.054-2.213-2.332-2.585-4.025-.4-1.842-1.277-3.847-2.54-5.436-.133-3.594-.207-7.723 1.53-11.02.832-1.575 3.134-1.278 2.704.787-.12.564-.253 1.114-.387 1.678-.178.743-.326 1.47-.475 2.213-.341 1.723-.223 3.357-.119 5.094.075 1.114.09 2.288.193 3.402.045.43.476.371.46-.015-.014-1.693-.222-3.891-.37-5.555-.104-1.263.148-2.332.415-3.55.238-1.07.476-2.139.728-3.193.134-.743.327-1.456-.4-1.931.326-1.1.638-1.857 1.93-1.738 1.1.104 1.144 1.04 1.129 1.916-.03 1.575-.342 3.149-.683 4.887-.268 1.366-.401 2.718-.327 4.1.119 1.202.327 2.45.356 3.653 0 .223 0 .46.015.683.015.401.43.371.446.015.015-.238 0-.49 0-.728-.03-1.04-.164-2.05-.282-3.09-.194-1.41-.06-2.643.193-4.04.297-1.648.475-3.326.609-5.004.104-.654.178-1.055.876-1.055.936.134 1.114.876 1.173 1.634 0 .668-.06 1.337-.104 2.005-.06.772-.118 1.53-.163 2.302-.09 1.56-.015 3.12.163 4.649.06.238.09.416.12.609Z" fill="#02AEC4" fill-rule="evenodd"></path></svg>
