<svg xmlns="http://www.w3.org/2000/svg" width="516" height="504" fill="none" viewBox="0 0 516 504"><path fill="#dfece3" d="M605 504c52.7-62.7 65.7-233 33.6-277.2-58.5-80.6-103-38-154.1-85.3-36.8-34 23.2-65.6-63.7-108.9-14.2-7-30.8-5.9-46.1-1.7-38.9 10.7-32.4-15.4-65-25.1-38-11.3-159.4-19.7-228 112.6-49 94.4-10.4 175.4-56.8 241.8-48.6 69.5-14.2 123.3 3.6 143.8z"/><path fill="#6bb26d" d="M186.2 386.2s-4.9 1.9.5 12.2c5.4 10.4 9.1 15.5 9.1 15.5s1 2.4-1.1 2.8c-2 .4-6.5-.3-7.4 2.2-.9 2.6 1 5 4.8 7.1s12 7.1 12.7 7.5 1.5 1.6.1 2c-1.3.5-11.4 1.6-10.6 6.3.8 4.8 12.4 8.9 13.7 9.4s1.6 1 1.5 1.7-3.5.7-6.4 1.2-6.1 1.4-5.4 4.1 7.6 8.4 24.2 9.9l7.8.2 4.2-6.6c8.1-14.6 7.4-23.5 5.5-25.6-1.8-2.1-4.5 0-6.5 2.1s-3.9 4.9-4.6 4.6q-1-.4-.6-2.2c.4-1.8 3.4-13.2 0-16.6-3.5-3.3-10.1 4.3-11.2 5.2-1.2.8-1.7-.4-1.6-1.2 0-.9.6-10.4 1-14.8.4-4.3-.5-7.3-3.2-8-2.6-.7-4.5 3.4-6 4.9s-2.9-.7-2.9-.7-2.1-6-7.7-16.3c-5.6-10-10-6.9-9.9-6.9"/><path fill="#e0e0e0" d="m230 470.3-17-32.8-15.5-29.7-4.8-9-1.3-2.4-.3-.6.4.6 1.3 2.4 4.8 9 15.6 29.7 17 32.8"/><path fill="#e0e0e0" d="m193.5 420.1.5.1 1.4.5 4.7 1.8 4.7 1.9 1.4.6.5.2-.5-.1-1.4-.5-4.7-1.9-4.7-1.9-1.4-.6zm13.8 4.8c-.1 0 1.1-3.5 2.7-7.8 1.5-4.3 2.8-7.7 2.9-7.7s-1.1 3.5-2.7 7.8zm8.5 18.3.3-.5.9-1.3 2.9-4.2 2.7-4.3.8-1.3.3-.5-.2.5-.7 1.4-2.7 4.4-3 4.2-1 1.2zm-13.4-1.6h.5l1.4.1 4.7.4 4.7.5 1.4.2.5.1h-.5l-1.4-.1-4.7-.4-4.7-.5-1.4-.2zm5.4 17.1h.7l1.8.1 6.1.5 7.9.8.7.1h-.7l-1.8-.1-6.1-.5-7.9-.8zm16.7 1.4.4-.6 1.1-1.6 3.6-5.5 3.4-5.6 1-1.7.4-.6-.3.7-.9 1.7a111 111 0 0 1-6.9 11l-1.2 1.6z"/><path fill="#6bb26d" d="M309.1 468.9c-11.5-10.8-11.9-27.9-9.2-42.7.5-2.5.6-5.1 2.1-7.2 1.5-2 4.5-3.1 6.6-1.7 1.7 1.1 2.2 3.4 3 5.3q1.6 4 5 6.4c1.5 1.1 3.3 1.9 5 1.2 2.3-.9 3-3.8 3.4-6.3l2-13.9c.4-2.5.7-5 1.8-7.2s3.1-4.2 5.6-4.5 5.2 1.5 5.3 4c.1 1-.3 2.1-.4 3.1s.2 2.2 1.2 2.7 2-.1 2.9-.7c2.9-2.1 5.1-5.1 7.2-8q3-4.7 6.9-8.4c3.9-3.7 6.3-4.1 9.8-3.7s7 3.1 7.4 6.7-2.2 6.9-4.8 9.4a60 60 0 0 1-13.1 9.3q-1.5.5-2.2 1.8c-.8 1.6.5 3.4 2.1 4.2 1.8.9 3.8 1 5.7 1.5s3.9 1.7 4.3 3.6c.6 2.7-1.9 5-4.2 6.4a47 47 0 0 1-15.2 6c-1.9.4-3.9.7-5.6 1.8s-2.9 3.2-2.2 5c.6 1.9 2.8 2.8 4.8 2.7s3.8-.9 5.7-1.3c3.6-.8 8 .1 9.7 3.4 1.1 2.1.9 4.9-.2 7.1s-2.8 4-4.7 5.6a49 49 0 0 1-22.5 11.3 33 33 0 0 1-23.2-2.9"/><path fill="#e0e0e0" d="M314.4 460.1a216 216 0 0 1 15.9-28.4q1.7-2.9 3.6-5.5 3.8-5.2 7.7-9.7c3.9-4.5 5.2-5.7 7.6-8.2s4.8-4.8 7-6.8q6.8-6 11.1-8.7l3.2-2.1.9-.5-.8.5-3.2 2.1a99 99 0 0 0-11 8.8q-3.3 3-6.9 6.9l-7.6 8.2q-4 4.5-7.7 9.7l-3.6 5.5-3.5 5.7q-7.2 11.7-12.4 22.5"/><path fill="#e0e0e0" d="m334 426.3-.1-1.1v-3l.3-9.8q.3-5.9.2-9.8v-4.1l.2 1.1.2 3q.2 4-.1 9.8l-.5 9.8-.1 3z"/><path fill="#e0e0e0" d="M366.7 425.1h-1.3l-3.5-.2h-11.6q-7 .3-11.6.9l-3.5.4-1.3.1 1.3-.3 3.5-.6a129 129 0 0 1 26.7-.6zm-51.8 34.5-.2-.4-.4-1.2a219 219 0 0 1-4.6-19.8l-3.3-15.3-1.1-4.6-.3-1.3-.1-.4.2.4.4 1.2a219 219 0 0 1 4.6 19.8l3.3 15.3 1.1 4.6.3 1.3zm44.3-7.3-.4.1-1.3.2-4.7.8-15.6 2.8-15.7 2.6q-3 .5-4.8.6l-1.3.1h-.5l.4-.1 1.3-.2 4.7-.8 15.6-2.8 15.7-2.6 4.8-.6 1.3-.1z"/><path fill="#263238" d="M425.6 472c0 .1-71.5.3-159.6.3-88.2 0-159.6-.1-159.6-.3s71.5-.3 159.6-.3z"/><path fill="#e0e0e0" d="m385.7 268.9-1.7-2.4c-2.2-3.1-5.6-7.8-7.2-9.8-2.2-2.7-8.9-8-10.9-9.6l-3.2-6.2c-1.3-5-7-26.3-8.1-34.6-1.9-14.4-7.2-21.6-10.7-26.4q-1.7-2.2-2.6-3.9c-1.9-4-5.1-18-6.2-23.5v-16.1c.2-18.4-23.7-25.4-24.7-25.6l-17.8-5.4-1.5-1.1V90.8c2.8-.9 6-3 7.1-7q.5-2 1.2-3.8c1.4-4.2 2.6-7.8 1-10.6a8 8 0 0 0-4.4-3.3c.5-4.7.5-13.8-4.8-20.6q-6-7.7-18.3-8.2H271q-11.9.6-18.1 8.3a31 31 0 0 0-5.2 20.8 8 8 0 0 0-4.5 3.3c-1.6 2.8-.4 6.4 1 10.6l1.2 3.8a9 9 0 0 0 6.8 6.5l1.2 7.5-.7 5.2-1.4 2.5-17 5.2c-1 .3-24.9 7.2-24.8 25.6v16.1c-1.1 5.5-4.3 19.5-6.2 23.5q-.8 1.6-2.6 3.9c-3.5 4.8-8.8 11.9-10.7 26.4-1 7.7-6 26.8-7.8 33.5l-3 8.6c-2.7 1.7-9.3 6-11.5 8.8l-7.2 9.7-1.7 2.4c-1.6 1.9-.1 4.7.2 5.3a6 6 0 0 0 7 2.8c-2 4.4-3.8 8.9-4 10.5q-.4 3.3 1.3 5c.8.8 2.2 1.7 4.6 1.4l1.4-.3q.3 1.4 1.1 2.4a6 6 0 0 0 4.6 2q2.5 0 3.9-1a6 6 0 0 0 2.7 3.4q2.2 1.2 4.9 0c2.1-.9 3-2.3 3.8-4.8q1 .5 2 .5c2 .1 4.6-1 5.9-4.6 1-2.8 1.3-7.9 1.6-12.9l.1-2.3c.2-1.5 1.2-6.6 2.7-9.8 1.6-3.7 2-11.3 2-13.4l1.4-4.7 2.4-6.4c5-13 11.1-28.3 12.4-30.2 4.3-6.9 5.8-14.4 7.2-21.1q.8-4.1 1.8-7.5l1.8-5.3a64 64 0 0 1 2.6 16.5l-2 24.9-6 31.2c-2.5 13.1-.6 52.3-.4 57a76 76 0 0 0 2 12.3c1.4 7.4 3.4 18.5 3.3 21l-.6 5.4c-.5 3-1 6.6-1.1 12.1l-.2 9.5c-.5 1.6-2 6.7-3.1 15.6a74 74 0 0 0 3 25.6c.5 4.2 3.6 30.8 4.4 34.5.4 1.6.3 1.8.1 2.8q-.3 1.2-.5 4.4a72 72 0 0 0 .6 10c-.3 1.1-1.3 3.6-3 5.7l-.6.7c-2.7 3.2-6.3 7.5-4.7 13.4 2.2 8 19.6 8.2 21.6 8.2 6.2 0 8.7-4.2 10.5-7.3l.8-1.3a7 7 0 0 0 .5-7.4q-.6-1.1-.5-2.4c.1-3.3.6-8.5.7-9.4q.2-.8.9-7.3c.3-3.1-.4-5.2-1.2-7.6-.7-2.1-1.6-4.7-2.1-9.1a40 40 0 0 1 3.2-16.9q2-5.6 3.5-12c2.7-13-1.4-30.6-2.7-35.8-1-3.9 0-6.5 1.4-10.1l1.6-4.4c1.6-5.4 1.6-12.4 1.6-14.1l1.2-4.8c1.1-4.4.8-8 .7-9.4v-.1l5.1-26.3 5.1 26.1v.1c-.1 1.4-.4 5 .7 9.4l1.2 4.8c0 1.7-.1 8.7 1.6 14.1l1.6 4.4c1.4 3.6 2.4 6.2 1.4 10.1a90 90 0 0 0-2.7 35.8q1.4 6.5 3.5 12a40 40 0 0 1 3.2 16.9c-.5 4.4-1.4 7-2.1 9.1-.8 2.4-1.5 4.5-1.2 7.6q.7 6.5.9 7.3c.1.9.6 6.1.7 9.4q0 1.2-.5 2.4a8 8 0 0 0 .5 7.4l.8 1.3c1.8 3.1 4.3 7.3 10.5 7.3 2 0 19.4-.2 21.6-8.2 1.6-5.9-2-10.2-4.7-13.4l-.6-.7c-1.7-2.1-2.6-4.6-3-5.7.2-1.6.8-5.9.6-10q-.2-3.2-.5-4.4c-.2-1-.2-1.3.1-2.8.8-3.7 4-30.3 4.5-34.5.6-2.1 4.3-15.4 3-25.6-1.1-8.9-2.6-14-3.1-15.6l-.2-9.5c-.1-5.5-.6-9.2-1.1-12.1q-.5-2.8-.6-5.3c-.1-2.5 2-13.6 3.3-21a76 76 0 0 0 2-12.3c.2-4.7 2.1-43.9-.4-57l-6-31.2-2-24.9a70 70 0 0 1 2.6-16.5l1.8 5.3q1 3.5 1.8 7.5c1.4 6.7 3 14.3 7.2 21.1a498 498 0 0 1 14.4 35.7l.3 6.4.1.5c.1.3 1.7 7.9 3.4 11.7 1.5 3.3 2.5 8.3 2.7 9.8l.1 2.3c.3 5 .6 10.1 1.6 12.9 1.3 3.5 3.9 4.6 5.9 4.6q1 0 2-.5c.8 2.5 1.7 3.9 3.8 4.8a6 6 0 0 0 4.9 0 6 6 0 0 0 2.7-3.4q1.5 1 3.9 1 2.9 0 4.6-2 .9-1 1.1-2.4.6.3 1.4.3c2.4.3 3.8-.6 4.6-1.4q1.8-1.8 1.3-5c-.2-1.6-2-6.1-4-10.5q4.5 1 7-2.8c.3-.7 1.8-3.5.2-5.4"/><path fill="#263238" d="m385.7 268.9.5.7q.4.8.1 2.5c-.3 1.7-.9 2.5-2.2 3.6s-3.4 1.8-5.6 1.2v-.1q1.9 4 3.8 9.4.5 1.3.3 3-.1 1.6-1.1 2.9t-2.9 1.6a7 7 0 0 1-3.5-.3h.1a6 6 0 0 1-3.7 4.1 8 8 0 0 1-3.1.2q-1.6-.1-3-1h.1a6 6 0 0 1-2.2 3q-1.6 1.2-3.7.9c-2.1-.3-2.6-.8-3.7-1.7q-1.5-1.6-2-3.6l.1.1a5 5 0 0 1-5.1-.3q-2.4-1.6-3.1-4.5c-.7-2.9-.7-3.7-.9-5.6l-.4-5.9-.2-3-.5-3q-.6-3-1.8-6a71 71 0 0 1-3.8-12.6l-.1-.5-.3-6.4-6.1-15.7-6.8-16.7q-.8-2.1-2.1-4.2l-2.2-4.3q-2-4.4-3-9.2l-2.2-9.7q-.5-2.5-1.2-4.9l-1.6-4.9h.3a138 138 0 0 0-2.7 14.7q0 2.5.3 5.2l1.7 21.4q2 9.9 3.9 20.4l2 10.6q1 5.4 1.1 11 .4 11.1.2 22.7a558 558 0 0 1-.8 23.5q0 1.8-.4 3.6l-.6 3.6-1.3 7.2q-1.4 7.3-2.5 14.8l-.4 3.8c-.1 1.9.2 2.5.3 3.8l1.1 7.7q.4 3.9.4 7.9l.1 7.9v-.1q1.4 4.6 2.3 9.7l.8 5.1a46 46 0 0 1-.5 15.9q-.9 5.4-2.4 10.7-1.3 12-3.1 25.1l-.9 6.5-.6 3.3q-.2.8-.1 1.6l.3 1.6q.5 3.3.3 6.8c-.2 3.5-.3 4.5-.6 6.8v-.1q.7 2.3 2 4.3l3 3.8c1.6 1.9 1.9 2.7 2.6 4.2s1.1 3.2 1.1 4.9l-.1 1.3-.2 1.2q-.3 1.2-1 2.3a11 11 0 0 1-3.9 3.2 44 44 0 0 1-20.1 2.7q-1.3-.4-2.4-1.1c-1.1-.7-1.4-1-2.1-1.7a21 21 0 0 1-3-4.3l-1.3-2.3a6 6 0 0 1-.7-2.6q-.1-1.4.3-2.7l.8-2.5v-2.6l-.2-2.6-.4-5.3-.9-7.1q-.2-1.8.1-3.6c.3-1.8.5-2.4.9-3.5q1.3-3.4 1.9-7l.5-3.6q.2-1.8 0-3.6c-.5-4.8-2.3-9.5-3.8-14.2s-3-9.5-3.5-14.5q-.4-3.7-.3-7.6l.5-7.6q.9-7.6 2.7-15l.8-3.7c.3-1.7 0-2.5-.4-3.7l-1.2-3.6-1.3-3.6q-1.2-3.6-1.7-7.6a68 68 0 0 1-.4-7.8v.1l-.8-3.3-.8-3.5q-.6-3.7-.3-7.5v.1l-5.1-26.1h.5l-5.1 26.3v-.1a28 28 0 0 1-1 10.7l-.9 3.6v-.1q0 3.6-.3 7.2t-1.3 7.1l-1.2 3.4-1.3 3.4q-.6 1.7-.8 3.5-.1 1.8.3 3.6 1.8 7.1 2.9 14.5.5 3.7.7 7.4.3 3.7 0 7.5a48 48 0 0 1-3 14.8c-1.5 4.8-3.4 9.6-4.3 14.6q-.6 3.7 0 7.5t1.8 7.4l1.1 3.7q.5 2 .3 3.9-.3 3.9-.9 7.7l-.7 9.7q0 1.2.6 2.3c.6 1.1.5 1.6.6 2.5q.2 2.6-1.3 4.9l-2.7 4.2c-1.4 2-2.3 2.5-3.9 3.3s-3.3 1.1-5 1.1q-2.5 0-5.1-.3-5.1-.3-10.1-2.2-2.5-.9-4.5-2.7-1-.9-1.6-2.1c-.6-1.2-.6-1.7-.7-2.6q-.4-2.8.6-5.2a16 16 0 0 1 2.6-4.6q1.7-2 3.2-4.1t2.2-4.6v.1a55 55 0 0 1 0-15.3c.1-.9-.3-2-.4-3l-.9-6.2-3.1-25.5-.2-1.7a90 90 0 0 1-3.3-20.8q0-5.3 1-10.4.8-5.2 2.3-10.2v.1l.1-7.7a101 101 0 0 1 1.3-15.3l.4-3.8q0-1.8-.3-3.7-1.1-7.5-2.5-14.9l-1.4-7.4-.7-3.7q-.4-1.9-.4-3.8-.6-11.2-.8-22.5-.2-11.2.1-22.3.2-5.6.9-11.1l2-10.9L232 219c.7-14 4-28-.6-41.3h.5l-1.5 4.5q-.4 1-.6 2.3l-.5 2.3-2.1 9.3q-1 4.6-2.8 9.1l-2 4.3-1.2 2.1-1 2.1q-3.7 8.6-7.1 17.3l-6.7 17.3-.1-.3.2.1-.1.2-1.4 4.7v-.1l-.4 6.3q-.2 3.1-1.2 6.2l-1.1 2.9-.9 2.9-.7 3q-.4 1.5-.4 3-.3 6.2-1.1 12.2-.5 3.2-2.8 5.5c-2.3 2.3-4.1 1.8-6 .8l.3-.1q-.6 2-1.9 3.6-1.6 1.5-3.6 1.8c-2 .3-2.8 0-3.9-.8s-1.9-2-2.4-3.2l.4.1q-1.3.7-3 1-1.6.2-3.1-.2c-2-.5-3.6-2.3-4-4.3l.3.2q-1.5.5-3 .4-1.6-.1-2.8-1.1t-1.7-2.5c-.5-1.5-.3-2-.2-3s.5-1.9.8-2.8l1-2.7 2.3-5.3.3.3c-1.8.5-3.9.2-5.4-.9s-2.5-2.9-2.7-4.8q-.2-1.5.8-2.7l1.6-2.2 3.2-4.4 3.2-4.3q.7-1.1 1.7-2.1l2-1.8q4.3-3.3 8.7-6.1l-.1.1 3-8.6q3.1-11.7 5.8-23.1a111 111 0 0 0 2.2-11.5q.8-5.8 2.7-11.3c1.9-5.5 3-7.1 5.1-10.3l3.3-4.6 1.6-2.3q.7-1.2 1.1-2.5 1.7-5.3 3-10.8l2.5-10.8v-13.9l.1-4.6q.3-2.3 1.1-4.5t2-4.1c1.2-1.9 1.8-2.5 2.8-3.6s2.2-2.1 3.3-3.1q3.6-2.8 7.6-4.8c4-2 5.4-2.5 8.3-3.3l16.7-5.1-.1.1 1.4-2.5v.1l.7-5.2v.1l-1.2-7.5.1.2a9 9 0 0 1-6.9-6.7l-.6-1.8-1.1-3.7-1-3.7q-.4-1.8 0-3.8c.4-2 1-2.4 1.9-3.2s2.1-1.4 3.3-1.8l-.1.2q-.5-5.9.9-11.6t5.1-10.1q3.9-4.3 9.3-6.1 2.7-.9 5.4-1.2l2.7-.2 2.7.1q5.5.2 10.4 2.4c4.9 2.2 6 3.9 8 6.8s3.2 6.2 3.8 9.6.6 6.8.3 10.1l-.1-.2q2.2.7 3.6 2.2 1.5 1.6 1.6 3.8c.1 2.2-.1 2.7-.5 4l-1.1 3.7-1.1 3.6a10 10 0 0 1-1.5 3.5 12 12 0 0 1-5.9 4.3l.1-.2v13.5l-.1-.1 1.5 1.1 18.9 5.8a46 46 0 0 1 16.2 9.2q3.4 3.2 5.4 7.1a20 20 0 0 1 2 8.4v16.7q1.6 7.7 3.5 14.9.9 3.6 2.1 6.9c.7 2.3 2.2 4.1 3.5 5.9a55 55 0 0 1 9.9 23.1c1 7.7 2.7 14.6 4.2 20.8l4.3 16.8 3.2 6.2q6 4.6 10 8.5l.9 1 .8 1 1.4 2 2.4 3.3zl-4.3-5.8-2.5-3.3-1.4-1.9-1.7-2.1q-4-3.9-10-8.5l-3.3-6.2-4.3-16.8q-2.5-9.3-4.3-20.8-1-5.7-3.3-11.6c-2.3-5.9-3.9-7.7-6.6-11.3-1.3-1.8-2.9-3.7-3.6-6l-2.1-6.9q-1.8-7.2-3.5-14.9v-16.7q0-2-.5-4.3-.5-2.1-1.5-4.1-2-4-5.4-7.1a45 45 0 0 0-16.1-9.1q-9.1-2.9-18.9-5.7l-1.5-1.1h-.1V91h.1c2.2-.7 4.4-2.1 5.7-4.2q1-1.6 1.4-3.4l1.1-3.6 1.1-3.7q.5-2 .4-3.9c-.1-1.9-.6-2.6-1.5-3.6s-2.2-1.7-3.5-2.1h-.1v-.1q.5-5-.3-10c-.8-5-1.8-6.6-3.7-9.5s-4.7-5.2-7.9-6.6a28 28 0 0 0-10.3-2.4l-2.7-.1-2.7.2a24 24 0 0 0-5.3 1.2 21 21 0 0 0-9.1 6q-3.7 4.3-5 10c-1.3 5.7-1.1 7.6-.8 11.5v.2h-.1q-1.7.6-3.1 1.7c-1.4 1.1-1.5 1.9-1.8 3q-.4 1.8 0 3.6l1 3.6 1.1 3.7 1.3 3.7c1.1 2.3 3.4 4 6 4.6h.1v.1l1.2 7.5-.7 5.2-1.4 2.5v.1h-.1l-16.7 5.1q-4.2 1.2-8.2 3.3a40 40 0 0 0-7.5 4.8q-1.8 1.3-3.3 3t-2.8 3.5q-1.2 2-2 4c-.8 2-.9 2.9-1 4.4q-.2 2.2-.1 4.6v13.9a421 421 0 0 1-5.5 21.6q-.5 1.4-1.2 2.6l-1.6 2.4-3.3 4.6q-3.1 4.8-5.1 10.2c-2.7 7.2-2.9 15.1-4.9 22.7q-2.6 11.6-5.7 23.1l-3 8.6v.1h-.1q-4.5 2.8-8.7 6.1a14 14 0 0 0-3.6 3.8l-3.2 4.3-3.2 4.4-1.6 2.2a3 3 0 0 0-.7 2.4 6.2 6.2 0 0 0 7.7 5.3l.5-.1-.2.4-2.2 5.2-1 2.7q-.5 1.3-.7 2.7c-.2 1.4-.1 1.9.2 2.8s.8 1.7 1.5 2.3a6 6 0 0 0 5.4.6l.3-.1.1.3a5 5 0 0 0 3.7 4q1.4.4 2.9.1a7 7 0 0 0 2.8-.9l.3-.2.1.3a6 6 0 0 0 2.2 3q1.6 1.1 3.6.7 2-.3 3.4-1.7c1.4-1.4 1.4-2.1 1.8-3.4l.1-.3.3.1c1.7.9 3.9.6 5.4-.7s2.3-3.2 2.7-5.2q1-6 1.1-12.2 0-1.6.4-3.1l.7-3 .9-3 1.1-2.9q.8-2.9 1.2-6.1t.4-6.2l1.4-4.7.1.3-.2-.1.1-.2q3.2-8.7 6.7-17.4c3.5-8.7 4.6-11.6 7.1-17.4l1.1-2.1 1.2-2 2-4.3q1.7-4.4 2.8-9l2.1-9.3.5-2.3q.2-1.2.6-2.3l1.5-4.6.3-.8.2.8q1.3 5 2.2 10.1.5 2.5.5 5.2l-.1 2.6-.2 2.6-1.7 20.9-4.1 21.6-2 10.8q-.7 5.4-.9 11-.3 11-.1 22.3c.2 11.3.4 14.9.8 22.5q0 1.8.4 3.7l.7 3.7 1.4 7.4q1.4 7.4 2.5 15 .3 1.9.3 3.8c0 1.9-.2 2.5-.4 3.8q-.7 3.8-1 7.5c-.3 3.7-.3 5.1-.3 7.6l-.1 7.7a87 87 0 0 0-3.3 20.4q0 5.2 1 10.4.8 5.2 2.3 10.2l.2 1.7 3.1 25.5.9 6.2.5 3.2-.5 3.1a54 54 0 0 0 .5 12.1v.2q-.8 2.5-2.3 4.8c-1.5 2.3-2.2 2.7-3.2 4.1s-1.9 2.8-2.5 4.5a10 10 0 0 0-.5 5q.1 1.3.7 2.4c.6 1.1.9 1.4 1.5 2q1.8 1.6 4.3 2.6a38 38 0 0 0 9.9 2.1c3.3.2 6.9.8 9.8-.7q2.2-1.1 3.7-3.2c1.5-2.1 1.8-2.8 2.7-4.2a7 7 0 0 0 .6-6.8q-.5-1.2-.7-2.4l.7-9.8q.6-3.8.9-7.6.2-1.9-.3-3.8l-1.1-3.7q-1.2-3.7-1.8-7.5c-.6-3.8-.4-5.2 0-7.7.9-5.1 2.8-9.8 4.3-14.6s2.8-9.7 3-14.7q.2-3.7 0-7.5t-.7-7.4a120 120 0 0 0-2.9-14.5q-.4-1.9-.3-3.7c.1-1.8.4-2.5.8-3.6l1.3-3.4 1.2-3.4q1-3.5 1.3-7l.3-7.1.9-3.6.8-3.6q.5-3.6.2-7l5.1-26.3.2-1.2.2 1.2 5.1 26.1q-.4 3.8.3 7.4l.8 3.5.8 3.3q0 4 .3 7.7.3 3.9 1.6 7.5l1.3 3.6 1.3 3.7q.5 2 .4 3.9c-.1 1.9-.5 2.6-.8 3.8q-1.8 7.5-2.7 15a63 63 0 0 0-.5 7.5q-.1 3.8.3 7.5c.5 5 2 9.7 3.5 14.4s3.3 9.3 3.8 14.3v3.7l-.5 3.6a40 40 0 0 1-1.9 7q-.6 1.7-.9 3.5c-.3 1.8-.2 2.4-.1 3.5q.3 3.6.9 7.1l.4 5.3.2 2.6v2.7c-.1 1.4-.6 1.7-.8 2.5s-.3 1.7-.3 2.5q.1 1.3.7 2.4l1.3 2.2q1.3 2.3 3 4.2l2 1.6q1 .6 2.3 1 2.4.6 5 .4l5.1-.4q5-.6 9.7-2.6 2.3-1 3.8-3 1.2-2 1.3-4.6 0-2.4-1-4.7-1-2.2-2.6-4.1c-1.6-1.9-2.1-2.4-3-3.8s-1.5-2.9-2-4.4v-.1l.6-6.7a23 23 0 0 0-.3-6.7l-.3-1.7q-.1-1 .1-1.7l.6-3.3.9-6.5 3.1-25.1a80 80 0 0 0 3.2-21.2q-.2-5.2-1.1-10.2a90 90 0 0 0-2.2-9.6l-.1-7.9q0-4-.4-7.8-.4-3.9-1.1-7.7-.3-2-.3-3.9 0-2 .4-3.8 1.1-7.5 2.6-14.8l1.3-7.2.6-3.5.4-3.5q.6-12 .8-23.5c.2-11.5.2-15.3-.1-22.7q-.2-5.6-1-10.9l-2-10.6-3.9-20.4-1.7-21.4-.2-2.6-.1-2.6q.2-2.6.6-5.1.9-5 2.1-9.7l.1-.5.2.5 1.6 4.9 1.2 4.9 2.2 9.7a66 66 0 0 0 3 9.2q.9 2.2 2.1 4.2l2.1 4.2q3.7 8.6 6.8 16.7c3.1 8.1 4.2 10.7 6 15.8l.4 6.9q1.3 6.7 3.7 12.6 1.1 3 1.8 6l.5 3 .2 3 .4 5.9q.2 2.9.9 5.6c.7 2.7 1.5 3.4 3 4.4s3.4 1.1 5 .3l.1-.1v.1q.6 2 2 3.6 1.6 1.4 3.6 1.7c2 .3 2.6-.1 3.6-.9q1.5-1.1 2.1-3v-.1h.1q1.4.7 3 .9t3-.2a5 5 0 0 0 3.6-4v-.1h.1c2.2.8 4.8.4 6.2-1.3q1-1.3 1.1-2.9a6 6 0 0 0-.3-2.9 83 83 0 0 0-3.8-9.4v-.1h.1c2.2.6 4.3-.1 5.6-1.2s1.9-2.5 2.2-3.6.1-2-.1-2.5z"/><path fill="#e56363" d="M182.5 252.4s-9.9 5-12 7.5c-2.1 2.6-7.9 11.2-8.1 11.4s-.5 3 2.9 2c2.7-.8 5.6-4.6 6.7-6.2q.6-.6 1.4-.5 1 .4.9 1.4l-.2 1.1s-8.3 16.7-8.3 19.1c0 1.9 1.8 1.8 3 .9 1.8-1.5 3.7-5.6 5.5-8.9 2-3.6 3.4-5.5 4.3-4.7.7.7-5.4 13.5-5.6 15.4s-1.1 3.3 2 3.1c3.2-.2 4-4.1 4.9-6.4 1-2.7 3.6-10.6 4.2-10.5 1.9.4-2.2 15.8-1.9 17.6s.8 3.3 2.5 2.1 2.3-4.1 3.3-8.1c.8-3.1 1.6-8.9 2.1-11 .1-.6.6-.4.6-.4s0 11.7.5 13.8 1.9 2.7 3-.4 1.2-12.8 1.4-14.4 1.4-7.6 2.9-10.8c1.4-3.2.7-12.3.7-12.3l1.3-3.6-15.8-4.6z"/><path fill="#e56363" d="M234 358.3c.1-8.9 1.9-13.5 2.1-18.4s-6-33.1-5.7-34.1c0 0-2-40.1.3-53.6s6-32.9 6-32.9 1.6-18.9 2.1-26.5-6.6-28.2-6.6-28.2-4.9 11.8-6.5 18c-2.1 8.1-4.4 17.5-9.5 26.6-1.4 2.5-8.4 19.4-12.2 30.5l-4.5 13.1-14.8-6.7s9.1-29.6 10.2-39.3c2.2-18.4 10.3-23.2 12.6-28.5s6.7-25.5 6.7-25.5l.1-15.6c-.1-16.4 19-20.9 19-20.9l16.8-5.6 21.3-4.1.7 33.1-.6 132.5-.5 19.2-2.5 1.6s-6.2 35.1-6.2 35.7c0 0 1.1 3.2.1 7.7s-2.3 6.2-2.3 6.2.3 8-1.3 13.7c-1.5 5.7-3.6 7.6-2.8 14.2.8 6.7 4.9 24.7 2.8 36.3s-7.7 21.4-6.7 30.9 3.9 9.9 3.6 14.9c-.4 5-1.3 7.8-1.3 7.8l-.4 9.6c-.1 3.7 1.8 4.9-.2 8.3-1.9 3.4-3.6 6.1-8.2 6.1s-14.3-.8-15.4-5.5c-1.2-4.7 1.5-5.6 3.9-8.8 2.5-3.3 4.7-8.9 4.7-8.9s-.4-6.7-.2-11.5c.1-4.9 1-4.3.3-8-.8-3.7-4.2-33.4-4.2-33.4s-4.6-12.8-3.4-23.2 2.8-16.7 2.8-16.7z"/><path fill="#263238" d="M231.6 131.1v.5l-.2 1.3-1 4.9q-.7 3-2.8 6.9-2 3.7-4.7 7.8l-.2.4-.2-.4-.2-.3a56 56 0 0 1-6.3-15.5q-.5-3.2-.3-5.1l.2-1.4.1-.5-.1 1.9q-.1 1.8.4 5c.7 4.2 3.4 9.5 6.4 15.3l.2.3h-.5q2.7-4 4.7-7.7 2-3.6 2.9-6.8l1.2-4.8.3-1.3zm31 15.3-1.2-1-3.2-2-3.5-1.5-1.1-.5-.4-.2.4.1 1.1.4 3.5 1.5a15 15 0 0 1 4 2.8zm.8-2.2-1.1-.9-2.8-2-3-1.7-1.3-.6.4.1 1 .4 3.1 1.6 2.8 2 .8.7zm4.5 18.6-.6.2-1.7.4q-2.3.6-6.3 1.1a25 25 0 0 1-14.7-2q-2.6-1.3-4.8-3.7a23 23 0 0 1-5-10.4q-1-5.2-1.5-9.3l-.8-6.3-.2-1.7v-.6l.1.6.3 1.7 1 6.3q.5 4 1.6 9.2c1.1 5.2 2.2 7.1 4.9 10.1a14 14 0 0 0 4.6 3.5q2.6 1.3 5.2 1.8c3.4.7 6.6.5 9.3.3l6.3-.9 1.7-.3zm-35-24.5.1.5.2 1.4a46 46 0 0 1 .6 9l-.1 4.2a51 51 0 0 1-5.1 18.7l-1.1 1.9-1.1 1.7-2.2 3q-1.1 1.3-2.1 2.2l-1.7 1.6-1.1.9-.4.3.3-.4 1-1 1.6-1.6 2-2.3q1.1-1.3 2.1-3l1.1-1.7 1-1.9a50 50 0 0 0 5-18.5l.2-4.2v-3.7l-.2-3-.2-2.3-.1-1.4z"/><path fill="#263238" d="m215.1 178.4-.2-1.1v-3c.1-2.5.7-6 1.9-9.7l1.9-5.1 1.9-4 1.5-2.6.6-.9-.5 1-1.4 2.6-1.8 4q-1 2.3-1.9 5.1a43 43 0 0 0-2 9.5zm21.9 1-.4-1-.8-2.7a72 72 0 0 1-3-18.2l.1-2.8.2-1 .1 3.8q.1 3.7 1 9.1c.9 5.4 1.4 6.7 1.9 9l.7 2.7zm12.5.8q-.1.2-2.5-1-2.4-1-5.2-3.8c-2.8-2.8-3.1-3.7-3.9-5.1s-1.1-2.4-1-2.4c.2-.1 1.7 3.7 5.3 7.2s7.3 5 7.3 5.1"/><path fill="#263238" d="M248.9 168.7a14 14 0 0 1-3.8 3c-2.2 1.4-4.2 2.3-4.3 2.2s1.8-1.2 4-2.6 4-2.7 4.1-2.6"/><path fill="#263238" d="M250.8 169.1h-.7l-1.9-.2a16 16 0 0 1-10.1-7.1l-.9-1.7-.2-.7 1.4 2.2a18 18 0 0 0 9.9 7zm-12.7 13.4c-.1-.1.5-1.6 1.8-3.1s2.7-2.3 2.8-2.2-1.1 1.1-2.4 2.6c-1.3 1.4-2.1 2.8-2.2 2.7"/><path fill="#263238" d="M250 193.4q-.1.1-2.5-1.1a21 21 0 0 1-5.4-3.8 19 19 0 0 1-4-5.2l-.5-1.1-.3-.8-.1-.7 1.2 2.4q1.2 2.3 4.1 5c2.9 2.7 3.8 3 5.2 3.9q2.3 1.2 2.3 1.4"/><path fill="#263238" d="M240.4 194.5c-.1.1-1.4-1.8-1.7-4.5a11 11 0 0 1 .3-3.4l.6-1.3c.2 0-.7 2.1-.4 4.7.3 2.5 1.4 4.4 1.2 4.5"/><path fill="#263238" d="m250 202.5-2-1a25 25 0 0 1-7.8-7.3q-1.2-1.8-1.1-1.9c.1-.1 2 2.8 5 5.6 3 2.9 6 4.5 5.9 4.6m-.3 11.1q-.1.1-2-1.6-1.9-1.6-4.2-4.4a36 36 0 0 1-4.8-7.1l1.5 2q1.4 2 3.7 4.7t4.1 4.4q1.8 1.9 1.7 2"/><path fill="#fff" d="M271.7 262.4s-8-2.4-10.4-10.1-5-16.6-6.4-24.3q-1-6.3-1-10.3c0-1.9 1.5-3.3 3.4-3.2l10.3.8q1.2.2 2 .9l2.4 2.5v-6.3s-16.1 2.3-18.1 0-.6-12.5-.6-12.5 13.9-3.6 16.8-2.6c2.9 1.1 1.9 3.2 1.9 3.2l.2-7.5s-1.2 2.3-3.2 2.4l-13.8 1.7c-.8.1-1.6-.5-1.6-1.3l-.3-6.6q0-1 .8-1.7a63 63 0 0 1 13.5-8.8c2.7-.3 3.8 0 3.8 0l.8 1.1v-6s-15.8 10.8-17.5 10.6c-1.3-.1-1.9-3.9-1.8-5.3.1-.8-.7-7.5.4-10.5s1.2-4 1.2-4l-5.6-.7-2.4 1.9s3 2.1 3.5 5.5c.5 3.3-.1 31.2-.3 33.7s1.6 21.7 1.2 25.6-3.6 6.5-6.8 3.9l-8.8-7.1-.9 4.9s2.9-1.9 7.8 3.2c4.8 5.1 13.6 14.6 15.3 18.6 1.7 3.9 4.5 20.1 14 19.9z"/><path fill="#263238" d="m247 231.5-3.2-4.3-3.1-4.4a115 115 0 0 0 6.3 8.7m1.1-2.1-.5-.5-1.2-1.4a48 48 0 0 1-6.2-10.1l-.7-1.7-.2-.6.3.6.7 1.6a47 47 0 0 0 6.2 10.1l1.1 1.4zm16.9 7.9-1.3-6.4-1.1-6.5 1.3 6.4c.7 3.5 1.1 6.4 1.1 6.5m1.6 1.7c-.1 0-.6-4.4-1.1-9.9l-.9-9.9c.1 0 .6 4.4 1.1 9.9zm-1.8-28.7-.3-1.1-.4-2.7-.1-2.7.1-1.1.1 1.1.2 2.7zm1.1-1-.2-1.1-.2-2.7v-2.7l.1-1.1v3.8l.1 2.7zm-.1-17.5-.1-1.1-.2-2.5-.4-2.5-.2-1 .3 1q.3 1 .4 2.5l.2 2.6zm-1.7.5-.5-4.1zm-2.3 1.1-.2-3.3v-3.3l.2 3.3zm-.3-17.7v.5h-.1l-.1-3.6-.2-2.9-.1-1.2.2 1.2.2 2.9v3.7h-.1zm1.2 0-.1-1.1-.1-2.7.1-2.7.1-1.1zm2-1.7-.1-2.7.1-2.7.1 2.7zm.3 140.6-.1-.8-.3-2.3-.2-1.7-.3-2-.8-4.8-.5-2.8-.6-3-1.5-6.6-4.3-14.8c-3.4-10.4-6.6-19.8-8.7-26.7a131 131 0 0 1-2.9-10.4l.7 2.2 2.6 8.1 8.9 26.6a255 255 0 0 1 4.3 14.9l1.5 6.6.6 3 .5 2.8.7 4.8.2 2 .1 1.7.2 2.3zm-1.8 8.3-.1-.2-.3-.6-1.2-2.5-1.8-4-2.2-5.3a315 315 0 0 1-17.8-64.1l-.8-5.7-.5-4.3-.3-2.7-.1-.7v-.2l.1.2.1.7.3 2.7.6 4.3.9 5.7a312 312 0 0 0 7.3 32.5q2.6 9.5 5.3 17.5t5.1 14.1l2.1 5.3 1.7 4 1.1 2.5.3.7z"/><path fill="#263238" d="m229.9 277.3.6-1.4.7-1.6.9-2.2 2-5.7 1.9-7.2a162 162 0 0 0 3.1-17.4l.3-1.5-.1 1.5-.4 4.1a121 121 0 0 1-4.3 20.5q-1 3.3-2.1 5.7l-.9 2.1-.8 1.6z"/><path fill="#263238" d="m240.1 328.7-.4-.6-.9-1.8a83 83 0 0 1-6.5-31.3 162 162 0 0 1 2.8-32l.3-2 .2-.7-.1.7-.3 2-1 7.4a179 179 0 0 0-1.6 24.5 90 90 0 0 0 6.2 31.2l.8 1.9zm11.4-35 .1.5.3 1.5q.4 2 .4 5.6t-.4 8.4l-1.2 10.2a91 91 0 0 0 .4 24.1l.5 2-.2-.5-.5-1.5q-.6-2-1-5.6c-.6-4.8-.5-11.4.3-18.6l1.2-10.2a89 89 0 0 0 .1-15.9m-8.3 35-.2-.8-.4-2.3-.4-3.6-.4-4.8c-.5-7.1-.8-16.9-.9-27.8v-27.8l.1-8.4.1-2.3.1-.8.1.8v10.7l.1 27.8c.1 10.9.4 20.7.8 27.8l.3 4.8.4 3.6.3 2.3zm12.9-35.7-2.2-5.5-2-5.5 2.2 5.5zm.4-2.8-2-4.8-1.8-4.9 2 4.8zm5.9-4.9-2.1-5.9-1.9-6 2.1 5.9zm.8-.9-.1-.5-.2-1.3-.9-4.1-1.2-4-.4-1.2-.1-.4.2.4.5 1.2 1.3 4c.7 2.4.7 3.1.9 4.1l.2 1.3zm3.1 15.5v-1.2l.1-3.3q.1-4.2-.4-10.7c-.5-6.5-1.1-7.9-1.6-10.6l-.7-3.2-.2-1.2.4 1.1.9 3.2a70 70 0 0 1 2.1 21.4l-.2 3.3z"/><path fill="#fff" d="M236.1 339.6s2.8 4.5 4 2.4 1-9.6 1-9.6l-1.9-5.7v-3.8l4.1 5.8 3.1-4.2s.4 19.7 5.9 21.7 8-4 8-4-7.1 14.2-7 18.7c.1 3.5 2.9 3.6 2.9 3.6l-.2 5.5s-8 6.7-7.2 18.5l3.2 48.6q.3 3.6 1.7 7.1c.9 2.1 1.9 5 1.9 7.3 0 4.1-1.5 11.5-1.5 11.5s1.1-6.8-4.7-7.6-11.1 5.8-11.1 5.8l-.3-7.9c.5-2 8.6-3.4 8.3-11.7s-6-25.1-6-25.1c2 1.6 3.9 2 5.4-1.4l-3.1-23.7-3.7-23.2s-1-4.6-1.9-10.7-3.3-1.1-3.3-1.1c.3-4 1.2-10.2 2.4-16.8"/><path fill="#263238" d="M250.4 362.4q0 .2-1.3.7-1.3.6-3.4.5c-2.8-.1-4.7-1.4-4.6-1.5s2 .9 4.6 1 4.6-.9 4.7-.7"/><path fill="#000" d="m240.6 416.6-.3-.5-.7-1.4q-.9-1.8-2.1-5.2c-1.6-4.5-3.1-11-3.7-18.2a129 129 0 0 1-.1-18.6l.4-5.6.1-1.5.1-.5v2l-.2 5.6c-.1 4.7-.3 11.3.3 18.5s2 13.6 3.6 18.1l2 5.3.6 1.4z"/><path fill="#263238" d="M257.5 411.7c0 .1-1.1-.6-2.3-2.2s-2.7-4-3.8-6.8a32 32 0 0 1-2.1-7.6l-.2-1.3-.1-1v-.9l.2.9.1 1 .2 1.3a39 39 0 0 0 5.9 14.2c1.2 1.6 2.2 2.4 2.1 2.4M246.8 473l.2.5q.3.4.5 1.3.3 1.2-.5 2.1-.4.6-1 .8l-.9.8q-.7 1-.8 2.2-.1 1 .1 2l.3 1.8q-.2 0-.7-1.8-.2-.9-.2-2.1t.9-2.5l1-.9.9-.7q.6-.9.5-1.8l-.4-1.3zm-6.3 4.9c.1.1-.8 1.2-1.1 3q-.2 1.4 0 2.2l.2.9q-.2 0-.6-.8-.5-1.1-.1-2.4c.4-1.3.5-1.7.9-2.2zm-3.8 0-.4 2.8-.4 2.7c-.1 0-.4-1.3-.1-2.8.3-1.6.8-2.8.9-2.7m-4-1.7c.1.1-.4 1.3-.3 2.9 0 1.6.5 2.8.4 2.9s-.9-1.2-.9-2.9c0-1.8.7-3 .8-2.9m2.8-2.6 1.3-2.2a38 38 0 0 0 4.6-11.1l.6-2.4q.1.1-.3 2.5c-.4 2.4-.8 3.6-1.8 5.8q-1.5 3.4-2.9 5.3-1.3 2.3-1.5 2.1m7.2.4.3-2.4.9-5.8.8-5.8.4-2.4v2.4l-.6 5.8-1.1 5.8zm4.1-1.9-.2-2.2-.2-5.4-.3-5.4v-2.2l.4 2.2a64 64 0 0 1 .4 10.8zm3.4.4c-.2 0 .4-3.4 0-7.5s-1.6-7.3-1.4-7.4q.2 0 .9 2.1a27 27 0 0 1 1.1 10.7z"/><path fill="#fff" d="M213.6 178.9s.6 8.4 2.1 13.3 4.6 8.7 4.6 8.7q1.3-3 2.5-7.3s-2.1-.9-1.3-4.1c.7-3.2 2.6-6.1 2.6-6.1s-4.6 4.8-5.3 2.8c-.7-2.1 1.7-8.3 1.7-8.3s-4.4 1.8-4.3-2.2c.1 0-1.1 6.7-2.6 3.2"/><path fill="#263238" d="m214.3 155.3-.6 3.5a83 83 0 0 0-.7 8.5q0 5.2.3 8.5.3 3.4.2 3.6l-.2-.9-.3-2.6a66 66 0 0 1 .3-17.2l.6-2.5zm14.4 8.2-.1.7-.5 1.8a39 39 0 0 1-2.4 5.6 35 35 0 0 1-4.8 6.3l-.5.5.4-.5 1.2-1.4q1.6-1.8 3.4-5t2.5-5.5l.6-1.7zm-8.4.2-.2.4-.5 1.2q-.7 1.5-1.5 4.1a35 35 0 0 0-1.2 5.5l-.1.5v-.5l.2-1.3q.3-1.7 1-4.2c.7-2.5 1.1-3.1 1.5-4.1l.6-1.2zm5.2-3.5-.3.6-.8 1.7a129 129 0 0 0-4.9 11.5l-.7 1.8-.3.6.2-.7.6-1.8q.8-2.4 2.3-5.8l2.7-5.7.9-1.7zm-2.1-33.9v.3l-.2.7-.6 2.7a63 63 0 0 0-.6 18.1l.4 2.7.1.7v.3l-.1-.3-.2-.7-.5-2.7a58 58 0 0 1 1.1-20.8l.2-.7zm4.2-.8-.8 1.6q-1 2.2-2 5.6c-1 3.4-.9 4.3-1 5.9l-.1 1.8-.1.7v-.7l.1-1.8a33 33 0 0 1 3.1-11.5zm24.8 320.1-.3-1.2-.5-3.2-1.8-10.6-2.1-10.5-.8-3.1-.3-1.2.5 1.1.9 3.1 2.3 10.5c1.3 6.3 1.3 7.9 1.7 10.6l.4 3.2z"/><path fill="#000" d="m257.4 308.5-13.2-40.9c-.7 9.5 1.4 18.9 4.8 27.8s8.6 17.2 13.3 25.4c-1.5-4.1-3.5-8.2-4.9-12.3m-24-168.3c1.1 6.9-1.6 13.9-1.2 20.9.3 4.5 1.9 8.9 3.4 13.2l1.8 6.5c1.4 4.8 5.2 7.9 7.6 9.4-11.8-10.4-8.5-35.8-11.6-50m-17.2-2.6a51 51 0 0 0 6 16.9 23 23 0 0 0 8.3-18.3 42 42 0 0 1-7.8 16.1c-1.9-4.7-5.1-9.4-6.5-14.7" opacity=".3"/><path fill="#263238" d="m247.1 119-2.9.5q-2.8.7-6.1 3.4-3.1 3-4.7 5.4c-1.6 2.4-1.8 2.4-1.8 2.4l1.5-2.6q1.5-2.4 4.6-5.6 3.3-2.8 6.4-3.4 1.4-.3 2.2-.2zm-.6 8.6.2.1.7.3 2.4.8c2.1.7 5.1 1.3 8 2.9 2.9 1.7 4.9 4.1 5.9 6.1 1 1.9 1.3 3.3 1.3 3.3l-.3-.9q-.2-1-1.1-2.3c-1-1.9-3-4.3-5.9-5.9s-5.9-2.2-8-2.9l-2.4-.9q-.5-.1-.6-.3z"/><path fill="#000" d="M240.6 416.6a77 77 0 0 1-7.3-32.7 47 47 0 0 0 8.2 35.7z" opacity=".3"/><path fill="#263238" d="M190.1 246.2v-2.7q0-2.6 1-7.2c1-4.6 1.8-6.5 3.3-10.3s3.4-7.8 5.3-12.1q3-6.4 4.8-12.2c1.8-5.8 2-7.4 2.2-10.4q.4-4.6 0-7.2l-.3-2.6.2.7.4 1.9q.5 2.6.2 7.3c-.3 4.7-1 6.7-2.1 10.6q-1.9 5.8-4.8 12.3c-2.9 6.5-3.8 8.3-5.3 12a72 72 0 0 0-4.6 17.3l-.1 2z"/><path fill="#263238" d="M198.4 217.8v1.1l-.2 2.9a66 66 0 0 1-5 18.4l-1.3 2.6q-.4.9-.6.9l1.5-3.7a72 72 0 0 0 4.9-18.3zm16.5-29.1v2.3q0 2.3-.9 6.3c-.9 4-1.6 5.7-2.9 9q-2.1 5-5 10.4c-2.9 5.4-3.8 7-5.3 10.2a79 79 0 0 0-5.5 14.7l-.4 1.7-.2.6.1-.6.3-1.7q.4-2.3 1.7-6.1 1.3-3.9 3.6-8.7l5.3-10.3a108 108 0 0 0 8-19.3q.9-4 1.1-6.2zm-1-6.4-.2 1.8q-.4 1.8-1.9 4c-1.5 2.2-2.3 2.5-3.3 3s-1.8.6-1.8.5l1.6-.8q1.5-.9 3-3 1.5-2.2 1.9-3.8zm-17.8 66.4.1-.6.3-1.6q.4-2.2 1.7-5.8c1.3-3.6 2.1-5.2 3.8-8.2s3.8-6 6.1-9.2q3.4-4.8 5.8-9.3c2.4-4.5 2.5-5.9 3-8.4s.5-4.6.4-6l-.2-2.2.2.6.3 1.6q.4 2.2-.3 6.1t-2.9 8.5a65 65 0 0 1-5.8 9.4q-3.4 4.8-6.1 9.1c-2.7 4.3-3 5.7-3.9 8.1s-1.5 4.4-1.8 5.8l-.4 1.6z"/><path fill="#fff" d="M175 256.5s7.3-1.3 9.7.6c1.8 1.4-.1 3.5-.1 3.5s3.6-3.9 3.4.9c0 0 2.3-3.9 2.2 0 0 0 3.5-5.3 7-1.3 1.3-2 1.7-1.8 2.3 1.4l.1-3.2-.2-5.3s-3.8-6.4-15.3-5.3l-1.4 4.4z"/><path fill="#f5f5f5" d="M168.4 281.4s1.9-1.1 2.6.6.7 3.2.7 3.2c2.4-4.1 5.2-9.4 6.5-9.7 1-.3-.7 3.5-1.1 4.8l-3.4 8.8s1.6-1.9 3.3-1.5 2 2.8 2 2.8 4.8-13.6 5.3-13.3c1 .6-1.6 15-1.6 15l.2-.5a2.2 2.2 0 0 1 4 0l.4.9s.7-2.2 1.3-5.1c.9-4.3 2-9.8 2.2-10 .5-.4.1 10.2.4 10.2 0 0 .1-3.8 1.8-4.2.9-.2 2.4 2 2.4 2s.4-4.3.4-7.3c0-2.7-.8-4.3-.8-4.3l-2.6-6.3c.1.1 1.1 5.6-1.2 6.2s-1.7-4.6-1.7-4.6l.5-6.2s-1.4 7.3-2.7 9.4c-1.6 2.7-3.7 1.8-3.2-.4.5-2.4 3.1-9.5 3.1-9.5s-5 10.3-6.5 10.1-.4-4-.2-4.4c1.2-2.9 3.4-6.2 3.4-6.2l-5.7 6.8c-3 3.7-5.2 3-5.2 3l-.1.3c-1.5 2.6-4.5 9.4-4.5 9.4"/><path fill="#263238" d="m175.4 257.1-.5 1.4q-.5 1.4-.6 3.5a10 10 0 0 1-1 3.5q-.7 1.2-1 1.2l.6-1.3c.6-1.2.6-2 .8-3.4s.4-2.7.8-3.5q.7-1.4.9-1.4m7.6 1c.1.2-2.7 1.1-5.4 3.3s-4.2 4.7-4.3 4.6q-.2-.1.9-1.7c1.1-1.6 1.7-2.2 3.1-3.3s2.8-1.9 3.9-2.4q1.7-.6 1.8-.5m13.5 1.6s.6.7.9 2q.7 2.1.3 5.4c-.4 3.3-.9 4-1.3 5.3l-.9 2.1.5-2.2 1.2-5.2q.4-3.2-.2-5.3zm-2.9 10.3c-.1.1-1.4-1.6-2.3-4.1s-1.1-4.6-.9-4.6.5 2 1.4 4.4 2 4.2 1.8 4.3m2.1-1.9q-.2 0-.9-1.6c-.7-1.6-.6-1.8-.4-1.8q.2 0 .9 1.6.5 1.5.4 1.8m40.4 79.8.2 1.8.6 4.8q.8 6.3 2.4 15.8c1.6 9.5 1.8 11.8 2.4 15.8l.6 4.8.1 1.8-.3-1.8-.7-4.8a735 735 0 0 1-4.7-31.7l-.4-4.8z"/><path fill="#e56363" d="m255.2 111.1-4.1-.6s5.2-7.3 5.3-8.1c.4-5-.8-16.4-.8-16.4s-3.7 0-5.2-2c-1.3-1.6-3.6-7-3.8-11-.1-2.7 2.4-3.5 4.5-3.3.9.1.1-2.6.1-2.6s-.3-3.6-.2-7c.3-7 1.8-6.1 3.8-9.6 2.1-3.5 6.6-9.7 16.9-10.2v66.9l.2 14.3z"/><path fill="#263238" d="m263.1 117.5-1.8-2.1c-1-1.3-2.7-3.2-3.5-5.7s-1-4.9-1.2-6.6v-2.8l.4 2.7q.2 2.7 1.3 6.5c.8 2.4 2.3 4.3 3.3 5.7zm-.1-1.7q-.2-.1-.7-2.9-.6-2.8-1-7c-.4-4.2-.8-5.2-1.2-7l-.5-2.9.9 2.8q.8 2.7 1.3 7l.8 7q.6 3 .4 3m8.2 13.4-.6-1.1-.6-1.3-.7-1.8q-1.5-4.2-2.3-11c-.8-6.8-.6-8.3-.7-11.2v-3.4l.1-1.2.1 1.2.1 3.4q.1 4.5.8 11.1c.7 6.6 1.3 8.2 2.1 10.9z"/><path fill="#263238" d="m257.3 106.4-1.4 1.6q-1.4 1.4-3.3 3.8c-1.9 2.4-2 3.1-2.5 4.3l-.8 2q-.2 0 .4-2.1c.6-2.1 1.2-2.9 2.4-4.5s2.5-2.9 3.5-3.7zm0 0q.2 0 .4 1.9c.2 1.9 0 2.9-.4 4.6q-.7 2.7-1.4 4.4l-.8 1.7.5-1.8 1.2-4.4q.6-2.6.5-4.5z"/><path fill="#000" d="m249.2 118.7.1-.6-.1-.1zm8-12.2q-.4.1-.6.5c-4.7 4.6-6.2 6.7-7.2 11.1q1.2.6 2.4.9 1.4.3 2.7-.4 1.2-1 1.7-2.8a25 25 0 0 0 1.3-6.6zm2.3-10.9s4.5 19.8 6.3 19.3.8-16.4.8-16.4z" opacity=".3"/><path fill="#fff" d="M271.5 41.8c-.6 0-11.2 1.8-14.8 7.5-3.1 4.9.3 7.3.7 8.5l.2 3.3-1.6 3.3v9l.8 5.3s-1.8-.4-2.8-3.9c-.7-2.4-.7-6.5-.7-8.9q0-1.4.6-2.8c.4-1 .8-2.6.1-4.2-1.1-2.7-2.9-2.3-2.9-2.3s.4-4 3.9-8.9c5.7-8.1 16.7-7.8 16.7-7.8z"/><path fill="#263238" d="m268.5 68.1-1.2-1.1c-1.2-1.1-2.1-1.2-3.7-1.2-1.5.1-2.8.9-3.6 1.5s-1.2 1.2-1.3 1.1q-.2-.2 1-1.4a5 5 0 0 1 3.8-1.7 6 6 0 0 1 3.9 1.4q1.3 1.3 1.1 1.4m-1.4-8.7c0 .2-2.2-.1-4.9.4s-4.6 1.5-4.7 1.3a9 9 0 0 1 4.6-1.8c2.8-.5 5.1 0 5 .1m-3.2 28.8-.3-.3-.9-.9-2.9-3.1a22 22 0 0 1-2.4-3.5l-.6-1.2-.2-.4.9 1.5q.8 1.5 2.4 3.5c1.6 2 2.1 2.3 2.8 3.2l.8 1zm7.7 10.9h-1q-1 0-2.7-.3c-2.3-.4-5.5-1.3-8.5-3.3q-1.1-.7-1.9-1.8c-.8-1.1-.9-1.5-1.1-2.2q-.7-2.3-.8-4c-.1-1.7-.3-2.1-.4-2.7l-.2-1q.2.2.9 3.6.2 1.7.9 3.9a6 6 0 0 0 2.9 3.8 25 25 0 0 0 8.2 3.3zm-2.4-29.7s-.2.9-1 2-2.4 2.4-4.5 2.9-4.1-.1-5.3-.7-1.8-1.3-1.8-1.4l1.9 1c1.8 1 3.1 1 5 .5 2-.4 3.5-1.6 4.3-2.6z"/><path fill="#263238" d="m257.8 67.8 1.5 1q1.4 1 4 1.2c2.6.2 3.1-.6 4-1.1q1.3-1 1.5-1 .1.1-1.3 1.3c-.9.7-2.4 1.4-4.2 1.3a7 7 0 0 1-4.2-1.4q-1.4-1-1.3-1.3m-3.5 12.6-.2-.5-.5-1.4-1.3-4.7-1-4.7-.2-1.4.3 1.4 1 4.7 1.2 4.7.4 1.4zm-1.1.7-.5.2q-.5.1-1.5-.4a2 2 0 0 1-1.1-1.9q0-.7.3-1.3l.7-1.2.3-1.1q0-.6-.3-1.1-.4-1.1-1.1-1.5c-.7-.4-.9 0-1.1.3l-.2.5V73q.1-.3.5-.5h.9q1 .5 1.5 1.7l.4 1.3q0 .8-.3 1.4-.9 1.2-.9 2.2.1 1 .8 1.7c.8.5 1.6.2 1.6.3m9.6 6.9-.4-.1-1.1-.6q-1.4-1-3.1-2.6c-1.7-1.6-2.1-2.1-2.8-2.9l-.8-.9-.3-.4.3.3.8.9 2.8 2.9q1.7 1.7 3 2.6zm8.5-3.5-3.1.7c-1.7.3-3 .8-3.1.7s1.2-.8 2.9-1.2c1.9-.4 3.3-.4 3.3-.2m.6-2.5c0 .2-1.7.1-3.6 1s-3 2.1-3.1 2 .9-1.6 2.9-2.5c2-1 3.8-.7 3.8-.5m.6 6.9c0 .1-1.5.4-3.4 0s-3.2-1.2-3.2-1.3c.1-.1 1.5.4 3.3.8 1.8.3 3.3.3 3.3.5m-9.3 7.6-.2-.2-.5-.8q-.7-1-1.2-2.8t-.3-3l.1-.9.1-.3v1.2a11 11 0 0 0 1.5 5.6z"/><path fill="#263238" d="M267.4 94.2s-.1-.3 0-.8l.3-2 .7-1.9.4-.7-.9 2.7c-.4 1.4-.4 2.7-.5 2.7m3.7-25.8c.1.1-.9 2.8-2.4 6-.6 1.6-1.9 3.2-.7 3.8q.7.4 1.2.4l.5.1-.5.1q-.5 0-1.4-.3-.4-.3-.7-.8-.1-.7.1-1.2l1-2.3c1.5-3.2 2.7-5.8 2.9-5.8m-2.2-4.3c-.1.1-.5-.6-1.6-1q-1.7-.7-4.4-.3-2.7.6-4 1.9c-1.3 1.3-1.1 1.5-1.2 1.4q-.2-.2 1-1.7a8 8 0 0 1 4.2-2.2q2.9-.5 4.7.5c1 .6 1.3 1.4 1.3 1.4"/><path fill="#263238" d="M271.1 68.4c-.2 0-.3-1.4-.9-3.1q-.5-1.2-1-1.9l-.6-.7q0-.2.9.5.7.6 1.3 2c.4 1.7.4 3.2.3 3.2M264 48.6l.6 4.6.4 4.6-.6-4.6zm1.3-.8.8 4 .6 4-.8-4zm.5-2.5.2.3.4.9 1.1 3.1c.6 1.9.4 2.4.5 3.2v1.4l-.1-1.3q-.1-1.3-.5-3.2c-.4-1.9-.7-2.3-1-3.1q-.7-1.2-.6-1.3"/><path fill="#fff" d="M241.4 113.7s6.1 3.9 12 4.9 6.4-2.2 6.4-2.2l3.2-.5s-.5 3.1 1.4 3.8c1.9.8 2.8-3.4 2.8-3.4l4.8 3.4.2 54.4-.7-3.3-5.7-19.7a10 10 0 0 1 1-7.7l1.2-2.1-1.1-11.3-2.5-8.2s-11.2-.1-14.6-1.6-9.4-6.1-9.4-6.1z"/><path fill="#455a64" d="M319 118.9s-2.3-.9-3.5 0-2.8 3.1-2.8 3.1-5.3-.7-6.6 0-3.5 3.1-3.5 3.1l-1.1 4.2-5.1 2.3s-8.6 20.2-8.1 20.3a90 90 0 0 1 4.8 7.2l9-4.4 6.1-9.9-.7-4.7 4.1-4.4.7-3.2s-1.6-4.9 2.1-7.5c3.7-2.7 5.6-1.6 5.6-1.6l-.7-3.4"/><path fill="#000" d="M319 118.9s-2.3-.9-3.5 0-2.8 3.1-2.8 3.1-5.3-.7-6.6 0-3.5 3.1-3.5 3.1l-1.1 4.2-5.1 2.3s-8.6 20.2-8.1 20.3a90 90 0 0 1 4.8 7.2l9-4.4 6.1-9.9-.7-4.7 4.1-4.4.7-3.2s-1.6-4.9 2.1-7.5c3.7-2.7 5.6-1.6 5.6-1.6l-.7-3.4" opacity=".3"/><path fill="#455a64" d="M302.7 214c-4.8-4.9-11.2-3.2-14-2.7s-2.1 2.3-4.7 6c-2.5 3.7-12.2 6.9-12.2 6.9l.1 27.7h2l.3-2.3s0-.7 1.2-1.7c1.2-1.1 7.1-10.9 8.4-13.6s2.9-1.3 2.9-1.3 1.5 2.3 2.1 6.1c.7 3.9 0 4.4-5.6 10.9s-8.7 4.3-8.7 4.3l-1.1 3.2s5.1 7.3 8 8.1 8-4.3 8-4.3l1.3-7.9c.7-4.5 9.7-6.5 9.7-6.5a15 15 0 0 1-.1-11.5l.9-2.2s.5 4.7 4.4 0 1.9-14.3-2.9-19.2m-19.3 48.1c-.8.3-1.9.2-2.4-.5q-.5-1-.3-2.2.4-2.3 2-3.8c1.1-1 2.9-1.6 3.4-.2v3.1c-.2 1.5-1.2 3-2.7 3.6"/><path fill="#263238" d="M303.1 218.4s.7 1.1 1.3 3.3a13 13 0 0 1-1.1 9.2q-2.2 2.5-3.3 6.3c-1.1 3.8-.5 5.3.3 8v.2l.1.3-.2.1q-3.2.9-5.8 2.7a8 8 0 0 0-3.3 4.5l-.1.3-.3-.1a9 9 0 0 0-3.2-.8q-1.7 0-3 .5-2.8.8-4.4 2.2c-2.2 1.8-2.8 3.3-2.9 3.3l.1-.3.4-.8q.6-1 2.2-2.5 1.7-1.4 4.5-2.4 1.4-.5 3.1-.5c1.7 0 2.3.3 3.4.8l-.3.2q.8-3 3.5-4.8c2.7-1.8 3.7-2.1 5.9-2.8l-.2.3v-.2q-1.2-4.3-.3-8.3c.9-4 1.9-4.8 3.4-6.5q1.4-2.5 1.5-4.9t-.3-4c-.5-2.1-1.1-3.3-1-3.3m-17.8-.6.4.5.9 1.5a4 4 0 0 1 .5 2.6q-.1 1.5-.5 3.1c-.7 4.3.1 7.9 0 7.9s-.3-.8-.5-2.3q-.4-2.2.1-5.7l.5-3q.1-1.3-.4-2.4z"/><path fill="#455a64" d="M272.1 177.9h5.7s2.8-.1 3.4 1.6.6 2.9 0 3.1h-3.8l-4.4.1z"/><path fill="#455a64" d="m271.7 175.7 6.2-.9-.5 11.6h2.7s2.1 2.1.7 2.4-3.4 0-3.4 0V202l-5.7.8z"/><path fill="#455a64" d="m271.7 198.6 7.8-1.5-.9-2.5 3.4-1.8s1.4-1 .5-1.7c-1-.6-3.9.9-3.9.9v-.9l-6.7 1.5zm10-.3-4.2.5s-.1 2.8-.9 2.8h-4.8v6.1s5.2.7 6-1.6.5-3.7.5-3.7 4.7-1.5 3.4-4.1m-10.1 12.3c.6.1 6-1.4 6-1.4v3.1s4.4-2.1 3.6 0-3.2 2-3.2 2l-.3 2.9h-6.1z"/><path fill="#e56363" d="m271.8 202.1 1-2.2s2.7 4.1 10.3 2.5c7.6-1.7 16.6-7.8 14.3-20.8s-13.1-6.4-13.1-6.4-5.6-2.7-5-8.5l-5.2-4c.1.7 1.4 10.4 7.7 16.5 0 0 2.5 9.6-6.6 13.3q-2 .8-3.3 1.7"/><path fill="#000" d="m271.8 202.1 1-2.2s2.7 4.1 10.3 2.5c7.6-1.7 16.6-7.8 14.3-20.8s-13.1-6.4-13.1-6.4-5.6-2.7-5-8.5l-5.2-4c.1.7 1.4 10.4 7.7 16.5 0 0 2.5 9.6-6.6 13.3q-2 .8-3.3 1.7" opacity=".3"/><path fill="#e56363" d="M275 210.7c-2.5-.1-3.6 3.1-3.5 5.6q.3 3.6.1 7c-.2 6 0 9.3-.1 13.5s.2 9 .1 9.6c3.6.6 12.8-3.6 17-5.1s8.6-3.3 11.2-7c1.9-2.8 2.6-6.3 2.8-9.7q.6-10.5-3.2-20.3-.3-.7-.7-1.1-1-.5-2-.2a92 92 0 0 0-21.7 7.7"/><path fill="#fff" d="M275 210.7c-2.5-.1-3.6 3.1-3.5 5.6l.1 8.4a552 552 0 0 1 0 21.8c1.1.3 5-.4 8.9-1.3 3-3.3 3.9-2.3 8.1-3.8s8.6-3.3 11.2-7q2.7-4.4 2.8-9.7.6-10.5-3.2-20.3-.3-.7-.7-1.1-1-.5-2-.2a92 92 0 0 0-22.8 7.9" opacity=".5"/><path fill="#e56363" d="M284.8 126.1s-3.3-.8-3 4v4.4s-2.3.5-2.6 4l-.5 8.1s6.2 15.3 6 16.8c-.1 1.5-1.9 8.3 1.1 9.9s4.3 1.7 5.2 3.4 3.6 2.8 5.3 3.7c1.8.8 3.2 4 5.1 4.1s3.1-1.8 3.7-6 2.8-25.4-3.1-36.6-17.2-15.8-17.2-15.8m-13.1 76.7s5.6-1.7 8.6-.1c0 0 .5-2 4-1.2 0 0 2.3-2.5 5.3-2.5 0 0 .4-2 4-3.1 0 0 1.2-4.4 5.2-3.9 0 0 3.3-.1 4.1 2.5s0 6 0 6 1.1 2.4-.4 4.9c0 0 1.5 2.4.7 5 0 0 1.4.9.9 4.5 0 0 2.5.4 2 5 0 0 1.2 3.2-.5 5.5 0 0 1.5 3.4-.9 5.8 0 0-.9 5.7-4.3 6.2 0 0-1.4 3.9-4.4 3.6 0 0-1.5 4.3-5.8 2.4 0 0-.7 3.7-3.5 3.1 0 0-2.5 2.2-4.6 1.1 0 0 .7.9-1.6 2.5 0 0 1.1 4.7 0 7.6l-3.3 8.5h-3.9s-.8-6.7-.6-10.7c.1-4-1.9-11.5 7.8-13.3 0 0 1.9-2 4.3-2.7s3.3-.7 3.3-.7 1.5-1.7 3.8-2l2.3-.4s.9-3.1 3.2-4 1.8.7 1.8.7l2.4-7.7-.3-6.5c-1.6-1.7-2.3-3.9-1-6.1-2-1.4-1.8-2.7-1.2-4.6l-1.8-3.2-2.8 1.1s-1 2.7-5.6 2.7c0 0-2.5 3.2-7.1 1.8 0 0-6.9 3.4-10.2 1z"/><path fill="#fff" d="M271.7 202.8s5.6-1.7 8.6-.1c0 0 .5-2 4-1.2 0 0 2.3-2.5 5.3-2.5 0 0 .4-2 4-3.1 0 0 1.2-4.4 5.2-3.9 0 0 3.3-.1 4.1 2.5s0 6 0 6 1.1 2.4-.4 4.9c0 0 1.5 2.4.7 5 0 0 1.4.9.9 4.5 0 0 2.5.4 2 5 0 0 1.2 3.2-.5 5.5 0 0 1.5 3.4-.9 5.8 0 0-.9 5.7-4.3 6.2 0 0-1.4 3.9-4.4 3.6 0 0-1.5 4.3-5.8 2.4 0 0-.7 3.7-3.5 3.1 0 0-2.5 2.2-4.6 1.1 0 0 .7.9-1.6 2.5 0 0 1.1 4.7 0 7.6l-3.3 8.5h-3.9s-.8-6.7-.6-10.7c.1-4-1.9-11.5 7.8-13.3 0 0 1.9-2 4.3-2.7s3.3-.7 3.3-.7 1.5-1.7 3.8-2l2.3-.4s.9-3.1 3.2-4 1.8.7 1.8.7l2.5-7.9a12 12 0 0 1-.3-6.3c-1.6-1.7-2.3-3.9-1-6.1-2-1.4-1.8-2.7-1.2-4.6l-1.8-3.2-2.8 1.1s-1 2.7-5.6 2.7c0 0-2.5 3.2-7.1 1.8 0 0-6.9 3.4-10.2 1z" opacity=".3"/><path fill="#263238" d="m282.1 210.1.3-1.1q.2-1.1-.2-2.8c-.4-1.7-.7-2-1.1-2.5l-.8-.9.3.2q.3.1.6.6.8 1 1.2 2.6c.4 1.6.3 2.1.1 2.9l-.3.8zm6.7-1.1s.1-.5-.1-1.3-.6-1.8-1.3-2.9l-2-2.5-1-.8.3.1.8.6q1 .8 2.1 2.4 1 1.7 1.3 3v1zm.8-10h.4l.9.3 1.1.8q.7.5 1.2 1.2 1 1.6 1.2 2.9l.2.9v.4l-.3-1.3q-.2-1.3-1.2-2.8-.5-.7-1.2-1.2l-1.1-.9zm4.1-3.1h.5q.5.1 1.1.5a8 8 0 0 1 2.7 3q.5 1.1.6 2.2 0 1-.2 1.8c-.2.8-.5.8-.8 1l-.4.2c-.1 0 .7-.3 1-1.3q.2-.7.2-1.8 0-1-.6-2.1a9 9 0 0 0-2.6-3l-1.1-.6q-.4.3-.4.1m4.9 0h.3l.9.4a3.2 3.2 0 0 1 0 5.4l-.9.4h-.3s.5-.1 1.1-.6 1.4-1.4 1.4-2.6-.8-2.1-1.4-2.6zm4.2 14.4s-.1.3-.7.5q-.5.1-.9-.1l-.8-.8q-.4-1.1-.1-2l.2-.8-.1.8q-.2.8.2 1.8.6 1 1.4.9.9-.2.8-.3m-.6 1s-.4.3-.6 1.1l-.1 1.5q0 1 .9 1.6h.1v.1c-.4.9-.1 2.4 1.1 3.1h.1l-.1.1a4.5 4.5 0 0 0 .1 5.5q-.4 1.7-.4 3.6v.1q-1 .8-1.7 2l-1.2 2.5-.3 1.1v.1l-.1-.1q-.5-.3-1-.2l-1 .4-.9.6-.7.8a10 10 0 0 1-3.5 2.3l-6.5 2.6c-2.1 0-3.6 1-4.4 1.8l-.9 1-.3.4 1.1-1.5c.8-.8 2.3-1.9 4.5-1.9l6.5-2.7a8 8 0 0 0 3.4-2.2l.7-.8.9-.6 1.1-.5 1.2.2-.1.1.3-1.1q.4-1.4 1.2-2.6c.8-1.2 1-1.5 1.8-2.1v.1q-.1-2 .4-3.6v.1a5 5 0 0 1-.1-5.7v.1a2.6 2.6 0 0 1-1.1-3.3v.1q-1-.8-1-1.7-.1-.9.1-1.5l.4-.8z"/><path fill="#263238" d="M282.2 246.9s-.3 0-.7-.3-.8-.8-1.1-1.5q-.3-1.1 0-1.8l.4-.7-.2.7q-.2.7.1 1.7t.9 1.4zm5.2-2.8s-.3-.1-.6-.5-.7-1-.8-1.7q0-1.2.3-1.9t.5-.6l-.3.7q-.3.7-.2 1.8c.1 1.1.4 1.3.7 1.7zm3.1-1-.6-.7q-.5-.7-.7-2.1-.1-1.3.2-2.2l.4-.8c.1 0-.6 1.3-.4 2.9.3 1.8 1.2 2.9 1.1 2.9m6.1-3.8-.6-.1q-.7-.2-1.2-1-.6-1-.4-1.5l.2-.6c.1 0-.3 1 .4 2s1.6 1.2 1.6 1.2m5.3-4.1-.6-.1q-.6-.3-1.1-1-.6-1-.4-1.4l.1-.6c.1 0-.1 1 .5 1.9s1.5 1.2 1.5 1.2m3.5-11.3s-.5.5-1.4.6-1.6-.1-1.5-.2h1.5zm-.2-5.7s-.6.6-1.5.9q-1.7.2-1.8-.1c-.1-.3.8.1 1.7-.1s1.5-.7 1.6-.7m-1.3-2.8-1.2.4-1.1.6q0-.2 1.1-.8c.5-.3 1.2-.3 1.2-.2m-.4-5.2c.1 0-.5.8-1.4 1.3l-1.7.9 1.6-1zm-.7-5.2c.1 0-.6.9-1.6 1.6s-2 1.1-2 1.1l1.9-1.3zm-17.6 5.4.3.2.8.6q1.1.8 2.8 2.5 1.8 1.7 2.9 4.7.5 1.5.4 3.3l-.4 1.7q-.4 1-1.2 1.3-1.8.8-3.5-.3c-1.7-1.1-1.8-1.3-2.5-2.1l-3.6-4.2a13 13 0 0 0-2.9-2.3l-.9-.4-.3-.1 1.3.5q1.2.6 2.9 2.3c1.7 1.7 2.2 2.6 3.7 4.1q1 1.1 2.5 2c1.5.9 2.2.8 3.3.3s1.4-1.8 1.5-2.9-.1-2.2-.4-3.2q-1-3-2.9-4.6c-1.9-1.6-2.1-2-2.7-2.5l-.8-.6zm-5.2 2.3c0 .1-1.4.6-2.9 1.8s-2.3 2.4-2.4 2.4l.6-.8 1.7-1.7q1.1-.9 2.1-1.3.8-.6.9-.4"/><path fill="#263238" d="m287.7 219.9-.3-.4-.8-1.1a22 22 0 0 0-6.8-5.9l-1.2-.7-.4-.2.5.2 1.2.6q1.6.8 3.7 2.6c2.1 1.8 2.4 2.4 3.1 3.4l.8 1.2zm9.8-15 .2.5q.2.5 0 1.4-.5 1.9-2.9 3.6a12 12 0 0 1-5.5 2.4h-.5l1.9-.5a16 16 0 0 0 4.1-2.1c1.4-1.1 2.6-2.4 2.8-3.5.3-1.1-.1-1.8-.1-1.8m-2.3 25.9.9.3q.9.3 2.4-.2c1-.3 2.1-1.2 2.5-2.6.4-1.3 0-3.1-1.2-4.3l-.1-.1.1-.1q1.3-1 1.3-2.8-.2-1.4-1.3-2.4l-.1-.1.1-.1c1.3-1.2 1.5-3.1.9-4.5s-1.6-2.3-2.6-2.7q-1.5-.7-2.5-.6h-.9l.9-.1q1 0 2.6.6t2.7 2.8c1 2.1.4 3.4-.9 4.7v-.2q1.2 1 1.4 2.5a4 4 0 0 1-1.4 3v-.2c1.3 1.2 1.7 3 1.2 4.5a4 4 0 0 1-2.6 2.6q-1.5.5-2.5.1-1 0-.9-.1"/><path fill="#263238" d="M295.3 234.1s.2-.6.2-1.6-.3-2.3-1-3.6-1.6-2.3-2.2-3l-.8-.9.8.8q1.2 1 2.3 3.1a7 7 0 0 1 .9 3.7l-.2 1.2z"/><path fill="#263238" d="M295.9 227.2q-.2.1-2-.5-1.7-.9-1.8-1.1c-.1-.2.8.4 1.9.9zm-2.6-5.8 1 .4 2.5.7q1.5.3 2.5 1l.6.5.2.2-.9-.6q-.9-.5-2.4-.9l-2.5-.7zm6.8-2.5-1.1-1c-.7-.6-1.6-1.6-3-1.8s-2.6.1-3.5.3l-1.4.3.4-.2 1-.3q1.4-.4 3.6-.3c1.5.2 2.4 1.2 3 1.9l.7.8zM286.9 232l-.5-.2-1.2-.7c-.9-.7-2-2-2.3-3.8-.4-1.8.3-3.4.4-4.5s-.1-1.8-.1-1.8l.2.5.1 1.4c-.1 1.2-.7 2.7-.3 4.4a7 7 0 0 0 3.7 4.7m4.7 2.9-.1-2q-.2-2-1.8-4.3l-1.8-1.9q-1-.9-1.4-1.6l-.6-1.3-.1-.5q-.1.2.8 1.7l1.4 1.6q1 .7 1.8 1.9a8 8 0 0 1 1.8 4.4l.1 1.4zm-2.7 3-.4.1h-1q-1.4-.2-2.7-1.6t-1.8-2.6l-.6-1.2.7 1.1q.6 1.1 1.9 2.5t2.6 1.6 1.3.1m-9-20.9-.9.9q-.9.9-2.6 1.8a6 6 0 0 1-3.1.5l-.9-.3-.3-.2 1.2.3q1.3.2 3-.5c1.7-.7 1.9-1.2 2.6-1.8zm1.7 2.3-1.2.7-2.7 1.9-2.4 2.3-.9 1 .2-.3.6-.8q.8-1.1 2.4-2.4t2.8-1.9l.9-.4zm-1.6 4.9s-.5.1-1.3.6l-2.5 2.2q-1.6 1.5-3 1.7h-1l-.4-.1q0 .2 1.4 0t2.9-1.7q1.4-1.5 2.6-2.2l1-.4zm2.7-.4v.4l-.4 1q-.7 1.3-2.5 2.5c-1.8 1.2-2.2 1.4-2.8 2.1l-.9 1.1.2-.4q.1-.3.7-.8 1-1 2.8-2.1t2.5-2.4z"/><path fill="#263238" d="M277.8 236s.7-.2 1.8-.8a6 6 0 0 0 3.1-3.2 4 4 0 0 0 .1-2.4q-.5-1-1.2-1.6c-1-.6-1.8-.4-1.8-.4l.5-.1q.5 0 1.4.4a3 3 0 0 1 1.3 1.6q.5 1.2-.1 2.6a6 6 0 0 1-3.3 3.2l-1.3.5z"/><path fill="#263238" d="m279.4 232.2-.5.7a6 6 0 0 1-3.7 1.7l-.9-.1c0-.1 1.4 0 2.8-.7 1.5-.5 2.3-1.6 2.3-1.6m2.6 8.5.3-1q.3-1 0-2.5-.5-1.5-1.7-1.8l-1-.2.3-.1.8.1q1.2.3 1.8 1.8c.6 1.5.2 2 0 2.6q-.3 1-.5 1.1m3.4-1.6.2-1.1c.2-1-.2-1.1-.1-1.1 0 0 .4.5.3 1.2q-.1 1-.4 1m-6.6-.5-.8.6q-.8.6-2.2 1.1c-1.4.5-1.9.1-2.4-.2l-.6-.5-.1-.2.8.6q.8.6 2.3.1c1.5-.4 1.6-.7 2.2-1q.6-.6.8-.5"/><path fill="#e56363" d="m278.9 142.8-1.6.3v1.7s-5.3 0-5.4 7 .7 8.6 2.9 10.9 3.7 4.8 5.1 5.2 4.3 0 4.3 0l2.9-5.7-4.6-11.3z"/><path fill="#263238" d="M305 229s-.6-.6-1.6-.9q-1.6-.5-1.8-.3c-.2.2.9-.2 1.9.1s1.5 1 1.5 1.1"/><path fill="#fff" d="M284.8 126.1s-3.3-.8-3 4v4.4s-2.3.5-2.6 4l-.5 8.1s6.2 15.3 6 16.8c-.1 1.5-1.9 8.3 1.1 9.9s4.3 1.7 5.2 3.4 3.6 2.8 5.3 3.7c1.8.8 3.2 4 5.1 4.1s3.1-1.8 3.7-6 2.8-25.4-3.1-36.6-17.2-15.8-17.2-15.8" opacity=".5"/><path fill="#455a64" d="M271.6 99.1s4.8-.7 7.9-3.3 5.7-5.8 5.7-5.8l1.1-7.2 2-3.5s-.5-1.1-2.1-.9-3.5 7.2-3.5 7.2l-3.8 2.5-7 .2z"/><path fill="#455a64" d="M273.5 41.9h-2l.1 27.4.1.4a16 16 0 0 1 4 5q.5.9.4 1.8t-1.1 1.4q-.7.1-1.2-.4l-.8-1a12 12 0 0 1-1.4-5l.2 12.9.7-.1s5.5.6 7.3-1.1 2.8-3.8 3.1-4.1 4-.8 5.4-1.3a5 5 0 0 0 2.3-4.6c-.3-1.9-1-2.3-1-2.3l1-3.9c.6-1.9.8-24-17.1-25.1m10.8 29.9c-.8 1-2.3 1.2-3.5.9s-2.3-1.2-3.2-2.1a4 4 0 0 1-1.2-2.1q-.1-2 1.4-3.3 1.6-1.6 3.4-1.4c.6.2 1.6.3 2.1.7a7 7 0 0 1 1.7 3.3c.2 1.3.2 2.9-.7 4"/><path fill="#263238" d="M288.3 63.5v4q0 1.7.5 2.7c.3.7.9.7.8.7l-.3-.1-.3-.2-.3-.4q-.6-1-.6-2.8l.1-2.8z"/><path fill="#455a64" d="M271.6 97.4h5.4l1.8 2.1 1.4.8v.7h-1.8l-.4 1.8 2.7.7v.8l-1.9.4v.8l1.9 2.5v1.5l-1.2-.6-.7 1.4-1.9.5.1 5.7v5.1h-5.2z"/><path fill="#455a64" d="M272.4 107q1.1.4 2.3-.2l2-1.3q1-.7 2.2-.9m-6.2-2.8q3 .4 5.9-.5zm-.6-.5q3.3.5 6.1-1.5zm.4 10.1a7 7 0 0 0 5-1.7zm0 4.8c1.6.5 3.5.2 4.8-.9zm7.5 5.1v5.4s-3.5 4.2-3.4 6.6l1 27.8c0 .5-5.8 10.3-5.8 10.3l.1-51 4.9-1.6z"/><path fill="#455a64" d="M292 121.5c.9 2.4-.3 5.2-2.3 6.8s-10.8 3.2-13.3.9c.2 1.2-6.5-.7-.7 2.8.7.4 10.6.8 11.3.6 4.1-.9 4.8-1.8 6.7-3.9s3.1-5.1 2.4-7.9"/><path fill="#455a64" d="m283.3 137.5-7.4-2.6v2.3l7 3a13 13 0 0 0 14.3-3c2.9-3.3 4-5.9 4.3-8s-2.7-7.3-2.7-7.3l-1.6-1s1.9 1.9 1.3 5.3c-.5 2.9-2 7.6-8.2 10.8a9 9 0 0 1-7 .5"/><path fill="#455a64" d="m291.1 147.5-14.7-5.1v3.4l13.2 4.5q2.6.9 5-.4a16 16 0 0 0 6.8-5.9c2.4-4.6 3.2-4.4 3.3-7.4s-2.5-7.7-2.5-7.7 0 2.7-.8 6c-.8 3.4-3.4 9.8-10.3 12.6"/><path fill="#455a64" d="M277.9 152c0 .3 9.1 5.3 14.1 4.9s9.6-3.9 11.7-6.6 2.3-9.1 2.3-9.1l-1.4-3.2.1-.9s2.6.3 3.2 5 0 9.1-3.9 12.7-8.5 6.7-12.3 6.6-14.9-6-15.1-6.2c-.7-1.1-.8-5.1 1.3-3.2"/><path fill="#455a64" d="M276 158.2s8.5 8.5 14.7 8.1 8.2-.7 11.2-3l.4-.3c3.2-2.7 4.9-6.9 4.6-11.1l-.3-4.7.5-3.3s1.4 4.9 1.6 8.9.6 7.5-2.8 11.9-14.1 6-17.5 4.8c0 0-8.9-2.5-12.9-7.8z"/><path fill="#455a64" d="M272.5 165.2c-.6-1.4 10.4 10.7 18 13s10.5.1 13.6-2.4 3.2-4.9 4.2-6.8 0-11 0-11l-.8 3s.4 2.6-.8 6.1-5.1 6.4-10.7 6.6-17.5-6.6-19.5-10.6l-1.5-1.5z"/><path fill="#455a64" d="M282 177.3c.1.6 9.2 17.7 15.3 17.5s7.1-3.4 9.4-7.3 1.6-18.5 1.6-18.5l-1.6.8s1.1 13.6-1.8 17.7-5.1 7.6-10.3 3.3-10.4-17.3-10.4-17.3l-5.1-3z"/><path fill="#455a64" d="M283.7 177.7c.3.1 8.4 7.4 14.6 5.7s9.5-9.8 9.5-9.8l.5 4.6s-5.1 7.3-9.9 7.7-12.2-3.3-12.2-3.3z"/><path fill="#455a64" d="M288 185.9s7.9 4.6 12.2 2.3 7.5-7.7 7.5-7.4l-.5 3.3s-5.1 11.1-15 5.9zm-8.2-16.5-1.9 5.4-6.1 1.9-.2-6.1 2.4-5.5zm13.9 85.9s3.4-.5 5.2 6.4 3.2 21.5 3.2 21.5-4.3 56.8-6.3 60.2-9 5.6-7.5 10.2c1.4 4.7 3.4 6.8 3.4 6.8l15.6-2.9s2.9-5.2 1.4-7.7c-1.4-2.5-2.3-2.5-2.5-6.1s2.9-61.2 2.9-61.2l1.7-17.7s4.5-5.9 3.2-9.5-6.3-6.4-6.3-6.4l-4.2 2.7-3-4.6h-6.9l-4.2 5zM308.5 364s1.3-3-.9-3.6c-2.1-.5-17 1.6-17 1.6-.2.7-.9 2.3 0 5.4.9 3 4.3 8.8 4.3 8.8l-.2 72s-5.2 4.8-3.4 10.4c0 0 .5-2.9 6.3-1.4 5.7 1.4 8.2 2.7 8.2 2.7v-4.3l1.6-81.8s2-3.8 2-6.6-.9-3.2-.9-3.2m-4.6 87.4s-2 0-4.1-3.2 2.5-61.4 2.3-68 1.8-8.2 1.8-9z"/><path fill="#455a64" d="M293.6 460.4c-1.4.8-2.1 2.6-2.2 4.2s.4 3.3.8 4.9.8 3.2.7 4.9l-.7 3.7c-.2 2.5 1 5.1 3 6.5.9.6 2.2 1 3 .3.9-.7.8-2 .6-3.2l-2.2-13.7c1.4.8 1.6 2.7 1.8 4.4a27 27 0 0 0 4.8 12.4q.2.5.8.7c.7.2 1.3-.6 1.3-1.3s-.5-1.3-.8-1.9q-1.4-2.1-1.7-4.6-.2-.7.3-1.1c.5-.4 1.2.4 1.4 1l2.6 6q.2.7.8 1.1.8.4 1.2-.2.1-.5-.1-.9l-1.8-5.8 3.6 5 .4.4q.7.2.9-.7 0-.6-.4-1.2c-1.3-2-3-3.9-2.8-6.2l4 5.5q.4.7 1 .7.8-.2.6-.9l-.4-1.1-9.2-15.5q-1.1-2.2-3-3.8a6 6 0 0 0-7.7.3m36.5-263.9c.2.4 6.5 10.7 7.8 16.8l5 23.1s2.6 16.3 4.1 17.3 3.4.2 3.7 0-.5-3.6-.5-3.6-2.2-1.2-3.1-6.8-5.7-29.9-5.7-29.9 5.1 13.1 6.8 19.6 3.1 15.9 3.1 15.9-.9 4.7 1.1 6 5.7.1 6-.9 0-4.7 0-4.7-2.9-4-3-5-2.4-22.5-7.1-29.5-6.3-13.6-6.5-14.7c-.1-1.1-2-7.9-2-8.3.1-.4-1.7-2.5-1.7-2.5s-6.9.2-7.8 2.3c-.7 2.2-.2 4.9-.2 4.9"/><path fill="#455a64" d="M312 127.4q-1.4 4.1 2.5 6.1.8.4 1 .9c.4 1.6 7.5 33.5 9.4 38.8s3.1 8.4 2.7 13.2-2.8 6.4-.9 7.8 3.9 1 3.9 1 1-5 3.6-5c.8 0 .9-.4 1.9-.6 2.2-.3 3.3-2.7 2.2-4.6l-3.7-6.5c-2.5-4.6-5.6-7.4-6.5-12.1s-4.6-24.6-4.9-27.7 1.3-11.8-.3-14.3-3.4-2.5-3.4-2.5-4.8-1.1-6.6 4.3c.1.1-.9 1.1-.9 1.2"/><path fill="#263238" d="m312 127.4.4-.5.5-.6.4-1.1q.5-1.2 2-2.5a6 6 0 0 1 4.3-.9q1.4.2 2.5 1.3.6.5 1 1.2l.4.7.2.8q.4 3.3.1 7c-.3 3.7-.6 5.2.1 8l1.5 8.9 2.8 15 .5 2.6q.3 1.3.9 2.5 1.2 2.4 2.9 4.7c1.7 2.3 2.1 3.2 3 4.9l2.9 5.1q.4.6.6 1.4.2 1 0 1.6-.5 1.6-2.1 2.3l-.6.2-.5.1q-.5.3-1.1.4l-.6.1-.5.1-.8.6a9 9 0 0 0-1.8 3.9v.2h-.2q-2.2.2-3.9-1l-.8-.7q-.2-.5-.2-1.1.2-1 .6-1.9l1-3.6c.4-1.8.2-2.5.2-3.7q-.3-3.6-1.5-7l-1.2-3.3-1-3.3q-3.4-13.1-5.5-23l-2-8.8-.8-3.6q-.3-.7-1-1l-1.3-.8q-1-1-1.4-2.1c-.4-1.1-.2-1.3-.1-1.8zl-.3 1.5.1 1.8a4 4 0 0 0 1.3 2l1.2.8q.7.2 1.2 1.2l.8 3.6 2 8.8q2.2 9.8 5.6 23l1 3.2 1.2 3.3q1.3 3.3 1.6 7.1a16 16 0 0 1-1.2 7.5q-.4.9-.5 1.8l.1.8.6.6q1.6 1 3.5.9l-.2.2q.4-2.3 1.9-4.2l1-.8.6-.2.6-.1 1-.4.6-.1.5-.1a3 3 0 0 0 1.8-1.9v-1.3l-.6-1.3-2.9-5.1q-1.3-2.5-3-4.8a34 34 0 0 1-2.9-4.8l-1-2.6-.5-2.7-.9-5.2-1.8-9.8-1.5-8.9-.3-2.1V137l.3-3.9q.4-3.8 0-6.9-.4-1.5-1.4-2.5-1-1.1-2.3-1.2-2.5-.4-4.1.8c-1.6 1.2-1.6 1.6-2 2.4l-.4 1-.6.6z"/><path fill="#455a64" d="m364 255.3-3.6-1.9s-5.7-5.7-11.9.2c0 0-2.1 4.3-.5 6.4s1.2 3.4 4.1 2.7 6.3-3 7.1-3.2l3-1.1c.4-.1 2.4-.1 2.4-.5z"/><path fill="#455a64" d="M348.5 260.7s1.5 28.8 2.5 29.6 1.2.3 1.4-1.2c.2-1.4-.1-3.1-.1-4.7l.1-9.9c0-1.8-1.5-7.9-1.4-9.5s-.2-3.4 0-3.7-2.5-.6-2.5-.6m4.1 1.8 4.3 24.7s1.7 8.9 3.2 8.3c1.7-.8 1-3.2.2-8.1-.3-1.8-1.2-6.7-1.1-8.9s-2.4-8.7-3.2-12.9l-1.1-5.5zm3.3-2.3s5.3 17.6 7.8 22.1c2.4 4.4 4.2 11.2 5.5 10.7s1.2-2.6 0-4.6c-1.2-2.1-5.7-13.7-6.7-15.9l-5.7-14zm2.3-1.8c.2.6 7.6 12.9 10.3 17.5s7.1 14.4 8.6 13.3c1.4-1.1 0-4 0-4l-16.7-27.3c-.1-.4-2.2.5-2.2.5m3.5-1c.4.9 9.4 5.1 10.3 6.8s7.7 9.4 8.4 9.7c.6.3 1.5-.7 0-3.1s-5-8.9-7.4-10.6c-2.5-1.8-10.1-5-10.1-5l-.5 2.2"/><path fill="#e56363" d="M271.7 61.9c.5.8 2.5 1.2 3.3 1.3q1.3.1 2.6-.3 1-.3 1.8-1 1-1 .6-2 .3-.5.2-1 1.4.4 2.1-.9.5.8 1.3.5 1-.4.8-1.3c1-.2 1.6-1.7 1-2.7a2 2 0 0 0-.4-2.1c.4-.5.2-1.5-.3-1.8.2-.7-.3-1.5-.9-1.4q.2-.8-.3-1.5-.6-.5-1.3-.1c-.3-2-2.1-3.5-3.8-3.3a4 4 0 0 0-4-.8c-1.6-1.1-2.4-.5-2.4-.5"/><path fill="#fff" d="M271.7 61.9c.5.8 2.5 1.2 3.3 1.3q1.3.1 2.6-.3 1-.3 1.8-1 1-1 .6-2 .3-.5.2-1 1.4.4 2.1-.9.5.8 1.3.5 1-.4.8-1.3c1-.2 1.6-1.7 1-2.7a2 2 0 0 0-.4-2.1c.4-.5.2-1.5-.3-1.8.2-.7-.3-1.5-.9-1.4q.2-.8-.3-1.5-.6-.5-1.3-.1c-.3-2-2.1-3.5-3.8-3.3a4 4 0 0 0-4-.8c-.7-.6-1.8-.9-2.4-.5" opacity=".3"/><path fill="#263238" d="M275.4 59.4c.1 0-.4.5-1.2.4-.7-.2-1-.8-.9-.8s.4.5 1 .6 1.1-.3 1.1-.2"/><path fill="#263238" d="M271.7 56s.1-.2.4-.3q.4-.4 1.3-.4l.9.1.9.6q.9.7 1.5 1.9c.6 1.1.4 2.6-.5 3.1l-.1-.2q.8 0 1.1.6.4.8.1.9l-.5.7c-.1 0 .3-.2.4-.7q.2-.4-.1-.8a1 1 0 0 0-.9-.5l-.5.1.4-.2c.8-.5 1-1.9.4-2.9-.9-1.4-2-2.7-3.2-2.6-1.1 0-1.6.7-1.6.6"/><path fill="#263238" d="m280 59-.3-1.1q-.3-1-1.6-2-1.4-.8-2.5-.5l-1 .3.2-.2.8-.3q1.1-.4 2.6.5c1.5.9 1.4 1.5 1.6 2.2l.2.8zm-.1.9q0 .2-.9.8-1 .2-1.2.1l1.1-.3zm-1.2-1s0 .2-.2.3-.5 0-.8-.1q-.9-.4-.9-.7l1 .5q.4.2.7.1zm6.6-4s-.6 0-1.1.7l-.1.1v-.1q-.2-.5-1-.6-1 0-1.1.9l-.2.3v-.3q0-.7-.5-1.2-.6-.7-1.3-.5l-.7.3-.1.1v-.2q-.3-1.3-1.6-1.5-1.2-.2-1.6.7-.4.7-.2 1.2a2 2 0 0 1 .1-1.3q.5-1 1.8-.8l1.1.5q.5.4.6 1.2l-.2-.1q.3-.3.8-.3 1 0 1.4.6.5.8.6 1.3h-.2q.5-.8 1.3-1 .8 0 1.1.7h-.1c.6-.8 1.3-.7 1.2-.7"/><path fill="#263238" d="m280.3 58.5.5-.2.7-1 .5-1.7q.2.2-.4 1.8-.3.8-.8 1.1zm-8.6-4.6s.3-.3.8-.1.5.7.5.7l-.5-.5zm1.5-2.6-.6-.8-.7-.7s.5.2.9.6zm-1.6-3.4.1-.3q.2-.3.9-.1l-.1.1q-.3-.5-.1-1.2t1.2-.9c1-.2 1.2.3 1.5.8q.6.8.7 1.8.1.4-.2.9t-.9 0l.2-.1q.4 1.3-.8 1.8v-.2q.9.6.7 1.5l-.1-.1q.5-.1.8.2l.4.5a1 1 0 0 0-1.1-.6h-.1v-.1q.2-.7-.6-1.3l-.2-.1.2-.1q.9-.5.6-1.6l.2-.1q.3.3.5 0 .3-.4.1-.8-.1-1-.7-1.7t-1.4-.7q-1 .1-1 .8-.2.6 0 1.1l.1.1h-.1q-.6-.2-.8 0z"/><path fill="#263238" d="M273.3 46.9h.5q.5.2.9.8.4 1.4.3 1.6l-.5-1.5q-.3-.6-.7-.7zm-.9 2.2c0-.1.7-.1 1.2.4s.6 1.2.5 1.2-.2-.6-.7-1zm1.9 5.3s-.4-.5-.2-1.3c.2-.7.8-1 .8-1s-.4.4-.6 1zm3.1.9-.2-.6-.2-.6.4.5zm3 .6q.2 0-.4.6-.6.4-.7.2l.5-.4zm-.3-2s.2-.4.2-1.1-.2-1.8-1.2-2.5h-.1v-.1q.1-.7-.2-1.4-.4-.9-1-.7h-.1V48q0-1-.5-1.5T276 46q-1.2.3-1.1.5c.1.2.3-.5 1.1-.6q.6 0 1.3.5c.7.5.6 1 .6 1.7l-.1-.1q.8.2 1.1.8.5.8.3 1.5v-.1c1.1.8 1.3 2 1.2 2.7z"/><path fill="#263238" d="M275.8 50.9c-.1 0 .5-.8 1.5-1s1.8.3 1.8.3c0 .1-.8-.3-1.7-.1-1 .3-1.6.9-1.6.8m.7-2.2q-.1-.1.4-.6.6-.2.7-.1l-.6.2zm8 2.1-.3-.1q-.4 0-.7.2l-.1.1-.1-.1q-.3-.6-1.1-1.1a2 2 0 0 0-1.9.2l-.6.5.6-.6a2 2 0 0 1 2-.2q.9.5 1.2 1.2h-.1q.5-.4.9-.2zm-2.5 3.9c-.1 0 .4-.7.4-1.6s-.5-1.5-.4-1.6.6.6.7 1.5a3 3 0 0 1-.7 1.7"/><path fill="#263238" d="M284.8 52.6s-.4.4-1.1.5-1.2-.2-1.2-.2h1.2zm-5.7-3.6.4-.7q.4-.7 0-1.8-.4-.6-1-.8h-.1v-.1q0-.6-.2-.9.4.3.3 1l-.1-.1q.7.2 1.1.9.4 1.2 0 2zm-6.7-2.5-.4-.3-.3-.4.4.3zm4.5-.5s0-.4-.3-.9q-.2-.4-.7-.6-.6-.2-1.2-.1l-1.1.4h-.1c-.8-.8-1.7-.7-1.7-.8h.6q.6 0 1.3.6h-.1l1.2-.4q.6-.2 1.3.1c.7.3.6.4.8.7zm3.8 2.2c0-.1.9-.1 1.6.7l.4.6h-.1q1-.3 1-.1c0 .2-.4-.1-.9.2l-.1.1-.1-.1-.4-.6c-.6-.7-1.4-.8-1.4-.8"/><path fill="#263238" d="m281.3 48.2-.5-.9-.6-.8.7.7q.6.9.4 1m-7.5 10c.1 0-.1.7-.7 1.2s-1.4.4-1.3.4l1.2-.5z"/><path fill="#455a64" d="M278.8 117.5c-2.8.1-2.8 4.3 0 4.4h.3l33.6-1.1a3 3 0 0 0 2.9-3l-.1-.7c-.5-1-2.7-1.4-3.7-1.2-1 .4-24.8 1.3-33 1.6"/><path fill="#263238" d="m278.8 117.5.8-.1 2.4-.1 8.9-.4 13.2-.6 3.8-.2 3.9-.3q1-.1 2.1.2c1.1.3 1.4.6 1.7 1.4a3 3 0 0 1-2.2 3.6l-1.1.2h-1.1l-2.1.1-4.1.1-7.8.2-13.2.4-5.1.1q-1.2 0-2-.8-.6-.9-.5-1.7.3-1.7 1.4-1.9l.6-.1zl-.2.1-.6.2a2 2 0 0 0-1.2 1.8q0 .8.5 1.5.7.8 1.8.6l5.1-.2 13.2-.5 7.8-.3 4.1-.1 2.1-.1 2.1-.2c1.3-.4 2.1-1.8 1.8-3q-.4-.8-1.4-1.1c-1-.3-1.3-.3-1.9-.2l-4 .3-3.8.2-13.2.5-8.9.3h-2.4z"/><path fill="#263238" d="M276.6 118.9s0 .5.3 1.3q.2.7 1 1.2t2.1.3h.2v5L278 130q-.6.9-.8 1.9l-.2 2.2.6 21.2.1 4.9a8 8 0 0 1-1.1 4.1l-1.9 3q-.9 1.3-1.2 2.3-.6 2-.4 2.2v-.6l.3-1.7q.3-1 1.1-2.4c.8-1.4 1.2-1.8 1.8-3q1-1.7 1-4t-.1-4.8l-.4-11.1-.3-10.1q0-1.2.2-2.3.3-1.2.9-2.1l2.3-3.2v.1-4.8l.2.1q-1.3.2-2.2-.4c-.9-.6-.9-.9-1-1.3q-.4-1.2-.3-1.3m0-3.7c.1.1-.9.9-2.4 1-1.5.2-2.7-.3-2.6-.4 0-.1 1.2.1 2.5-.1 1.4-.1 2.5-.6 2.5-.5m.4-4.4c.1.1-.8 1-2.4 1.4s-2.8 0-2.7-.2 1.2 0 2.6-.3c1.4-.4 2.4-1.1 2.5-.9m1.6-6.1-.9.6-.9.8-1.3.8q-1.6.7-2.7.6l-1.1-.2c0-.2 1.8 0 3.6-.9l1.3-.7 1-.7zm.2-5.2-.8.9q-1 .7-2.5 1.3c-1.5.6-2 .5-2.8.5q-1.1 0-1.2-.3c-.1-.3.4 0 1.1-.1s1.6-.3 2.6-.7 1.9-.7 2.5-1.1q1.2-.4 1.1-.5m51.4 81.6q.2 0 .9 1.5a9 9 0 0 1 1.1 4.1c.1 1.7-.6 3.2-1.3 4.1s-1.4 1.1-1.4 1 .6-.4 1.2-1.3q1-1.3 1.1-3.8a13 13 0 0 0-1-4zm11.4 35.3c-.1 0 .3-1.2.1-3.2s-1.1-4.6-2.5-7.3a24 24 0 0 1-2.6-7.4v-2.4l.2-.9c.1 0-.2 1.3.2 3.2q.6 3 2.7 7.3 2.2 4.3 2.4 7.5.1 1.6-.2 2.4-.2.9-.3.8m19.2 38.3c-.1.1-.5-.9-1.8-1.8q-1-.7-2.5-1a3 3 0 0 0-1.6.1 2 2 0 0 0-1.3.9l-.1.3-.1.3-.3-.1q-1.7-.6-3 .1t-1.9 1.6c-.8 1.3-.7 2.3-.8 2.3l-.1-.7q0-.7.5-1.8c.5-1.1 1-1.4 2-1.9q1.5-.7 3.4-.1l-.2.1.2-.5q.6-1 1.6-1.1t1.8 0q1.7.4 2.6 1.2t1.3 1.5zm1.8 2.6-1 .9a6 6 0 0 1-3.3.8l.3-.2a2.6 2.6 0 0 1-4.1 2.1l.4-.1a4 4 0 0 1-3.7 1.8q-1.6-.3-1.6-.6c0-.3.6.2 1.6.2a4 4 0 0 0 3.3-1.8l.1-.2.2.1q.8.4 1.7.3c1-.2 1.6-1.2 1.6-2v-.3h.3q2 0 3.1-.6zm-57.9 8.8c-.2 0 .3-3.3 0-7.3-.4-4-1.3-7.2-1.1-7.3q.2 0 .7 2.1a32 32 0 0 1 .8 10.5zm-5.5 92.2 1.2.2q1.6.2 2.8-1.5a9 9 0 0 0 1.3-4.7q0-1.5-.8-2.6c-.8-1.1-1.6-1.1-2.7-1.2q-1.6 0-3 .5c-1.4.5-1.8.8-2.3 1.5s-.6 1.6-.5 2.4.4 1.5.7 2.2q1 1.9 2 2.6l1 .8-1.1-.6a9 9 0 0 1-2.2-2.6q-.5-1-.7-2.3-.3-1.3.5-2.8c.8-1.5 1.6-1.4 2.6-1.7s2.1-.6 3.2-.5 2.3.5 3 1.4.9 2 .9 3q0 3-1.5 4.9c-1.5 1.9-2.3 1.5-3.1 1.5l-.9-.2zm9.3 5.7-1.1 1.6q-1.2 1.5-2.7 3.8c-1.8 3.1-2.2 6.2-2.4 6.1l.2-2a18 18 0 0 1 4.5-8.2zm-6.5 94c0-.1.8-.2 1.1-1.3q.3-1.6-1-4.1l-2-3.9q-.7-1.6-.6-1.7t1 1.6l2.2 3.9.9 2.3q.3 1.1 0 2.1c-.3 1-.6.9-.9 1.1zM283.9 73.2l-.4.3q-.5.3-1.3.4c-1.2.2-3 0-4.4-1.2a5 5 0 0 1-1.3-5.7l.2-.5q-.2 0-.4 1.8a5 5 0 0 0 1.6 4.1c1.3 1.2 3.1 1.4 4.2 1.3s1.8-.6 1.8-.5m-8.6-1 .2.4.6 1.1.9 1.7q.4 1 .1 2.3c-.3 1.3-1.2 1.2-1.9 1.3s-1.4-.2-1.8-.6q-.6-.5-.8-1l-.2-.4 1.1 1.3q.6.5 1.7.5t1.7-1.2q.4-1.1-.1-2.2l-.8-1.7-.6-1.1z"/><path fill="#263238" d="M271.5 470.8v-16.6l-.1-48.4-.1-159.6.1-159.6.1-48.4V25v13.2l.1 48.4.1 159.6-.1 159.6-.1 48.4z"/><path fill="#a3a3a3" d="m435.7 391.3-.1-.6-.1-1.9-.1-1.4-.3-1.6-.3-1.9-.5-2.2q-1-4.6-4.4-10.5a30 30 0 0 0-10-11.1l-1.7-1.3-1.8-1.1-1.9-1.1-2-1-1-.5-1.1-.4-2.2-.8-2.3-.6q-1.2-.4-2.4-.5-2.4-.4-5-.6l-2.6-.1-2.6.1-1.3.1-1.3.2-2.6.4q-2.6.6-5.2 1.5t-5.1 2.2l-2.4 1.5-1.2.8-1.2.9q-2.3 1.8-4.5 3.8-2 2.2-3.8 4.5l-.9 1.2-.8 1.3-.8 1.3-.7 1.3-1.3 2.8-1.1 2.9a39 39 0 0 0 0 24.8l1.1 2.9 1.3 2.8.3.7.4.7.8 1.3.8 1.3.9 1.2q1.8 2.5 3.8 4.5 2.2 2 4.5 3.8l1.2.9 1.2.8 2.4 1.5q2.5 1.3 5.1 2.2t5.2 1.5l2.6.4 1.3.2 1.3.1 2.6.1 2.6-.1q2.5 0 5-.6l2.4-.5 2.3-.6 2.2-.8 1.1-.4 1-.5 2-1 1.9-1.1 1.8-1.1 1.7-1.3a39 39 0 0 0 14.4-21.6l.5-2.2.3-1.9.3-1.6.1-1.4.1-1.9zv.6l-.1 1.9-.1 1.4-.2 1.7-.3 1.9-.5 2.2a40 40 0 0 1-14.3 21.9l-1.7 1.3-3.8 2.3-2.1 1-1 .5-1.1.4-2.2.8-2.3.6-2.4.6q-2.4.4-5 .6l-2.6.1-2.6-.1-1.3-.1-1.3-.2-2.7-.4q-2.7-.6-5.3-1.5-2.7-1-5.2-2.3l-2.5-1.5-1.2-.8-1.2-.9q-2.3-1.7-4.5-3.8-2-2.1-3.9-4.6l-.9-1.2-.8-1.3-.8-1.3-.4-.7-.3-.7-1.4-2.8-1.1-2.9q-2-6-2.1-12.5.2-6.5 2.1-12.5l1.1-2.9 1.4-2.8.7-1.4.8-1.3.8-1.3.9-1.2q1.9-2.4 3.9-4.6 2.2-2 4.5-3.8l1.2-.9 1.2-.8 2.5-1.5q2.5-1.3 5.2-2.3 2.6-1 5.3-1.5l2.7-.4 1.3-.2 1.3-.1 2.6-.1 2.6.1q2.6.1 5 .6l2.4.6 2.3.6 2.2.8 1.1.4 1 .5 2.1 1 1.9 1.1 1.9 1.2 1.7 1.3q6.7 5.3 10 11.3c3.3 6 3.7 7.5 4.3 10.6l.5 2.2.3 1.9.2 1.7.1 1.4.1 1.9z"/><path fill="#e56363" d="m416.3 377.9-.5-.6-.6-.6a9 9 0 0 0-9.5-1.8c-2.8.9-4.2 2.3-4.7 2.6-1.8.8-2.8-4.7-2.5-7.1l-.4-.4-.3-.2q-.6-.3-1.4-.3h-.5a2 2 0 0 0-1.4.9c-.3 1.7-.4 6.6 2 9.9 1.9 3.1 1.5 6.8 1.3 8.6q-.2 2.9-.8 5.7c-.5 3-2.4 4.7-4.2 4.2l-2.3-1.1q-1-.4-1.9-.4c-1.7-.1-3.3.3-5-.2l-4.2-1.5c-5.7-1.3-7.3 5.8-6.2 10q1.1 4.1 4.7 6.5l1.1-.8 1.3-1.7q.4-.6.6-1.3l.2-.8-.1-.1q.3.1 0-.2l-1.5-1.6c-.6-.7-1.5-2-.9-2.9 1-1.7 3.2 0 4.4.6q.6.3 1.3.4c.8.1 1.7-.4 1.9.7l.1 1.6q0 1 .4 1.7c1.8 4.7 7.2 5.9 11.7 5.2a25 25 0 0 0 20.2-19c1.1-5 1.3-11.8-2.3-16"/><path fill="#263238" d="m416.3 377.9.3.3.7.9q1 1.2 1.7 4.1c.7 2.9.6 4.3.3 7a28 28 0 0 1-5.5 13.7q-1.8 2.3-4.2 4.3a24 24 0 0 1-12.2 5.1q-3.7.4-7.2-1.2c-3.5-1.6-4.1-3.4-4.3-6.1q.1-1-.2-1.8-.4-.4-1.7-.2c-1.4-.2-2.5-1.2-3.7-1.6q-1-.4-1.6.3-.5.6-.1 1.6t1.2 1.6l.7.7.4.4.2.2.1.1v.2l-.2.2-.3-.1.3-.4.1.1.1.1v.1q-.3 1.5-1.2 2.7t-2.2 2.1l-.1.1-.1-.1a11 11 0 0 1-4.6-12.8q.5-1.7 1.7-3.1c1.2-1.4 2-1.3 3.2-1.3 2.4 0 4.3 1.5 6.4 1.8q1.5.1 3.2 0c1.7-.1 2.2 0 3.2.5s1.8 1.2 2.8 1.1q1.4-.3 2.2-1.6c.8-1.3.8-1.8.9-2.8l.5-2.9q.4-3 .4-5.7-.1-2.9-1.4-5.2-1.6-2.4-2-5c-.4-2.6-.3-3.4 0-5q.4-.6 1-.9t1.3-.2 1.2.3q.6.2 1 .7v.1q-.1 2.9.7 5.5.2.6.6 1.1t.9.4l2-1.3q2.1-1.2 4.1-1.6a9 9 0 0 1 8.2 2.1zl-1.2-1.3a8 8 0 0 0-4.5-2.1q-1.7-.3-3.6.1c-1.9.4-2.7.8-4 1.6l-1 .7-1.1.7-.4.1-.4-.1-.3-.2-.2-.3q-.5-.6-.6-1.2-1-2.6-.8-5.6v.1q-.2-.4-.8-.6l-1.1-.2c-.7 0-1.6.1-1.9.8q-.4 2.3.1 4.9c.5 2.6.9 3.4 1.9 4.8q1.4 2.5 1.5 5.4l-.1 2.9-.3 2.9-.5 3q-.1 1.5-1 3t-2.6 1.9c-1.2.1-2.2-.7-3-1.1-1.8-1-4.1-.2-6.3-.5-2.3-.4-4.1-1.8-6.3-1.8q-1.7 0-2.9 1.2c-1.2 1.2-1.3 1.8-1.6 2.8a11 11 0 0 0 4.4 12.2h-.3q1.2-.8 2-2 1-1.2 1.1-2.4l.1.2-.1-.1-1.3-1.2 1.6.8v.2h-.2l-.1-.1-.4-.4-.7-.8q-.7-.8-1.2-1.7l-.3-1.1q0-.8.4-1.1.4-.5 1-.5l1.1.1c1.3.4 2.4 1.4 3.6 1.6h.9q.6 0 1.1.5.4 1 .2 2a7 7 0 0 0 4.1 5.7q3.4 1.5 6.9 1.2a23 23 0 0 0 12-4.9q2.4-2 4.2-4.2t2.9-4.6a28 28 0 0 0 2.4-15.9q-.7-2.8-1.6-4.1z"/><path fill="#263238" d="m407.3 407.2-.7.6-2.1 1.4a16 16 0 0 1-7.9 2.6 10 10 0 0 1-7.7-3q-1-1.3-1.4-2.2c-.4-.9-.3-.9-.2-.9s.4 1.3 1.9 2.8q1 1.2 3 2c2 .8 2.8.8 4.4.7a18 18 0 0 0 7.8-2.4zm7.5-9.4q0 .4-1.4 2.8c-1.4 2.4-1.7 2.6-1.9 2.5s.5-1.3 1.4-2.8 1.8-2.6 1.9-2.5"/><path fill="#fff" d="m413.2 378.4-1.5-1a8 8 0 0 0-4-1.2q-2.5.1-4 1c-1.5.9-1.4 1-1.5.9l1.3-1.3c.9-.6 2.5-1.3 4.2-1.2a7 7 0 0 1 4.2 1.4q1.5 1.3 1.3 1.4m-33.7 18.9-.9.1-2 .2c-1.2.2-1.3.7-1.5 1.1l-.4.8q-.2 0 .1-.9t1.7-1.5c1.4-.5 1.7-.2 2.2-.1z"/><path fill="#e56363" d="m450.5 291.1-3-1.1c-1.7-.7-2.7-2.2-3.3-3l-.6.5c.4 1.3 2.1 2.4 2.1 2.4s-1.8-.3-3.1-.2l-.5.1-.1.4-.1.4c.8 0 2.3 0 3.4.5 1.6.7 4.1 2.3 4.1 2.3s.3 0 .7-.8l.1-.2z"/><path fill="#e0e0e0" d="M445.6 294.2c-1.6-3.3-4.4-3.5-4.4-3.5l-.5 3.1-.1.8s4.3 1.1 4.8 4.2c.5 3.2-.4 12-.4 13.4q.3.4.6.4c.4 0 .6-.5.6-.5l.1-6.1c0-2.7.9-8.5-.7-11.8"/><path fill="#455a64" d="M449.1 293q-.3-1.3-.4-1.2l-3.1.5c-1.8.2-3.4-.5-4.3-1l-.3.8c1 .9 3 1.1 3 1.1s-1.7.7-2.8 1.4l-.4.3.3.8.2-.1.1-.2.4-.2.1-.1v.1q1.1-.6 2.4-.9c1.7-.2 4.7-.1 4.7-.1s.3-.2.1-1.2"/><path fill="#e56363" d="M446.7 279.2q-.2-1-.6-1.9c-.4-.9-.7-1.1-1.1-1.6q-.8-.7-1.8-1.2l-.9-.3c-6.9-1.8-13 7-15.7 11.2a21 21 0 0 0 1.3 23.9l.4.5a11 11 0 0 0 2.8 2.7l.8.5q-.4-.1 0 .1c6 2.7 11.6-1.2 12.6-7.5.5-3.5-.7-7.3-2.1-10.5l-.9-2c-.4-.7 0-.8.5-1.5q.9-1.3.3-3.1 1.1 0 2-.7a7 7 0 0 0 2-3.3q1-2.7.4-5.3"/><path fill="#263238" d="m446.7 279.2.2.8q.2.8.1 2.3a9 9 0 0 1-.9 3.6q-.4 1-1.3 2t-2.5 1l.2-.2q.8 1.6-.4 3.4l-.5.7q-.1.3.2.7l.8 1.7q1.7 3.6 2.3 8.2c.2 3-.8 6.5-3.4 8.9q-1 .9-2.2 1.5t-2.6.7c-1.4.2-1.8 0-2.7-.1l-1.3-.4-.6-.2-.3-.1-.1-.1-.1-.1s-.1-.1 0-.2l.2-.2h.3l-.2.5-2.3-1.7-1-1.1-.9-1.1q-3.2-4.6-4.1-9.8a22 22 0 0 1 .8-9.9c1-3 2.8-5.6 4.5-7.8s3.5-4.2 5.4-5.7 4-2.4 6-2.4q3 0 4.6 1.5c1.6 1.5 1.5 2 1.7 2.7zl-.3-1.1a5 5 0 0 0-1.7-2.5q-1.6-1.4-4.5-1.4-2.9.1-5.8 2.4c-2.9 2.3-3.6 3.4-5.3 5.6-1.6 2.3-3.4 4.7-4.3 7.7q-.7 2.3-.9 4.7c-.2 2.4 0 3.3.2 5a24 24 0 0 0 4.9 10.7l.9 1q1 1 2.2 1.6l1.9 1-2.1-.5h-.1v-.2l.1-.1.3.1.6.2 1.3.4q1.3.2 2.6.1t2.4-.7c1.1-.6 1.5-.8 2-1.4 2.5-2.2 3.4-5.5 3.2-8.5s-1.2-5.7-2.2-8.1l-.8-1.7q-.3-.4-.2-1l.6-.7a3 3 0 0 0 .3-3l-.1-.2h.2q1.4 0 2.3-.9c.9-.9 1-1.2 1.3-1.9q.9-2 1-3.5V280q.2-.6 0-.8"/><path fill="#263238" d="M437.1 286q0-.2 1-.2c1 0 1.4.2 2.2.6s1.4 1.1 1.7 1.5l.4.9c-.1.1-.9-1.2-2.4-2-1.5-.7-2.9-.6-2.9-.8m-.2 8.2q-.2 0 .4-.7.5-.6 1.6-1c1.4-.5 2.6 0 2.6.1 0 .2-1.1 0-2.4.4-1.4.4-2.1 1.3-2.2 1.2"/><path fill="#fff" d="m432.1 310.5-.3-.2-.9-.6a12 12 0 0 1-2.6-2.8 20 20 0 0 1-3.1-12.2 23 23 0 0 1 7-14.7l1-1c.1.1-1.4 1.5-3.2 4.1s-4 6.7-4.3 11.6 1.1 9.3 2.9 12 3.6 3.7 3.5 3.8m9.6-35.1c0 .2-1.7.2-3.6.8s-3.3 1.7-3.4 1.6 1.2-1.4 3.2-2.1c2.1-.7 3.9-.4 3.8-.3m-2.2 10.1q-.2.1-1.3-.1-1.5-.1-1.3-.2.1-.3 1.4-.4 1.3.3 1.2.7m-2.3 6.5-.6.6q-.5.5-.7.4-.2-.2.4-.8c.6-.6.8-.3.9-.2"/><path fill="#e56363" d="m454 291.1 3-1.1c1.7-.7 2.7-2.2 3.3-3l.6.5c-.4 1.3-2.1 2.4-2.1 2.4s1.8-.3 3.1-.2l.5.1.1.4.1.4c-.8 0-2.3 0-3.4.5-1.6.7-4.1 2.3-4.1 2.3s-.3 0-.7-.8l-.1-.2z"/><path fill="#e0e0e0" d="M458.9 294.2c1.6-3.3 4.4-3.5 4.4-3.5l.5 3.1.1.8s-4.3 1.1-4.8 4.2c-.5 3.2.4 12 .4 13.4q-.3.4-.6.4c-.4 0-.6-.5-.6-.5l-.1-6.1c0-2.7-.9-8.5.7-11.8"/><path fill="#455a64" d="M455.3 293q.3-1.3.4-1.2l3.1.5c1.8.2 3.4-.5 4.3-1l.3.8c-1 .9-3 1.1-3 1.1s1.7.7 2.8 1.4l.4.3-.3.8-.2-.1-.1-.2-.4-.2-.1-.1v.1q-1.1-.6-2.4-.9c-1.7-.2-4.7-.1-4.7-.1s-.2-.2-.1-1.2"/><path fill="#e56363" d="M457.7 279.2q.2-1 .6-1.9c.4-.9.7-1.1 1.1-1.6q.8-.7 1.8-1.2l.9-.3c6.9-1.8 13 7 15.7 11.2a21 21 0 0 1-1.3 23.9l-.4.5-1.4 1.6-1.4 1.1-.8.5q.4-.1 0 .1c-6 2.7-11.6-1.2-12.6-7.5-.5-3.5.7-7.3 2.1-10.5l.9-2c.4-.7 0-.8-.5-1.5q-.9-1.3-.3-3.1-1.1 0-2-.7a7 7 0 0 1-2-3.3 10 10 0 0 1-.4-5.3"/><path fill="#263238" d="m457.7 279.2-.1.8v2.3q.1 1.5 1 3.5.4 1 1.3 1.9t2.3.9h.2l-.1.2q-.6 1.6.3 3l.6.7q.1.6-.2 1l-.8 1.7q-1.7 3.6-2.2 8.1c-.2 2.9.8 6.3 3.2 8.5q1 .9 2 1.4 1.2.5 2.4.7c1.2.2 1.7 0 2.6-.1l1.3-.4.6-.2.3-.1v.2l.1.2-.2-.5q1.1-.6 2.2-1.6l.9-1 .9-1.1q3.1-4.5 4-9.6a21 21 0 0 0-.7-9.7c-1-3-2.7-5.4-4.3-7.7q-2.5-3.4-5.3-5.6c-2.8-2.2-3.9-2.4-5.8-2.4q-3 0-4.5 1.4c-1.5 1.4-1.5 1.9-1.7 2.5zl.2-1.1q.2-1.1 1.7-2.7 1.6-1.5 4.6-1.5 3 .1 6 2.4c3 2.3 3.7 3.4 5.4 5.7s3.4 4.8 4.5 7.8a24 24 0 0 1 1 4.8 23 23 0 0 1-4.3 14.9l-.9 1.1-1 1.1q-1 1-2.3 1.7l-.2-.5h.3l.2.2v.2l-.1.1-.1.1-.3.1-.6.2-1.3.4q-1.4.3-2.7.1c-1.3-.2-1.8-.4-2.6-.7q-1.2-.6-2.2-1.5c-2.6-2.3-3.6-5.8-3.4-8.9s1.2-5.8 2.3-8.2l.8-1.7q.3-.4.2-.7l-.5-.7q-1-1.7-.4-3.4l.2.2q-1.5 0-2.5-1c-1-1-1-1.3-1.3-2a11 11 0 0 1-.8-5.9z"/><path fill="#263238" d="M467.4 286c0 .2-1.5.1-2.9.9-1.5.8-2.2 2.1-2.4 2q-.2 0 .4-.9.5-.8 1.7-1.5c1.2-.7 1.6-.6 2.2-.6zm.2 8.2c-.1.1-.8-.8-2.1-1.2s-2.4-.3-2.4-.4 1.1-.5 2.6-.1q1.1.4 1.6 1z"/><path fill="#fff" d="M472.4 310.5c-.1-.1 1.8-1.1 3.5-3.8 1.8-2.7 3.2-7.1 2.9-12s-2.5-9-4.3-11.6c-1.8-2.7-3.3-4-3.2-4.1l1 1 2.5 2.9c1.9 2.6 4.2 6.7 4.5 11.8.3 5-1.2 9.5-3.1 12.2a12 12 0 0 1-3.5 3.4zm-9.6-35.1c0-.1 1.8-.4 3.8.3s3.3 2 3.2 2.1-1.4-.9-3.4-1.6c-1.9-.7-3.6-.7-3.6-.8m2.2 10.1q0-.3 1.3-.6c1.3-.3 1.4.2 1.4.4l-1.3.2zm2.3 6.5q.1-.2.9.2c.8.4.5.8.4.8l-.7-.4q-.7-.4-.6-.6"/><path fill="#a3a3a3" d="m491.4 293-.1-.6-.1-1.9-.1-1.4-.3-1.6-.3-1.9-.5-2.2q-1-4.7-4.4-10.5a30 30 0 0 0-10-11.1l-1.7-1.3-1.8-1.1-1.9-1.1-2-1-1-.5-1.1-.4-2.2-.8-2.3-.6q-1.2-.4-2.4-.5-2.4-.4-5-.6l-2.6-.1-2.6.1-1.3.1-1.3.2-2.6.4q-2.6.6-5.2 1.5t-5.1 2.2l-2.4 1.5-1.2.8-1.2.9q-2.4 1.8-4.4 3.8-2 2.2-3.8 4.5l-.9 1.2-.8 1.3-.8 1.3-.7 1.3-1.3 2.8-1.1 2.9a39 39 0 0 0 0 24.8l1.1 2.9 1.3 2.8.3.7.4.7.8 1.3.8 1.3.9 1.2q1.8 2.5 3.8 4.5 2.2 2 4.5 3.8l1.2.9 1.2.8 2.4 1.5q2.6 1.3 5.1 2.2 2.6 1 5.2 1.5l2.6.4 1.3.2 1.3.1 2.6.1 2.6-.1q2.5 0 5-.6l2.4-.5 2.3-.6 2.2-.8 1.1-.4 1-.5 2-1 1.9-1.1 1.8-1.1 1.7-1.3a39 39 0 0 0 14.4-21.6l.5-2.2.3-1.9.3-1.6.1-1.4.1-1.9zv.6l-.1 1.9-.1 1.4-.2 1.7-.3 1.9-.5 2.2a40 40 0 0 1-14.3 21.9l-1.7 1.3-3.8 2.3-2.1 1-1 .5-1.1.4-2.2.8-2.3.6-2.4.6q-2.4.5-5 .6l-2.6.1-2.6-.1-1.3-.1-1.3-.2-2.7-.4q-2.7-.6-5.3-1.5-2.7-1-5.2-2.3l-2.5-1.5-1.2-.8-1.2-.9q-2.3-1.7-4.5-3.8-2-2.1-3.9-4.6l-.9-1.2-.8-1.3-.8-1.3-.5-.8-.3-.7-1.4-2.8-1.1-2.9q-2-6-2.1-12.5.2-6.5 2.1-12.5l1.1-2.9 1.4-2.8.7-1.4.8-1.3.8-1.3.9-1.2q1.9-2.4 3.9-4.6 2.2-2 4.5-3.8l1.2-.9 1.2-.8 2.5-1.5q2.5-1.3 5.2-2.3 2.6-1 5.3-1.5l2.7-.4 1.3-.2 1.3-.1 2.6-.1 2.6.1q2.6.2 5 .6l2.4.6 2.3.6 2.2.8 1.1.4 1 .5 2.1 1 1.9 1.1 1.9 1.2 1.7 1.3q6.7 5.3 10 11.3c3.3 6 3.7 7.5 4.3 10.6l.5 2.2.3 1.9.2 1.7.1 1.4.1 1.9zm-3.5-131.3-.1-.6-.1-1.9-.1-1.4-.3-1.6-.3-1.9-.5-2.2q-1-4.6-4.4-10.5a30 30 0 0 0-10-11.1l-1.7-1.3-1.8-1.1-1.9-1.1-2-1-1-.5-1.1-.4-2.2-.8-2.3-.6q-1.2-.4-2.4-.5-2.4-.5-5-.6l-2.6-.1-2.6.1-1.3.1-1.3.2-2.6.4q-2.6.6-5.2 1.5T430 127l-2.4 1.5-1.2.8-1.2.9q-2.3 1.8-4.5 3.8-2 2.2-3.8 4.5l-.9 1.2-.8 1.3-.8 1.3-.7 1.3-1.3 2.8-1.1 2.9a39 39 0 0 0 0 24.8l1.1 2.9 1.3 2.8.3.7.4.7.8 1.3.8 1.3.9 1.2q1.8 2.5 3.8 4.5 2.2 2 4.5 3.8l1.2.9 1.2.8 2.4 1.5q2.5 1.3 5.1 2.2t5.2 1.5l2.6.4 1.3.2 1.3.1 2.6.1 2.6-.1q2.5 0 5-.6l2.4-.5 2.3-.6 2.2-.8 1.1-.4 1-.5 2-1 1.9-1.1 1.8-1.1 1.7-1.3a39 39 0 0 0 14.4-21.6l.5-2.2.3-1.9.3-1.6.1-1.4.1-1.9zv.6l-.1 1.9-.1 1.4-.2 1.7-.3 1.9-.5 2.2a40 40 0 0 1-14.3 21.9l-1.7 1.3-3.8 2.3-2.1 1-1 .5-1.1.4-2.2.8-2.3.6-2.4.6q-2.4.4-5 .6l-2.6.1-2.6-.1-1.3-.1-1.3-.2-2.7-.4q-2.7-.6-5.3-1.5-2.7-1-5.2-2.3l-2.5-1.5-1.2-.8-1.2-.9q-2.3-1.7-4.5-3.8-2-2.2-3.9-4.6l-.9-1.2-.8-1.3-.8-1.3-.4-.7-.3-.7-1.4-2.8-1.1-2.9q-2-6-2.1-12.5.1-6.5 2.1-12.5l1.1-2.9 1.4-2.8.7-1.4.8-1.3.8-1.3.9-1.2q1.9-2.4 3.9-4.6 2.2-2 4.5-3.8l1.2-.9 1.2-.8 2.5-1.5q2.5-1.3 5.2-2.3 2.6-1 5.3-1.5l2.7-.4 1.3-.2 1.3-.1 2.6-.1 2.6.1q2.6.2 5 .6l2.4.6 2.3.6 2.2.8 1.1.4 1 .5 2.1 1 1.9 1.1 1.9 1.2 1.7 1.3q6.7 5.3 10 11.3c3.3 6 3.7 7.5 4.3 10.6l.5 2.2.3 1.9.2 1.7.1 1.4.1 1.9z"/><path fill="#e56363" d="M454.4 139.2c.2-.7.8-1.9 2.6-3.4l-.4-1.2-.4-.4-.2-.1-.5-.2h-.2l-.7.1a14 14 0 0 0-2.8 3.4q-.3-1 1-4-.3-.5-.8-.8l-.5-.3-.4-.1h-.4l-.3.1-.5.3c-.8 1.7-.9 3.6-.8 4.7q-1.8.3-3.2 1.7c-1.8 1.9-1.8 11.2-1.8 11.2l1.8 2.8 1.4-1.2 1.4-1.2-.1-5.7c0-2 2.2-2.9 3.4-1.7s1.4 1.7 1.4 1.7l.8-.4.4-.2 1.4-.7.6-.3.4-.2c0 .1-.8-2.3-2.6-3.9"/><path fill="#000" d="M454.4 139.2c.2-.7.8-1.9 2.6-3.4l-.4-1.2-.4-.4-.2-.1-.5-.2h-.2l-.7.1a14 14 0 0 0-2.8 3.4q-.3-1 1-4-.3-.5-.8-.8l-.5-.3-.4-.1h-.4l-.3.1-.5.3c-.8 1.7-.9 3.6-.8 4.7q-1.8.3-3.2 1.7c-1.8 1.9-1.8 11.2-1.8 11.2l1.8 2.8 1.4-1.2 1.4-1.2-.1-5.7c0-2 2.2-2.9 3.4-1.7s1.4 1.7 1.4 1.7l.8-.4.4-.2 1.4-.7.6-.3.4-.2c0 .1-.8-2.3-2.6-3.9" opacity=".3"/><path fill="#e56363" d="M460.2 164.5c-1.1-2.4-2.9-3.7-4.7-5.5-3.2-3-.8-6.1 2.4-7.8l3.3-1.7q0-1.2-.3-2.2-.1-.6-.6-1.1c-1.9.4-8.1 2.4-10.1 3.4a24 24 0 0 0-11.3 9.6 18 18 0 0 0-2.9 9.5c0 4.2 2.1 8.1 3.2 9.9q1.4 2.3 3.2 4.3c2.4 2.7 7.2 7.8 11.3 6.1 1.7-.7 2.7-2.5 3.6-4a39 39 0 0 0 4.3-11.5q.6-4.6-1.4-9"/><path fill="#263238" d="m460.2 164.5.1.3.4.8q.5 1 .9 3.3a14 14 0 0 1 0 5.4q-.5 3.2-2.1 6.9-.8 1.8-1.9 3.7c-1.1 1.9-1.4 2.6-2.6 3.7l-1 .7-1.2.4q-1.2.3-2.5-.2-2.4-.8-4.5-2.6a32 32 0 0 1-7.1-8.4q-1.5-2.4-2.4-5.4-1-3-.5-6 .6-5 3.4-8.8a20 20 0 0 1 6.4-6.3q3.6-2.4 7.4-3.8c3.8-1.4 4.9-1.7 7.2-2.2h.1l.1.1c.9 1 .9 2.3.9 3.4v.1l-.1.1-4.1 2.1a8 8 0 0 0-2.8 2.8q-.7 1.8.3 3.3c1 1.5 1.4 1.5 2.1 2.1q2 1.9 2.8 3.1zl-.8-1.2q-.8-1.2-2.8-3-1.1-.8-2.1-2.2-1.1-1.5-.3-3.5c.8-2 1.6-2.2 2.9-3l4-2.2-.1.2c-.1-1.1-.1-2.3-.9-3.1l.2.1q-3.4.9-7.2 2.2c-3.8 1.3-4.9 2.2-7.3 3.7q-1.8 1.2-3.4 2.7t-2.8 3.5q-2.8 3.8-3.3 8.5c-.5 4 .9 7.8 2.8 11q3 4.9 7 8.3a11 11 0 0 0 4.3 2.5q2.4.7 4.3-.8c1.9-1.5 1.8-2.3 2.6-3.6l1.9-3.7q1.7-3.6 2.1-6.8c.4-3.2.3-3.9.1-5.3q-.3-2.2-.8-3.3z"/><path fill="#455a64" d="m449.3 137.5-.1-.2-.3-.6-.1-.1-.4-.5s-2.2.5-3.4 1.7c-.1-2.2.6-5.6.6-5.6l-.9-.6-.8-.1-.8.1-.7.5s-.7 7.4-.6 13.7c0 2.6.5 8.6.5 8.6l2.2-1 .9-.4s-1-6.3 0-10.5c.5-2.2 3.2-3.4 4-3.7v-.6zm8.5 35.6-.3-2.3 1.5 1.4q1.5 1.4 1.8 3.3.4-.6.2-.7-.2-.8-.6-1.4-.8-1.2-1.9-2a5 5 0 0 1-1.6-2.6c-.1-.9.1-1.3.2-2.2q0-2.6-1.1-5l-2.6-5.3c.6 1.9 1.7 3.5 2.4 5.3q1.4 3 .8 6c-.3 1.2-2 2.4-2.1 2.4-.7.4-1.5.3-2.2.8q-.9.7-1.3 1.6t-.8 2.3q-.5 1.6-1.3 2.9c1.2-.9 1.4-2.8 1.9-4.2q.4-1.7 1.8-2.6l1.5-.4q-1.2.9-1.9 2.2-.9 1.5-1.4 3.1c-.3 1.1.2 5.2-.1 6.8q0 .6.2 0c.3-1.2-.1-5.8.3-7q.6-2 1.8-3.5 1.1-1.3 2.6-2.4l.7-.7c-.3.7-.9 2.4-1 3.6-.2 1.7 0 4.6 1.1 6.2.2.3.2 0 .1-.1-1-1.9-1.2-4.9-.8-6.9l.9-2.6.7 1.2.5 3.6q.3 1.7 1.4 2.7l.1-.1q-1.3-1.3-1.5-3.4"/><path fill="#000" d="M447.2 177c-1-1.2-2.7-1.8-4.1-2.5q-.4-1.4-1.2-2.5-1.3-1.7-2-3.7l-.3-2.2q.7.6 1.5 1c1.1.6 1.4 1.9 1.8 3 .5 1.5 1.2 3.3 2.7 4.1l.1-.1a9 9 0 0 1-1.7-2.2q-.7-1.4-1.1-2.8-.3-1.1-1.1-1.9c1.6.1 2 1.5 2.8 2.7.6.9 1.7 1.1 2.2 2q.2.2.1 0-.3-.7-1.1-1.1-1.2-1-1.8-2.3c-.5-.8-1.7-2-2.7-1.6-.6-.4-1.2-.4-1.7-1 0-2.3.6-5.5 1.4-7.9l-.4.4q-.9 2.5-1.2 5.4c-.3.6-2 2.7-2.4 2.9l-.8.4q-.4.2-.1.6.3-.4.9-.7l.8-.6-.5 1.9q-.2 2.6 1 4.7.2.1.2-.1l-.8-2.5a7 7 0 0 1 0-2.9q.4-1.2 1-2.2l.5-.7q-.1 1.7.2 3.2.2 1 .7 2c.3 1.7 0 3.3.2 5.1a6 6 0 0 0 2 3.9q.2.1.1-.1l-1.4-2a5 5 0 0 1-.5-3v-3.1l1.9 3.1q.5 1.6 1.3 3c.6 1 1.7 1.6 2.4 2.4 1 1.2.4 2.5.3 3.9q-.1 1.8 1.1 2.9.2.1.1-.2-.7-.9-.9-2.1l.2-1.9q.3-1.6-.5-2.7l-2.4-2.6-.7-1.4c.5.2 2.3 1 3.3 1.8a5 5 0 0 1 1.8 3.9q0 .2.1 0 0-2-1.3-3.7" opacity=".3"/><path fill="#e56363" d="M443.3 149.8a5 5 0 0 0-2.7-.2c-2.8.4-5 2.9-5.6 5.7l-.2 2.1.1 1.1.4 1.2q.7 1.5 2.1 1.8 1 0 1.5-.6l2.3-3.2q1.4-1.6 2.9-3c.6-.6 1.7-1.5 1.9-2.4.2-1.2-1.6-2.1-2.7-2.5"/><path fill="#263238" d="m443.3 149.8.4.1 1 .4q.6.3 1.3 1.1.3.5.2 1.1-.2.7-.6 1.1l-4 4q-1 1.2-1.9 2.7-.5.8-1.3 1.3-1 .3-2-.2-1-.7-1.5-1.8c-.5-1.1-.4-1.5-.4-2.2a9 9 0 0 1 1.6-5.2 8 8 0 0 1 3.4-2.6l1.6-.3 1.2.1zc0 .1-1.4-.5-3.7.2q-1.7.6-3.2 2.5c-1.5 1.9-1.5 3-1.4 4.9-.1 1.2.4 2.8 1.6 3.6q.8.5 1.5.2.8-.4 1.1-1.2l1.9-2.7 4-3.9q.8-1 .4-1.8c-.4-.8-.8-.8-1.1-1.1z"/><path fill="#e56363" d="M459.7 151.8a3 3 0 0 0-1.9-.9l-1.5.2q-1 .4-1.8 1.2c-1.2 1.2-2 3.1-1.3 4.9.7 2 2.9 2.8 4.3 4.2.8.8 1.6 1.5 2.5.7l.2-.2.6-.9c1.4-2.8.9-7.3-1.1-9.2"/><path fill="#263238" d="m459.7 151.8.3.2.6.7q.7 1 1.2 3.2a9 9 0 0 1-.6 5l-.8 1.3-.7.5q-.4.2-.9 0-.8-.3-1.3-1c-.5-.7-.8-.7-1.2-1q-1.4-.8-2.4-2.1t-.9-2.9c.1-1.6.5-1.9.9-2.6q.8-1 1.7-1.7c.9-.7 1.3-.6 1.9-.6q.9 0 1.5.3l.8.5zl-1.1-.6q-1.2-.6-3.1.5a5 5 0 0 0-2.4 4q-.2 1.4.9 2.6 1 1 2.4 2l1.3 1 1.1.9q.6.2 1.1-.3t.8-1.1a9 9 0 0 0-.3-7.8z"/><path fill="#fff" d="M435.6 157c-.1 0-.2-1.8 1-3.5 1.1-1.8 2.8-2.5 2.8-2.4.1.1-1.3 1-2.3 2.6-1.2 1.7-1.3 3.3-1.5 3.3m19-.2-.4-.6q-.2-.6 0-1.7c.2-1.1.5-1.2.8-1.5l.6-.4c.1.1-.7.8-.9 2s.1 2.1-.1 2.2m-3.2 30q-.1.1-2.4-1a24 24 0 0 1-10.1-11.1c.1-.1 1.9 3.5 5.4 6.9s7.2 5.1 7.1 5.2m-8.6-46.7.1 3.7c-.1 2-.1 3.7-.3 3.7s-.3-1.7-.3-3.7c.1-2.1.3-3.7.5-3.7m3.9 2.4-.3 2.3-.4 2.3q-.3-.2-.1-2.3.5-2.3.8-2.3"/><path fill="#a3a3a3" d="m434.1 66.3-.1-.6-.1-1.9-.1-1.4-.3-1.6-.3-1.9-.5-2.2q-1-4.6-4.4-10.5a30 30 0 0 0-10-11.1l-1.7-1.3-1.8-1.1-1.9-1.1-2-1-1-.5-1.1-.4-2.2-.8-2.3-.6q-1.2-.4-2.4-.5-2.4-.4-5-.6l-2.6-.1-2.6.1-1.3.1-1.3.2-2.6.4q-2.6.6-5.2 1.5t-5.1 2.2l-2.4 1.5-1.2.8-1.2.9q-2.3 1.8-4.5 3.8-2 2.2-3.8 4.5l-.9 1.2-.8 1.3-.8 1.3-.7 1.3-1.3 2.8-1.1 2.9a39 39 0 0 0 0 24.8l1.1 2.9 1.3 2.8.3.7.4.7.8 1.3.8 1.3.9 1.2q1.8 2.5 3.8 4.5 2.2 2 4.5 3.8l1.2.9 1.2.8 2.4 1.5q2.5 1.3 5.1 2.2t5.2 1.5l2.6.4 1.3.2 1.3.1 2.6.1 2.6-.1q2.5 0 5-.6l2.4-.5 2.3-.6 2.2-.8 1.1-.4 1-.5 2-1 1.9-1.1 1.8-1.1 1.7-1.3A39 39 0 0 0 432.7 76l.5-2.2.3-1.9.3-1.6.1-1.4.1-1.9zv.6l-.1 1.9-.1 1.4-.2 1.7-.3 1.9-.5 2.2a40 40 0 0 1-14.3 21.9l-1.7 1.3-3.8 2.3-2.1 1-1 .5-1.1.4-2.2.8-2.3.6-2.4.6q-2.4.4-5 .6l-2.6.1-2.6-.1-1.3-.1-1.3-.2-2.7-.4q-2.7-.6-5.3-1.5-2.7-1-5.2-2.3l-2.5-1.5-1.2-.8-1.2-.9q-2.3-1.7-4.5-3.8-2-2.2-3.9-4.6l-.9-1.2-.8-1.3-.8-1.3-.4-.7-.3-.7-1.4-2.8L357 79q-2-6-2.1-12.5Q355 60 357 54l1.1-2.9 1.4-2.8.7-1.4.8-1.3.8-1.3.9-1.2q1.9-2.5 3.9-4.6 2.2-2 4.5-3.8l1.2-.9 1.2-.8 2.5-1.5q2.5-1.3 5.2-2.3 2.6-1 5.3-1.5l2.7-.4 1.3-.2 1.3-.1 2.6-.1 2.6.1q2.6.1 5 .6l2.4.6 2.3.6 2.2.8 1.1.4 1 .5 2.1 1 1.9 1.1 1.9 1.2 1.7 1.3q6.7 5.3 10 11.3c3.3 6 3.7 7.5 4.3 10.6l.5 2.2.3 1.9.2 1.7.1 1.4.1 1.9z"/><path fill="#455a64" d="M382.6 74.7c-.5 2.1.4 4.5 2.2 5.8l2 1q2.1.8 4.3.6 2.3-.1 4.1-1.5l.3-.2.3.1 1.5.3h1.6q1.8-.6 2.3-2.4c.5-1.8.1-2.4-.3-3.5-.8-2.3-2.5-4.3-4.1-6.2"/><path fill="#e56363" d="M393.7 72.7a8.4 8.4 0 0 0 6.3 7.6 17 17 0 0 0 3.2 3.9q.9 1 1.9 1.6 1.4.8 2.4.5l.3-.2.1-.3c.4-2.1-.6-4.1-1.6-6 1-.5 1.5-1.7 1.2-2.7q1.8.3 3.6-.1 1.4-.2 2.7-.9c1.3-.9 1.9-2.6 2-4.2a5 5 0 0 0-1.3-3.9q-.8-.7-1.6-1.1l-3.7-1.6q-2.6-.9-5.3-.9c-2.7 0-3.6.4-5.2 1.3q-1.5 1-2.7 2.2-.8.6-1.3 1.4-.9 1.6-.9 3.5"/><path fill="#000" d="M393.7 72.7a8.4 8.4 0 0 0 6.3 7.6 17 17 0 0 0 3.2 3.9q.9 1 1.9 1.6 1.4.8 2.4.5l.3-.2.1-.3c.4-2.1-.6-4.1-1.6-6 1-.5 1.5-1.7 1.2-2.7q1.8.3 3.6-.1 1.4-.2 2.7-.9c1.3-.9 1.9-2.6 2-4.2a5 5 0 0 0-1.3-3.9q-.8-.7-1.6-1.1l-3.7-1.6q-2.6-.9-5.3-.9c-2.7 0-3.6.4-5.2 1.3q-1.5 1-2.7 2.2-.8.6-1.3 1.4-.9 1.6-.9 3.5" opacity=".3"/><path fill="#e56363" d="M420.6 68.5c1.1-1 1.1-3 .1-4.1q-.6-.4-.7-1l.2-.8c.8-2.4-.7-5.2-3.1-5.9a5.4 5.4 0 0 0-3.9-5.2 5 5 0 0 0-3.5-3.9q-.6 0-1.2-.4t-1.1-1a6 6 0 0 0-5.4-2.1h-.9l-.8-.5a4.4 4.4 0 0 0-5.3 0q-.4.4-.9.5T393 44a5 5 0 0 0-3.4.7q-.5.4-.9.4l-.9-.2c-1.6-.5-3.5.1-4.5 1.5-1.9-.7-4.3.3-5.2 2.2l-.4.7q-.5.4-1.2.3c-2.3.3-4.2 2.6-3.9 4.9q-1.8 0-3 1.4c-1.2 1.4-.9 2.2-.5 3.3-1.5 2-1.8 4.8-.2 6.8-1.2 1.6-.5 4.2 1.4 5 .2 1.2.5 2.7 1.7 3.1q.7.3 1.6.2c1.3.1 2.5.9 3.9 1.2s3 0 3.5-1.2q1.3.9 2.8 1.2 2.1.3 2.7-1.1c.7 1.4 2.6 2.1 4 1.5s2.2-2.5 1.7-3.9q2.1.7 3.9-.6c1.8-1.3 1.7-2.3 1.5-3.6a3 3 0 0 0 4-.6c1.9.9 4.2.3 6.4.2s4.7.6 6 2.4q.9 1.4 1.4 2.9.7 1.6 2.1 2.3c1.4.7 2.4-.1 2.6-1.1q0-.9.2-1.7l.7-.7c.7-.7.6-2.3-.4-3"/><path fill="#263238" d="m420.6 68.5.4.3q.4.5.5 1.4l-.3 1.1-.9 1c-.5.5-.1.9-.2 1.5s-.6 1.1-1.2 1.3-1.4.2-2-.2-1.1-1-1.5-1.6c-.8-1.3-1.1-3.1-2.4-4.2s-3.2-1.6-5.2-1.5l-3.1.3q-1.6.2-3.3-.5l.3-.1a3 3 0 0 1-4.3.7l.3-.2q.2 2.2-1.5 3.7c-1.7 1.5-2.7 1.2-4.2.7l.3-.3c.6 1.5-.2 3.4-1.7 4.2-1.6.7-3.6.1-4.4-1.5h.4c-.6 1-1.8 1.4-2.8 1.2q-1.7-.3-3-1.2l.4-.1a2 2 0 0 1-1.3 1.2q-.8.3-1.7.3-1.7-.3-3.2-1l-1.6-.4q-.8.1-1.8-.4t-1.1-1.5l-.4-1.7.2.2c-1.9-.8-2.9-3.5-1.5-5.4v.3a5 5 0 0 1-1-4.1q.3-1.6 1.3-3v.2q-.6-1.9.6-3.5c1.2-1.6 2-1.5 3.2-1.5l-.3.3q-.2-2.2 1.3-3.8.7-.7 1.7-1.2l1.9-.4q.4-.1.5-.5l.5-.9q.6-.9 1.4-1.3 1.8-1 3.8-.5l-.3.1c1.1-1.4 3-2 4.7-1.5q.6.2 1 .1l1-.6q1.1-.6 2.4-.6c1.3 0 1.6.4 2.1-.1l1-.7 1.1-.4q1.2-.3 2.3 0c1.1.3 1.5.6 2 1.1q.4.3.9.2l1.1-.1q1 0 2.1.4c1.1.4 1.3.6 1.8 1q.9.7 1.4 1.4.6.6 1.7.7 1 .3 1.7.9 1.5 1.3 1.8 3.1l-.1-.1c2.6.7 4.1 3.2 4 5.4l-.1-.1q1.6.6 2.5 1.9c.9 1.3.8 1.8.9 2.7l-.1 1.3q-.3.6-.2 1.1.2.5.6.8l.5.8a3 3 0 0 1-.1 2.7l-.4.6zl.5-.8c.2-.5.5-1.5 0-2.6l-.5-.7q-.4-.3-.6-.9t.2-1.2q.3-.7.1-1.2a5 5 0 0 0-3.2-4.3h-.1v-.1c.1-2-1.4-4.4-3.8-5h-.1v-.1a5 5 0 0 0-1.7-2.9q-.7-.6-1.6-.8l-.9-.2-.9-.5q-.6-.8-1.4-1.4l-1.7-1q-1-.4-2-.4l-1 .1q-.7.1-1.2-.3a4 4 0 0 0-3.9-1 5 5 0 0 0-1.9 1q-.6.4-1.3.3l-1.1-.1q-1.1 0-2.2.5l-1.1.6q-.8.2-1.3-.1a4 4 0 0 0-4.2 1.4l-.1.1-.2-.1a4 4 0 0 0-3.3.4q-.7.5-1.3 1.2l-.4.8q-.2.5-.9.7-1 0-1.8.4a4 4 0 0 0-1.5 1q-1.3 1.4-1.2 3.4v.3h-.3q-1.6-.1-2.8 1.3-1 1.4-.5 3v.1l-.1.1q-.9 1.2-1.2 2.7-.3 2.1.9 3.7l.1.2-.1.2c-1.1 1.5-.3 4 1.3 4.6l.1.1v.2q.1 1.8 1.3 2.8.7.4 1.5.3 1 0 1.7.4 1.6.7 3.1 1 2 .3 2.5-1.2l.1-.3.2.1q1.3.9 2.8 1.2t2.4-1l.2-.4.2.4c.7 1.3 2.5 1.9 3.8 1.3s2-2.3 1.5-3.6l-.2-.5.5.2q2 .7 3.7-.7a4 4 0 0 0 1.4-3.4l-.1-.5.4.3c1.1.9 3 .5 3.7-.6l.1-.1.2.1q1.6.6 3.1.5l3.1-.2q3.2-.2 5.4 1.7 1 1 1.5 2.1l1 2.2q.6 1 1.4 1.6 1 .7 1.8.2c.8-.5 1-.6 1.1-1.2l.2-1.6.9-1q.3-.5.3-1 0-1-.4-1.4z"/><path fill="#263238" d="m393.9 54.5-1.6.4q-.8.2-1.7.9l-.8.8q-.3.6-.2 1.1l.1.3h-.3a6 6 0 0 0-2.6.4q-1.4.5-1.7 2.1v.2h-.2a4 4 0 0 0-2.9 1q-.6.6-1 1.3l-.3.8-.1.5-.4.4a4 4 0 0 0-1.9 2.4 4 4 0 0 0 1.7 4.3l.1.1-.1.1c-.4.9 0 1.8.3 2.2q.5.7.6.6t-.2-.1l-.5-.4c-.4-.4-.9-1.4-.5-2.5l.1.2q-1-.6-1.7-1.8-.9-1.6-.3-2.9c.6-1.3 1-2.1 2.1-2.6l.3-.6.3-.9q.5-.9 1.2-1.5 1.4-1.2 3.2-1.1l-.3.2c.1-1.3 1.1-2.1 2.1-2.5s2-.4 2.8-.4l-.2.3q-.2-.8.2-1.5l.9-.9q1-.7 1.8-.8l1.3-.2z"/><path fill="#263238" d="m404.7 53.9-.1.6q-.2.6-.9 1.6c-.7 1-1.2 1.3-2.2 1.9q-.8.5-1.7.6-1.2 0-1.7-1.2l.4-.1q.1.8-.5 1.4c-.6.6-.8.6-1.3.8l-1.5.2q-1 0-1.4-.9l.5-.2q.2 1-.5 1.7c-.7.7-.9.7-1.4 1q-1 .6-2.2.8c-1.2.2-1.6-.2-2.2-.8l.4-.3q.7 1.2 0 2.3t-1.6 1.4l-1.8.8q-1 .3-1.8-.1l.2-.3q1 1.1 1 2.3-.1 1.2-.5 1.8l-.8.9-.4.2 1-1.1q.4-.6.4-1.7a3 3 0 0 0-.9-2.1l.2-.3q.6.3 1.5.1l1.7-.8q.9-.4 1.4-1.3.7-1.2 0-1.8l.4-.3q.7.6 1.7.6 1-.2 2-.7l1.3-.9q.5-.5.4-1.2l.5-.2q.3.6 1 .6l1.4-.2q.6-.1 1.1-.6.6-.7.4-1l.4-.1q.3.8 1.3.9c1 .1 1.1-.2 1.6-.5q1.4-.8 2.2-1.8c.8-1.1 1-2.1 1-2m6.7 11.4-1.1-1.2q-.6-.5-1.6-.8-1.4-.4-2.1.6l-.2.2-.2-.2q-1-.8-2.4-.8l-1.4.2q-.7.3-.6.9l.3.7-.7-.4-1.3-.5q-2-.3-3.9.5-.9.3-1.5.9t-.3 1.4l.2.6-.5-.3q-1.1-.6-2.2-.4c-1.1.2-1.2.4-1.6.7l-1.1 1.1.1-.4.8-.9q.6-.6 1.7-.8c1.1-.2 1.6 0 2.4.4l-.2.2q-.2-1 .4-1.8c.6-.8 1-.8 1.7-1.1q1.9-.8 4.2-.6l1.5.6-.4.3c-.3-.8.3-1.4.9-1.6s1.1-.2 1.6-.2q1.7 0 2.7 1h-.3q1.3-1 2.5-.6c1.2.4 1.3.6 1.7.9l.8 1z"/><path fill="#263238" d="M411.4 61.1c.1 0 0 .8-.6 1.4s-1.3.9-1.4.7q0-.2 1-1.1zm-10.1 2.6c0 .1-.7 0-1.2-.7s-.4-1.4-.2-1.4l.7 1.1zm-4.8-1.8.3 1.3q0 .6-.3.9t-.4.2l.2-1.2q0-1 .2-1.2m-8.7 8.9s.4.3.2 1q-.3 1-1.6 1.8-1.3.6-2.3.5c-1-.1-.9-.3-.9-.4s.4 0 .9 0q.9 0 2.1-.6t1.5-1.4zm23-20.2.5.3q.5.3 1 1.2.8 1.2.3 2.4-.6 1.6-1.9 2.2l-.7.3h-.5l-.5-.3.5-.2q.4 1.4-.3 2.4c-.7 1-1 .9-1.5 1.1l-1.6.4 1.5-.7q.6-.3 1.3-1.1.5-.9.2-1.9l.5-.2h.3l.6-.3q1.2-.8 1.7-1.9c.5-1.1.1-1.5-.1-2z"/><path fill="#263238" d="M416.6 63.7c-.1 0 .4-.7.3-1.8q0-.8-.7-1.7t-1.9-.6l-.5.3-.7.7.3-1q.2-1.1-.5-1.9c-.7-.8-.9-.8-1.3-.9-.9-.3-1.5.1-1.5 0l.4-.3q.5-.4 1.3-.1.8.1 1.6 1t.6 2.3l-.4-.2.7-.4c1-.4 2 .2 2.5.8s.7 1.4.7 2c-.2 1.3-.9 1.9-.9 1.8m-3.8 1.4c-.1-.1.5-.8.6-1.9s-.3-1.9-.1-1.9c.1-.1.8.8.6 2s-1 1.9-1.1 1.8m6.8.6-.7-.3-.6-.2q-.4 0-.8.4l-1.2 1.2-.4.5-.1-.2.2-.5q.3-.6 1.2-1.4.4-.4 1-.4l.5.1.3.3zm1.3 2.5-.2.8-.6.8q-.1.2-.6.3-.4.2-.8-.2l.4-.3q.3.4.3 1 0 1-.7 1.4-.9.5-1.3.3-1.2-.3-1-.5l1 .1q.5 0 1-.4.5-.3.5-1.1l-.2-.7.4-.3q.3.3.7-.1l.6-.6zm-3.2-8.6-.5-1-.7-.9q-.5-.5-1.2-.5h-.5l.3-.4q.5-.6.7-1.2t-.3-1l-.6-1 .9.8q.4.5.4 1.3c0 .8-.4 1-.7 1.5l-.2-.4q1 0 1.6.6t.7 1.1zm-12.5-7.2s-.1.5-.8.9q-.5.4-1.4.4-.5 0-.9-.2t-.7-.8l.4.1q-1.4 1.1-3.5.6-1.1-.3-1.8-1.1l.4-.1q-1 1.2-2.2 1.1-1.2-.2-1.7-.8-1.2-1.2-1-1.3l1.2 1.1q.6.5 1.6.6t1.7-.9l.2-.3.3.3q.6.6 1.6 1 1.8.4 3-.5l.3-.2.1.3q.3.7 1.2.7t1.2-.3zm1.9-1.3-.1-.1-.1-.5q-.2-.6-1.1-1-1.2-.4-1.6-.1-.6.4-.6.2-.1-.1.5-.6.8-.6 1.9-.1t1.3 1.4zm-3.1-2.6-.8-.8c-.8-.7-1.6-.4-2.7-.2s-2.1.5-2.7.8l-1.1.5.9-.8q1.1-.6 2.8-1c1.7-.4 2.3-.1 3 .4q.8 1 .6 1.1"/><path fill="#263238" d="m397.6 45.2.5.1q.5.1 1 .8t.2 1.3c-.2.6-.3.4-.4.4s0-.2 0-.5l-.3-.9c-.4-.7-1.1-1-1-1.2m-1.7-.7-.4.8-1 1.7q-.3 1-.2 2 0 .8-.2.9t-.2-.9q-.2-.8.1-2.2l1.2-1.8q.5-.7.7-.5"/><path fill="#263238" d="m394.4 47-1.3-.3-1.3-.3q.1-.3 1.4-.2c.8.1 1.3.7 1.2.8m-7.8 7q-.1.1-1-.5a4 4 0 0 1-1.5-2.4q-.2-1.8.5-2.8c.7-1 .9-.8.9-.7l-.6.9q-.8 1.2-.3 2.4.4 1.5 1.2 2.2zm-13.9 17.3s0 .1-.1 0l-.1-.2.1-.8a4 4 0 0 1 1.5-2.1c1.7-1.2 3.7-.6 3.4-.3l-.3-.1h-.7a6 6 0 0 0-2.2.8 5 5 0 0 0-1.5 1.8l-.3.7zm-4-7.7s-.1-.3.2-.7c.2-.4.9-1 1.9-.8q.3.3 0 .5l-.7.7.3-.9c.3-.9 1-2 2.3-2.4q.8-.2 1.4.3.7.6.8 1 .4 1.1.1 2.1c-.4 1.2-1.1 1.5-1.1 1.4-.1-.1.5-.5.8-1.5q.2-.8-.2-1.8-.6-1.4-1.6-1-.7.2-1.3.9l-.8 1.2-.3-.1v.1q-1.1-.1-1.6.6zM383 51.2l-.7.1q-.3.1-.6.5t-.1.9l.1.3h-.3q-1.4 0-2.3 1.5-.5 1.3-.3 2.6v.3l-.3-.1q-1.3-.2-2.1.2l-.8.4.7-.6q.8-.6 2.4-.4l-.3.3q-.2-1.3.3-2.8c.5-1.2 1.8-1.9 2.8-1.7l-.2.3q-.2-.8.3-1.2t.8-.5q.5-.3.6-.1m6.4-.3c-.1 0 .2-1-.4-2.1-.6-1-1.3-1.7-1.2-1.9s1 .4 1.7 1.6q.4 1 .3 1.7-.2.9-.4.7m-5.5 4.7-1 .8q-1.3 1.2-.8 2.8l.1.4-.4-.1-.5-.1q-2.1-.2-3.3.7c-1.2.9-.7 1.2-.8 1.2v-.4q0-.4.6-1 1.2-1.1 3.6-.9l.5.1-.3.3c-.3-1.4.4-2.7 1-3.2q1.2-.8 1.3-.6"/><path fill="#a3a3a3" d="m176.5 400.4-.1-.6-.1-1.9-.1-1.4-.3-1.6-.3-1.9-.5-2.2q-1-4.6-4.4-10.5a30 30 0 0 0-10-11.1l-1.7-1.3-1.8-1.1-1.9-1.1-2-1-1-.5-1.1-.4-2.2-.8-2.3-.6q-1.2-.4-2.4-.5-2.4-.4-5-.6l-2.6-.1-2.6.1-1.3.1-1.3.2-2.6.4q-2.6.6-5.2 1.5t-5.1 2.2l-2.4 1.5-1.2.8-1.2.9q-2.3 1.8-4.4 3.8-2 2.2-3.8 4.5l-.9 1.2-.8 1.3-.8 1.3-.7 1.3-1.3 2.8-1.1 2.9a39 39 0 0 0 0 24.8l1.1 2.9 1.3 2.8.3.7.4.7.8 1.3.8 1.3.9 1.2q1.8 2.5 3.8 4.5 2.2 2 4.5 3.8l1.2.9 1.2.8 2.4 1.5q2.6 1.3 5.1 2.2 2.6 1 5.2 1.5l2.6.4 1.3.2 1.3.1 2.6.1 2.6-.1q2.5 0 5-.6l2.4-.5 2.3-.6 2.2-.8 1.1-.4 1-.5 2-1 1.9-1.1 1.8-1.1 1.7-1.3a39 39 0 0 0 14.4-21.6l.5-2.2.3-1.9.2-1.6.1-1.4.1-1.9zv.6l-.1 1.9-.1 1.4-.2 1.7-.3 1.9-.5 2.2A40 40 0 0 1 161 432l-1.7 1.3-3.8 2.3-2.1 1-1 .5-1.1.4-2.2.8-2.3.6-2.4.6q-2.4.4-5 .6l-2.6.1-2.6-.1-1.3-.1-1.3-.2-2.7-.4q-2.7-.6-5.3-1.5-2.7-1-5.2-2.3l-2.5-1.5-1.2-.8-1.2-.9q-2.3-1.8-4.5-3.8-2-2.1-3.9-4.6l-.9-1.2-.8-1.3-.8-1.3-.4-.7-.3-.7-1.4-2.8-1.1-2.9q-2-6-2.1-12.5.1-6.5 2.1-12.5l1.1-2.9 1.4-2.8.7-1.4.8-1.3.8-1.3.9-1.2q1.9-2.5 3.9-4.6 2.2-2 4.5-3.8l1.2-.9 1.2-.8 2.5-1.5q2.5-1.3 5.2-2.3 2.6-1 5.3-1.5l2.7-.4 1.3-.2 1.3-.1 2.6-.1 2.6.1q2.6.1 5 .6l2.4.6 2.3.6 2.2.8 1.1.4 1 .5 2.1 1 1.9 1.1 1.9 1.2 1.7 1.3q6.7 5.3 10 11.3c3.3 6 3.6 7.5 4.3 10.6l.5 2.2.3 1.9.2 1.7.1 1.4.1 1.9z"/><path fill="#ffbf9d" d="M160 387.6q-.2-1.7-1.3-2.9-1-.7-2.1-.9c-3.4-.7-6.9.1-10.2 1.2s-6.5 2.4-10 2.7c-4.5.5-9.1-.7-12.8-3.3l.3.3h-3.5q-1.1 0-2 .7l-.7 1.2c-1.1 3.3-.4 6.8.3 10.2l2.5 11.9q.3 2.2 1.5 3.9 1 1.1 2.4 1.8c1.2.7 2.6 1.9 4 2.1s3.3.5 4.5.3c4.4-.8 7.9-2.4 12.3-3.2q2.1-.3 4.2-.9 1.6-.6 3.1-1.4 1.3-.7 2.2-1.8l1.5-2.4c3.2-6 5-12.9 3.8-19.5"/><path fill="#263238" d="M132.7 409.7s-.3.6-1.2 1.3q-1.4 1.1-4.1 1.3a6 6 0 0 1-3.9-1.7c-.8-.8-.8-1.6-.8-1.6l1 1.3c1 1.2 2.1 1.4 3.7 1.4a6 6 0 0 0 3.8-1.1z"/><path fill="#263238" d="M133.6 412.5q0 .2-.4.3-.6.2-1.2-.3t-.7-1l-.1-.5c.1-.1.5.6 1.1 1.1l.8.4zm-6.3-5.8c0-.1.5.6 1.7.7l2-.2q1.2-.2 2.6-.1c1.4.1 1.8.5 2.5 1a4 4 0 0 1 1.2 1.8c.4 1.3-.2 2-.2 2-.1 0 .3-.8-.2-1.8q-.3-.8-1.2-1.6c-.9-.8-1.4-.8-2.2-.9H131q-1.2.2-2.1.1-1.2-.2-1.4-.6zm9.7-1-1.3.5c-.6.3-1 .9-1.1.8s.1-.8.9-1.2 1.5-.2 1.5-.1"/><path fill="#263238" d="m149.3 405.3-1.4-.3q-.7 0-1.6.3t-1.6 1.3l-.2.3-.1-.4q-.4-1.2-2.1-1.6-1.6-.1-3.1.7l-.7.3.3-.7c.6-1.2-.4-3-1.9-3.4q-1.6-.4-3 .3c-1.4.7-1.8.9-2.3 1.6l-.1.2-.2-.1q-2-1.1-3.9-1c-1.9.1-2.3.4-3 .9-1.6.9-2.2 1.9-2.2 1.8l.4-.6q.4-.6 1.6-1.4c1.2-.8 1.9-.9 3.2-1s2.8.2 4.1 1l-.3.1q1-1.2 2.5-1.8c1.5-.6 2.2-.6 3.3-.3 1.8.5 3 2.5 2.2 4.1l-.3-.3q1.7-.9 3.4-.7c1.7.2 2.1.9 2.4 1.9h-.3q.8-1 1.9-1.4c1.1-.4 1.3-.3 1.7-.2zm2.3-1.5.1.4-.4.8q-.4.5-.9.3l-.4-.2q.2 0 .9-.6zm-2.2-.4q.3 0 .3.8-.2.5-.5.5-.3.1-.3-.1l.3-.6zm-16.5-6.9h.7l1.8.3 1.2.6 1.2.9q1.3 1 2.4 2.7l-.2-.1q2.2-.3 4.3.8l.4.1.5-.3 1.1-.7q1-.7 2.3-1.1 2.4-.7 4.2-.1t2.3 1.7l.4 1-.6-.8q-.6-.8-2.2-1.5c-1.6-.7-2.5-.3-3.9.2q-1 .4-2.1 1.1l-1.1.7-.6.4q-.5.1-.9-.1-2-1-4-.8h-.2l-.1-.1q-1-1.6-2.2-2.6l-1.2-.9q-.5-.4-1.1-.6z"/><path fill="#263238" d="M132.6 394.4s.4.5.6 1.4q.1.8-.2 1.7-.5.9-1.3 1.5-2 1.3-3.5 1c-1.5-.3-1.5-.4-1.4-.4l1.4.1q1.4 0 3.2-1.1c1.8-1.1 1.6-1.9 1.5-2.8zm-5.7 6-.5-.7q-.5-.7-1.4-1.2-1.1-.4-1.9-.2l-.8.1q0-.2.7-.5 1-.5 2.1.1t1.5 1.5.3.9"/><path fill="#263238" d="M122.2 391.1q.1-.1 1.1.5a6 6 0 0 1 1.9 4.1l-.1 1.4-.5.8-.2.2.1-.3.3-.7v-1.2l-.3-1.5q-.6-1.6-1.3-2.4zm6.4 4.4c-.2 0 .4-1.8-.2-3.9q-.5-1.6-1.3-2.4c-.8-.8-.9-.5-.9-.6s.5-.2 1.2.3a6 6 0 0 1 1.6 2.5q.4 1.8.2 2.9-.4 1.2-.6 1.2m8.7 2.5.4-1.2q0-.6-.3-1.1l-.6-.6-.6-.7-.6-.7-.4-.8q-.2-1 .3-1.5c.6-.7 1.3-.5 1.2-.5q-.2 0-.9.7a1 1 0 0 0-.1 1.1l.4.6.5.7.5.7.6.6q.5.8.2 1.5-.3 1.4-.6 1.2m4.4-4.5q.2-.2 1.1.7.8 1.2.4 3.3-.2 1-.6 1.7-.5 1-1.1 1.1l-1.3.5 1.1-.8q1-.7 1.4-2.6c.4-1.9.2-2.3-.2-3s-.9-.8-.8-.9m9.5 4.5-1.3-.3q-1.4-.2-3.2.9l-.7.6.4-.9q.6-1.3.4-3l-.4-3.1q-.4-1.3-1.4-1.9l-2-1.2.6.1q.7.1 1.6.7 1.3.8 1.6 2.1.4 1.5.5 3.2.2 1.8-.5 3.2l-.4-.3q2-1.2 3.5-.8 1.4.5 1.3.7"/><path fill="#263238" d="M147.3 392.4q-.2 0-.1-.6.2-.9 1-1.1.8-.4 1.4-.4.7.1.6.2l-.6.1-1.2.5q-.7.4-.9.8z"/><path fill="#263238" d="m149.7 390.6-.6-.2a3 3 0 0 1-.6-2.8q.4-.5.5-.3t-.2.5v1.2l.4 1.2zm6.7 1.5q.3 0 0 1.1-.5 1.5-2.1 1.6c-1.6.1-2 0-2.6-.3s-.9-.7-.8-.7l1 .4q1.2.6 2.4.1 1.4-.3 1.9-1.3zm-2.8-.7-1.5-.4-1.6-.3c-.1-.1.7-.5 1.7-.3s1.5.9 1.4 1"/><path fill="#e56363" d="M115.1 398.4q-1.9-.6-2.3-2.6c-.4-2 .4-2.4 1.1-3.4l.2-.5-.2-.3c-.9-.9-1.4-2.4-.8-3.6l.2-.4v-.4q-.6-2.6.8-4.8c1.4-2.2 2.5-2.3 4.1-2.6q2.4-.3 4.2 1.2.6.5.8 1.3c.7-.9 2.1-1.2 3.2-.8s1.9 1.5 2 2.7l.2-.2c.6-1 1.9-1.3 3-1.1s2.1 1 2.8 1.8c.8-.8 1.7-1.7 2.8-1.9 1.1-.3 2.5.3 2.7 1.5q1.6-1.8 3.7-2.2c1.5-.2 3.1.4 3.8 1.7 0-1.3 1.3-2.4 2.6-2.8q2.6-.9 4.8.4 1-2.4 3.4-2.9c2.4-.5 3.2.4 4.2 1.6q.8 1 .9 2.3t-1 2.2q1.1 1 1 2.4c-.1 1.4-.6 1.8-1.4 2.3l.3.1a3.3 3.3 0 0 1-.5 4.8q1.1 1 .7 2.7-.6 1.3-1.7 2.2v.1q1.3 1 1.3 2.7-.2 1.6-1.5 2.7-.2.1-.3.4t.1.6q.7 1.8-.2 3.5a4 4 0 0 1-2.7 2.3l-.5.2-.1.3a5 5 0 0 1-2.4 3.2q-2 1-4 .2c-.1 1.2-1.4 1.9-2.6 2.2q-2.2.7-4.2-.3c.2.7-.4 1.5-1.1 1.5.6 1.3.2 3.1-1 4 1.7 1.8 1.5 4.9-.2 6.6l-1 1.2s-.1 2.2-1.4 1.9c-.6-.2-.5-1.2-.8-1.8a6 6 0 0 1-2.7-7.6c-.8-1.3-1.7-2.9-1.2-4.4l.6-1.4c.3-1 .1-2.1.4-3.1.4-1.4 1.9-2.4 3.4-2.5s2.9.7 4 1.7a5 5 0 0 1 5.7-2.7 5 5 0 0 1 4.6-2.9c-.3-1.7.8-3.5 2.5-3.9a5 5 0 0 1 1.3-5.2c-.7-.3-1.1-1.2-1-1.9q.2-1.2 1-2.1.3-.3.3-.7 0-.5-.3-.7-.9-1.5.2-2.9c-1.9-1-2.4-3.8-1.1-5.4-2 2-5.1 3.3-7.6 2a6 6 0 0 1-6.6 1.6q-1.4 2-3.8 2.2c-2.4.2-3-.5-4-1.6q-1.3 1.4-3.3.9c-2-.5-2.1-1.1-2.9-2a4 4 0 0 1-3.5.7 4 4 0 0 1-2.4-2.5q-.8 1-2.1 1 0 1-.5 1.7c1.1.6 1.1 2.5 0 3.1q1.6 1 1.7 2.8c.1 1.8-.6 2.3-1.6 2.9 1.3.2 2.2 1.5 2.3 2.8s-.5 2.6-1.3 3.6q2 .7 2.6 2.7c.6 2-.1 2.7-1 3.6 1.6.3 2.8 1.9 2.9 3.6q0 2.5-1.8 4.4l-.3.1c-.4.5-4 1.5-5.2-1.4l-.5-.6q-.7-1.2-.9-2.5 0-1.4 1.1-2.3-.8-.4-1.4-1.1l-.3-.9q-.4-1.2-.1-2.6.1-1.4 1.2-2.3a4 4 0 0 1-2.6-2.5q-.4-2 .9-3.5"/><path fill="#263238" d="M114.7 398.7s-.5.4-.9 1.7q-.3 1 .2 2.3.6 1.4 2.4 2h.1l-.1.1q-1.2 1.1-1.2 3.2 0 1 .3 2c.3 1 .8 1.1 1.5 1.5l.2.1-.2.1q-1.1.8-1 2.3c.1 1.5.5 1.9 1.1 2.6l.3.3.2.3.4.6q.5.6 1.3.8c.8.2 1 .2 1.6.1q.8-.1 1.5-.5l.3-.1q1.6-1.7 1.8-4.1c.2-2.4-1.1-3.3-2.7-3.6l-.3-.1.2-.2q1.3-1.4 1-3.3a4 4 0 0 0-2.5-2.7l-.3-.1.2-.2q1.2-1.4 1.2-3.3c0-1.9-.9-2.5-2.2-2.7l-.5-.1.4-.3q1.3-.9 1.5-2.6c.2-1.7-.6-2.2-1.6-2.8l-.3-.2.3-.2q.7-.4.7-1.3 0-1.2-.7-1.4l-.2-.1.1-.2.5-1.6v-.2h.2q1.2 0 2-.9l.3-.3.1.4q.5 1.6 2.2 2.4c1.7.8 2.4.2 3.4-.6l.2-.1.1.2q1 1.3 2.6 1.9 2.2.7 3.2-.8l.2-.2.2.2q1.5 1.6 3.7 1.5c2.2-.1 2.9-.8 3.7-2.1l.1-.2.2.1c2 .9 4.8.3 6.3-1.6l.1-.1.2.1q1.8.9 3.8.2c2-.7 2.5-1.2 3.5-2.2l.4.3c-1.2 1.4-.8 4.1 1 5l.3.1-.2.2q-.6.8-.5 1.9l.4 1 .2.7q0 .4-.3.7-.8 1-1 2-.2 1.4.8 1.8l.4.2-.3.3a5 5 0 0 0-1.2 4.9l.1.3-.3.1c-1.4.3-2.6 2-2.3 3.6l.1.3h-.3c-1.7-.2-3.7.9-4.3 2.7l-.1.2-.2-.1c-2-.5-4.5.5-5.4 2.6l-.2.3-.3-.3q-1.3-1.3-3.3-1.6-2-.1-3.3 1.4-.5.8-.6 1.7l-.2 2.1c-.2 1.1-.6 1.3-.7 1.9s0 1.3.2 1.9l1 2 .1.1v.1a6 6 0 0 0 2.6 7.3h.1v.1l.3 1.2q.1.6.5.5.5-.2.6-.6l.2-1.1v-.1l.1-.1 1-1.2c1.7-1.6 1.8-4.6.2-6.2l-.2-.2.2-.2a3 3 0 0 0 .9-3.6l-.2-.4h.4c.5 0 1-.7.8-1.1l-.3-.8.7.5q1.6 1 3.7.4l1.8-.7a2 2 0 0 0 1-1.4v-.3l.3.1a4.5 4.5 0 0 0 5.9-2.8l.2-.7.3-.4.4-.2q1.4-.5 2.2-1.6t.7-2.7q0-.7-.3-1.4v-.5q0-.3.3-.4l.5-.5q1-1.1 1-2.5c0-1.4-.4-1.8-1.2-2.3l-.1-.1v-.3l.1-.1q1.3-.8 1.7-2.1t-.6-2.4l-.2-.2.2-.2a3 3 0 0 0 1.2-2.2q.1-1.3-.7-2.3l.1.1-.3-.1-.5-.2.4-.3q1.1-.8 1.3-2.1c.2-1.3-.3-1.7-.9-2.2l-.2-.2.2-.2c.9-.7 1.1-2.1.7-3.1q-.7-1.7-2.4-2.3c-1.7-.6-2.3-.4-3.3.1s-1.8 1.3-2.2 2.4l-.1.2-.2-.1a5 5 0 0 0-4.2-.5q-1.1.3-1.9 1-1 1-.9 1.7v.7l-.4-.6c-.7-1.3-2.4-1.8-3.7-1.5a6 6 0 0 0-3.5 2.1l-.3.3-.1-.4q-.2-.8-1-1.2-1-.5-1.6-.1-1.6.6-2.6 1.8l-.1.1-.1-.1q-1.3-1.5-3-1.8-1.8-.3-2.7 1.3l-.2.4-.1-.5q-.4-2-2-2.6c-1-.4-2.3 0-2.9.8l-.2.2-.1-.3q-.2-.8-.9-1.3t-1.4-.8q-1.6-.5-3-.2c-2 .4-3.5 1.9-4.1 3.5a6 6 0 0 0-.2 3.7q.2.4-.1.6l-.2.5q-.3 1 .2 2l.5.8.3.4.1.5q-1.1 1.5-1.2 3a3 3 0 0 0 .7 2.2q1.4 1.3 1.6 1.1l-.5-.2q-.5-.2-1.2-.9a3 3 0 0 1-.7-2.2q0-1.5 1.2-3 .1-.3-.4-.7l-.6-.9q-.5-1-.2-2.2l.2-.5v-.5l-.2-1.2q0-1.2.4-2.6a6 6 0 0 1 7.5-3.5q.7.3 1.5.9.7.6 1 1.5l-.3-.1c.7-.9 2.1-1.3 3.2-.9q1.9.7 2.3 2.9l-.3-.1q.4-.8 1.3-1.2t1.8-.3q1.8.4 3.2 1.9h-.3q1.1-1.3 2.8-1.9.9-.2 1.8.1 1.2.5 1.2 1.5l-.3-.1a6 6 0 0 1 3.7-2.2c1.5-.3 3.3.3 4.1 1.7l-.4.1q.1-1.2 1-2t2-1.1q2.4-.6 4.6.5l-.3.1q.7-1.7 2.4-2.6c1.7-.9 2.4-.6 3.6-.2s2.2 1.3 2.7 2.5.3 2.8-.8 3.6v-.4q1.1 1 1.1 2.6c0 1.6-.6 1.9-1.5 2.5v-.4l.3.1h.1a3.6 3.6 0 0 1-.6 5.2v-.4q1.2 1.2.8 2.9c-.4 1.7-1.1 1.8-1.8 2.4l.1-.2v.1l-.1-.2q1.4 1 1.4 2.7-.1 1.6-1.1 2.8l-.5.5q-.2.2-.1.4l.4 1.5q.1 1.6-.8 3c-.9 1.4-1.5 1.5-2.5 1.8l-.3.1-.1.2-.2.7q-.2.8-.8 1.4a5 5 0 0 1-5.8 1.6l.3-.2q-.2 1.2-1.2 1.7t-1.9.8q-2 .6-4.1-.4l.4-.3c.3.9-.4 1.8-1.3 1.8l.2-.4c.7 1.4.2 3.3-1.1 4.3v-.4a5 5 0 0 1-.3 6.9l-1 1.2.1-.2q0 .6-.3 1.2-.1.8-1 .9h-.4l-.4-.2-.3-.7-.2-1.1.1.1c-2.7-1.5-4-5-2.9-8v.2q-.6-.9-1.1-2.1-.4-1-.2-2.2l.7-1.9.2-2q0-1 .7-2a4 4 0 0 1 3.7-1.6q2.1.3 3.6 1.8l-.4.1a5.5 5.5 0 0 1 6-2.9l-.3.2c.8-2 2.9-3.2 4.8-3l-.3.3c-.4-1.9 1-3.8 2.7-4.2v1.1c-.7-2 0-4.2 1.4-5.5l.1.4q-1.3-.8-1.1-2.3c.2-1.5.6-1.6 1.1-2.2q.4-.4.1-.8-.4-.6-.5-1.1-.3-1.3.6-2.3l.1.4c-2.1-1.2-2.5-4.2-1.2-5.8l.4.3q-1.6 1.7-3.7 2.3c-2.1.6-2.9.4-4.1-.2l.3-.1a6 6 0 0 1-6.9 1.7l.3-.1q-1.5 2.1-4.1 2.3c-2.6.2-3.1-.6-4.1-1.7h.3c-.9 1-2.4 1.3-3.6.9s-2.2-1.2-2.9-2.1h.3a4 4 0 0 1-3.8.7 4 4 0 0 1-2.5-2.7l.4.1q-1 1.1-2.3 1l.2-.2q0 1-.5 1.8l-.1-.3c1.4.8 1.2 2.9 0 3.4v-.4q1.7 1.1 1.8 3.1c.1 2-.7 2.3-1.7 2.9l-.1-.4c1.5.3 2.4 1.7 2.5 3.1s-.6 2.6-1.3 3.6l-.1-.3q2.2.8 2.7 2.9c.5 2.1-.2 2.7-1.1 3.6l-.1-.3c1.9.4 3 2.3 3 3.9q-.1 2.6-1.9 4.3l-.3.1q-.8.5-1.7.6-1.2.1-1.7-.2l-1.4-.9-.5-.7-.2-.4-.2-.3q-1-1.2-1.2-2.8c-.2-1.6.3-2 1.1-2.5v.2q-1.2-.6-1.6-1.6-.3-1-.3-2.1 0-2.1 1.3-3.3v.1q-1.8-.6-2.4-2.1c-.6-1.5-.3-1.7-.2-2.3l.6-1.3z"/><path fill="#263238" d="m141.2 423.1-.9-.4q-.8-.3-2.2-.2a6 6 0 0 0-2.2.4l-.8.4q-.2-.1.7-.8 1-.5 2.3-.6c1.3-.1 1.8 0 2.4.4zm-2-6.7c0-.1.9.1 1.8.8l.9 1q.2.5.1.6l-.4-.4-1-.8c-.7-.6-1.5-1-1.4-1.2m2.2-1.9q.3-.2 1.4.9c.6.7.6 1.5.5 1.5l-.9-1.2q-1-.9-1-1.2m6.6-3q0-.3.8.1.6.5 1 1.5c.4 1 .6 1.2.5 1.7q0 .8-.3.7l-.1-.7-.7-1.5q-.4-1-.8-1.4zm6-2.7c0-.1 1 .1 1.8 1s1 1.8.8 1.9-.5-.7-1.2-1.5q-1.4-1.2-1.4-1.4m5-4-1.5-.2-1.5-.3q.1-.2 1.6-.2c1.5 0 1.5.6 1.4.7m.3-5.5-1.1-.2q-1.2-.1-1.1-.3 0-.3 1.2-.2c1.2.1 1.1.6 1 .7m1-4.8q-.2.1-1.3-.1l-1.3-.1q0-.4 1.3-.4c1.3 0 1.3.5 1.3.6m.1-5.3q0 .3-1.1.7-1.5.4-1.3.1t1.2-.6 1.2-.2m.9-4.9c-.1.1-.9-.3-2-.3s-2 .4-2.1.3.8-.8 2.1-.8 2.1.7 2 .8m-5.9-.2-.5-1q-.4-.9-.1-1.1.3 0 .6.9.2 1.1 0 1.2m-7.5 2.3q-.3 0-.7-.9c-.4-.9-.1-1.2 0-1.2l.5 1q.3 1 .2 1.1m-6.8 1.3c-.1.1-.8-.2-1.1-1.2s.1-1.7.2-1.6l.3 1.4q.4 1.2.6 1.4m-7.2.5c-.1.1-.6-.4-.6-1.3s.6-1.3.7-1.2-.2.6-.2 1.2zM128 387q-.2 0-.2-1c0-1 .4-.9.5-.9v.9zm-6-2q-.3 0-.1-1 .3-.8.5-.8.2.1 0 .9t-.4.9m-2.2 1.7-.5.3-1.3-.2q-1.6-.7-1.6-1c0-.3.8.2 1.7.5l1.2.3zm-1 1.9q0 .3-1.3.5-1.3-.4-1.2-.7c.1-.3.6.1 1.3.2zm-1 3.4-1.2.3q-1 .3-1.2.2-.2-.4 1.1-.7c1.3-.3 1.4.1 1.3.2m1 6.3-1.3.2-1.3.3c-.2 0 .4-.6 1.2-.8q1.3 0 1.4.3m.6 5.7q0 .3-1.1.7c-1.1.4-1.3 0-1.3-.1l1.1-.4zm1.7 6.2q.2 0-.1.6c-.3.6-.7.5-1.1.6-.9.3-1.8.2-1.8.1l1.6-.6 1-.4z"/><path fill="#000" d="M158.4 389.4c-.6-1.7-2.2-2.8-3.8-3.8q-.6 2.1-.4 4.3 0 1 .9 1.2a6 6 0 0 0-.6 5.1l.1.5q0 .3-.3.6-1.2 2-.6 4.3c-1.6.6-2.7 2.4-2.4 4-1.7-.1-3.4 1-4 2.6q-2.3-.2-3.5 1.8c-2-.7-4.4-.7-6.3.4s-3.1 3.3-2.8 5.4l-.1-1.4q-.1 1 .1 2l-.1-.6.1 1.2.9-3.3c4.5 1.3 9.4.9 13.7-1q1.8-.8 3.2-2 1.2-1.2 2.1-2.7 1.1-1.7 1.9-3.6a36 36 0 0 0 1.9-15" opacity=".3"/><path fill="#a3a3a3" d="m130.6 287.6-.1-.6-.1-1.9-.1-1.4-.3-1.6-.3-1.9-.5-2.2q-1-4.6-4.4-10.5a30 30 0 0 0-10-11.1l-1.7-1.3-1.8-1.1-1.9-1.1-2-1-1-.5-1.1-.4-2.2-.8-2.3-.6q-1.2-.4-2.4-.5-2.4-.4-5-.6l-2.6-.1-2.6.1-1.3.1-1.3.2-2.6.4q-2.6.6-5.2 1.5t-5.1 2.2l-2.4 1.5-1.2.8-1.2.9q-2.3 1.8-4.4 3.8-2 2.2-3.8 4.5l-.9 1.2-.8 1.3-.8 1.3-.7 1.3-1.3 2.8-1.1 2.9a39 39 0 0 0 0 24.8l1.1 2.9 1.3 2.8.3.7.4.7.8 1.3.8 1.3.9 1.2q1.8 2.5 3.8 4.5 2.2 2 4.5 3.8l1.2.9 1.2.8 2.4 1.5q2.6 1.3 5.1 2.2 2.6 1 5.2 1.5l2.6.4 1.3.2 1.3.1 2.6.1 2.6-.1q2.5 0 5-.6l2.4-.5 2.3-.6 2.2-.8 1.1-.4 1-.5 2-1 1.9-1.1 1.8-1.1 1.7-1.3a39 39 0 0 0 14.4-21.6l.5-2.2.3-1.9.3-1.6.1-1.4.1-1.9zv.6l-.1 1.9-.1 1.4-.2 1.7-.3 1.9-.5 2.2a40 40 0 0 1-14.3 21.9l-1.7 1.3-3.8 2.3-2.1 1-1 .5-1.1.4-2.2.8-2.3.6-2.4.6q-2.4.4-5 .6l-2.6.1-2.6-.1-1.3-.1-1.3-.2-2.7-.4q-2.7-.6-5.3-1.5-2.7-1-5.2-2.3l-2.5-1.5-1.2-.8-1.2-.9q-2.3-1.8-4.5-3.8-2-2.1-3.9-4.6l-.9-1.2-.8-1.3-.8-1.3-.4-.7-.3-.7-1.4-2.8-1.1-2.9q-2-6-2.1-12.5.1-6.5 2.1-12.5l1.1-2.9 1.4-2.8.7-1.4.8-1.3.8-1.3.9-1.2q1.9-2.4 3.9-4.6 2.2-2 4.5-3.8l1.2-.9 1.2-.8 2.5-1.5q2.5-1.3 5.2-2.3 2.6-1 5.3-1.5l2.7-.4 1.3-.2 1.3-.1 2.6-.1 2.6.1q2.6.2 5 .6l2.4.6 2.3.6 2.2.8 1.1.4 1 .5 2.1 1 1.9 1.1 1.9 1.2 1.7 1.3q6.7 5.3 10 11.3c3.3 6 3.7 7.5 4.3 10.6l.5 2.2.3 1.9.2 1.7.1 1.4.1 1.9z"/><path fill="#e56363" d="M107.8 295.4a8 8 0 0 0-.4-8q-1-1.2-1.5-2.5-.2-1 .1-2.1.6-2.5.4-5.1c-.2-2.6-1-3.4-2.5-4.3-1.1-.6-2.4-.8-3.3-1.6-1.2-1.1-1.3-2.8-2-4.2a7 7 0 0 0-6-3.5q-3.7.1-6.9 2.4a9 9 0 0 0-3 3.4q-.6 1.8-.5 3.7c.2 3 .6 6.7 2 9.4.4 1.9 1.6 3.6 2.6 5.3a54 54 0 0 1 6.4 14.3c.4 1.6.9 3.4 2.1 4.5 1.8 1.7 4.6 1.6 6.9.8q4-1.4 5.9-4.9a8 8 0 0 0-.3-7.6"/><path fill="#263238" d="m107.8 295.4.2.2.4.6q.5.9.7 2.8a8 8 0 0 1-1.1 4.4q-1.4 2.4-4.5 4-1.5.8-3.4 1.1c-1.9.3-2.6.1-3.8-.5a5 5 0 0 1-1.6-1.3l-1-1.9-1.3-4.2q-1.3-4.3-3.7-8.6l-2.6-4.3q-1.6-2-2.2-4.8l.5-.1v1.2l-.5-1.1a20 20 0 0 1-1.8-7.4c-.2-2-.5-4 .3-5.9s2.5-3.1 4.1-4.1 3.4-1.7 5.3-1.8q2.8-.1 5.1 1.4 1 .8 1.7 2c.7 1.2.6 1.6.9 2.4q.3 1.2 1.1 2c.8.8 1.2.8 2 1.1q1.1.4 2 1.1t1.3 1.8q.8 2 .6 4.1l-.5 3.7q-.1.9 0 1.6.2 1 .7 1.4 1 1.2 1.5 2.5.5 1.2.6 2.4 0 2.3-.4 3.3l-.4.8zl.4-1.1q.5-1 .3-3.3 0-1-.6-2.3t-1.5-2.4q-.5-.6-.7-1.5t0-1.8l.5-3.7q.2-2-.6-3.9-.4-1-1.2-1.7-1-.9-1.9-1-1.1-.3-2.1-1.1c-1-.8-.9-1.4-1.2-2.2s-.5-1.6-.9-2.3-.9-1.3-1.6-1.8a7 7 0 0 0-4.8-1.3q-2.6.3-5 1.7c-1.5 1-3.1 2.1-3.8 3.9s-.4 3.7-.3 5.7a23 23 0 0 0 1.8 7.2q.7 2.5 2.2 4.6c1.5 2.1 1.8 2.9 2.6 4.3q2.3 4.4 3.7 8.7l1.2 4.2q.7 2 2.4 3c1.7 1 2.4.7 3.6.5a9 9 0 0 0 3.3-1q3-1.5 4.4-3.8 1.3-2.3 1.1-4.2c-.3-2.3-1.4-3.4-1.3-3.4"/><path fill="#455a64" d="M97.9 298.4c-1 0-4-.5-4.8-1.4 1.4 0 3.8-.5 4.5-.8l-.1-.6a9 9 0 0 1-4.7.5c-.9-.1-2.8-3.5-2.8-3.5a10 10 0 0 0 6.2-.5l-.3-.6a8 8 0 0 1-3.2.7c-1.6 0-3.8-.6-4.2-1.4s.4-1.6 1.2-2.1l3.2-1.7-.4-.5-2.9 1.5c-.7.5-1.2.7-1.9 2.1-.5 1.1-1 .6-1.9 1.2l-1.9 1.4s-.5-3.2.6-5.4 1.2-3 1.6-3.6c.6-.9 2.5-1 3.2-1l-.3-.5c-.6 0-2.2 0-2.8.6-.1-1.4.8-2.5 1.2-3.3l-.3-.6c-.5 1-1.3 2.4-1.5 3.8-.2 1.5-.8 2.4-1.5 3.8-.7 1.5-.9 3.7-.9 5.6s-.1 5.2-2.8 6.4c-2.7 1.1-6 1.2-6 1.2l.1 1.4s2.9.3 6.7-1.6c3.8-1.8 2.8-5.2 3.5-6.1.8-1.1 3.1-2.9 4.4-1s2.4 4.5 5 5.6c1.6.7 3.5.9 4.1.8q-.3 0-.3-.4"/><path fill="#e56363" d="M86.7 277.7s-1.6 3.2-1.8 4.8-.6 2.4-1.4 3.8c-.7 1.5-.9 3.7-.9 5.6s-.2 3.5-3 4.6-6.3 1-6.3 1l.1 1.4s3.1.5 6.9-1.4 3-3.4 3.6-4.3c.8-1.1 3.1-2.9 4.4-1s3.5 4 5.5 4.4c2.5.5 3.8.2 3.8.2l-.2-.7s-3.7.3-4.6-.4c1.5-.4 4.1-1.5 4.1-1.5l-.2-.5s-2.4 1.4-4.8 1.1c-.9-.1-2.6-2.6-2.6-2.6s2.7-.1 3.6-.3l2.6-.9-.4-.6s-1.3.7-3 1c-1.6.2-3.9-.3-4.3-1s.5-2.3 1.3-2.8l2.8-1.4-.4-.5-2.7 1.3c-.7.5-1 .7-1.7 2.1-.5 1.1-1.2 1.2-2.1 1.8-.9.5-1.9 1.4-1.9 1.4s-.5-3.2.6-5.4 1.2-3 1.6-3.6c.7-1 3.5-1 3.5-1l-.3-.5s-2.3-.2-3 .6c-.1-1.8 1.2-4.3 1.2-4.3z"/><path fill="#263238" d="m98.2 305.3-.2-.3-.3-1v-4a15 15 0 0 0-2.2-8.9q-1-1.5-2.2-2.9l-4.6-5.6a20 20 0 0 1-2.5-5.4q-.5-2.5-.4-4l.2-1.1.1-.4c.1 0-.5 2.1.4 5.3q.7 2.5 2.5 5.2c1.8 2.7 2.8 3.7 4.6 5.6a16 16 0 0 1 3.7 6.2q.8 3.3.8 5.9c0 2.6-.3 3-.1 4q0 1.3.2 1.4"/><path fill="#000" d="M86.7 277.7s-1.6 3.2-1.8 4.8-.6 2.4-1.4 3.8c-.7 1.5-.9 3.7-.9 5.6s-.2 3.5-3 4.6-6.3 1-6.3 1l.1 1.4s3.1.5 6.9-1.4 3-3.4 3.6-4.3c.8-1.1 3.1-2.9 4.4-1s3.5 4 5.5 4.4c2.5.5 3.8.2 3.8.2l-.2-.7s-3.7.3-4.6-.4c1.5-.4 4.1-1.5 4.1-1.5l-.2-.5s-2.4 1.4-4.8 1.1c-.9-.1-2.6-2.6-2.6-2.6s2.7-.1 3.6-.3l2.6-.9-.4-.6s-1.3.7-3 1c-1.6.2-3.9-.3-4.3-1s.5-2.3 1.3-2.8l2.8-1.4-.4-.5-2.7 1.3c-.7.5-1 .7-1.7 2.1-.5 1.1-1.2 1.2-2.1 1.8-.9.5-1.9 1.4-1.9 1.4s-.5-3.2.6-5.4 1.2-3 1.6-3.6c.7-1 3.5-1 3.5-1l-.3-.5s-2.3-.2-3 .6c-.1-1.8 1.2-4.3 1.2-4.3z" opacity=".3"/><path fill="#fff" d="m96.7 269.9-.6-1.3q-.4-1.2-1.6-2.2c-.9-.8-2.1-.8-2.9-.8l-1.3.1q0-.2 1.3-.4h1.5q1 .1 1.7.7 1.5 1.2 1.7 2.5.3 1 .2 1.4"/><path fill="#a3a3a3" d="m126.5 171.8-.1-.6-.1-1.9-.1-1.4-.3-1.6-.3-1.9-.5-2.2q-1-4.7-4.4-10.5a30 30 0 0 0-10-11.1l-1.7-1.3-1.8-1.1-1.9-1.1-2-1-1-.5-1.1-.4-2.2-.8-2.3-.6q-1.2-.4-2.4-.5-2.4-.4-5-.6l-2.6-.1-2.6.1-1.3.1-1.3.2-2.6.4q-2.6.6-5.2 1.5t-5.1 2.2l-2.4 1.5-1.2.8-1.2.9q-2.3 1.8-4.4 3.8-2 2.2-3.8 4.5l-.9 1.2-.8 1.3-.8 1.3-.7 1.3-1.3 2.8-1.1 2.9a39 39 0 0 0 0 24.8l1.1 2.9 1.3 2.8.3.7.4.7.8 1.3.8 1.3.9 1.2q1.8 2.5 3.8 4.5 2.2 2 4.5 3.8l1.2.9 1.2.8 2.4 1.5q2.6 1.3 5.1 2.2 2.6 1 5.2 1.5l2.6.4 1.3.2 1.3.1 2.6.1 2.6-.1q2.5 0 5-.6l2.4-.5 2.3-.6 2.2-.8 1.1-.4 1-.5 2-1 1.9-1.1 1.8-1.1 1.7-1.3a39 39 0 0 0 14.4-21.6l.5-2.2.3-1.9.3-1.6.1-1.4.1-1.9zv.6l-.1 1.9-.1 1.4-.2 1.7-.3 1.9-.5 2.2a40 40 0 0 1-14.3 21.9l-1.7 1.3-3.8 2.3-2.1 1-1 .5-1.1.4-2.2.8-2.3.6-2.4.6q-2.4.4-5 .6l-2.6.1-2.6-.1-1.3-.1-1.3-.2-2.7-.4q-2.7-.6-5.3-1.5-2.7-1-5.2-2.3l-2.5-1.5-1.2-.8-1.2-.9q-2.3-1.7-4.5-3.8-2-2.1-3.9-4.6l-.9-1.2-.8-1.3-.8-1.3-.4-.7-.3-.7-1.4-2.8-1.1-2.9q-2-6-2.1-12.5.1-6.5 2.1-12.5l1.1-2.9 1.4-2.8.7-1.4.8-1.3.8-1.3.9-1.2q1.9-2.4 3.9-4.6 2.2-2 4.5-3.8l1.2-.9 1.2-.8 2.5-1.5q2.5-1.3 5.2-2.3 2.6-1 5.3-1.5l2.7-.4 1.3-.2 1.3-.1 2.6-.1 2.6.1q2.6.2 5 .6l2.4.6 2.3.6 2.2.8 1.1.4 1 .5 2.1 1 1.9 1.1 1.9 1.2 1.7 1.3q6.7 5.3 10 11.3c3.3 6 3.7 7.5 4.3 10.6l.5 2.2.3 1.9.2 1.7.1 1.4.1 1.9z"/><path fill="#e56363" d="M112.1 157.8q-.1-.4-.6-.6c-1.3-.6-3-.1-4.1-.3-1.9-.2-4.8-1-6.7-1.1-3.9-.2-6.2.4-8.1 1.1q0-.6-.6-.4l-.9.9-.8.3c-6 1.8-10.7-3.4-16.6-2.6-4.7.6-8.4 4.4-10.2 8.6a36 36 0 0 0-1.1 18.3q.5 4.3 1.5 8.7 1.4.5 2.9-.9c.9-.9 1.5-1.8 2.7-2.3q2-.6 4.2-.7 2.9-.3 5.4-1.5c3-1.4 8.3-3.9 9.7-6.8 1.5-3.1.1-7.5-.3-10.3h.1q.4 2 .4 4l.3.2.2.5q.8 2.1 1.4 4.7.5-.2.9 0l.9.1a6 6 0 0 0 4 .1q3.5-1 6.2-3.4a21 21 0 0 0 4-4.9l.2-.3.4-.7 2.7-5.6 1.8-3.3q.3-1 .1-1.8"/><path fill="#263238" d="m112.1 157.8.1.5-.3 1.4c-.3 1-1.2 2.1-1.9 3.7l-2.7 5.7a17 17 0 0 1-12 9.2q-1.3.2-2.7-.4h.1l-.9-.1h-1.1v-.2l-.7-2.7-.5-1.4-.2-.7-.1-.3-.1-.1h-.2v-.2l-.1-2.3-.2-1.2-.1-.3v-.1l.1.1q.1.2.3 0v.1l.1.3.9 4.9c.4 2.5.1 3.6-.8 5.2s-2.4 2.7-4 3.7q-2.3 1.4-4.9 2.6-2.6 1.4-5.4 1.8c-1.9.4-3.9.2-5.6 1.1q-1.1.8-2.1 2c-1 1.2-1.9 1.2-3 .9l-.2-.1h-.1v-.2q-1-4.4-1.5-8.6c-.5-4.2-.6-5.7-.6-8.4q0-4.2 1.1-8.1 1.2-4 3.8-6.8 2.8-2.8 6.3-3.8a12 12 0 0 1 6.8.6c2.1.7 4 1.6 6 1.9q3 .6 5.6-.4l-.1.1.8-.8.2-.2q.2-.2.4 0 .4.2.4.6l-.2-.2q4.6-1.5 8.3-1.1l6.2 1.1h2.3q1 0 1.7.2t.9.5zs-.2-.5-1.1-.7l-1.6-.1q-1 .2-2.3 0l-6.2-1q-3.7-.4-8.2 1.1l-.2.1v-.3l-.1-.2-.3.1-.7.8h-.1q-2.6 1-5.8.5-3-.8-6-1.9-3.1-1.2-6.6-.6c-3.5.6-4.4 1.8-6.1 3.6s-3 4.1-3.7 6.6-1 5.2-1 7.9.3 5.5.6 8.4q.5 4.3 1.5 8.5l-.2-.2h.2q1.4.2 2.5-.8c1.1-1 1.3-1.5 2.2-2s1.9-.7 2.9-.8l2.9-.3q2.9-.5 5.3-1.7 2.6-1.2 4.8-2.6c2.2-1.4 3-2.1 3.8-3.5q1.1-2.4.7-4.9t-.9-4.9l-.1-.3v-.5q.1-.3.4-.1l.1.2v.2l.1.3.2 1.2.1 2.4-.2-.2q.3 0 .5.3t.1.4l.2.7.5 1.4.7 2.8-.2-.2h1l.8.1q1.3.4 2.5.4c1.2 0 1.7-.3 2.4-.5a19 19 0 0 0 9.4-8.5l2.8-5.7 2-3.6q.4-1 .4-1.4z"/><path fill="#455a64" d="m91.5 179.9.8-1.6.3-.5s-2.1-1.7-2.2-6.6-.6-10 .1-11.9 5.1-3.2 5.1-3.2-1.6-.8-3.5-.4c-1.9.3-3.3 2.5-5.5 1.4q-1.3-.7-3.8-1.4-3-.8-5.4-.3l1 .2q2 .5 4.3 1.7 2.1 1.4 3 2.7c1.1 1.4 1.6 2.9 2.1 5.6.8 4.2 1.1 14.6 1.1 14.6s.4 0 .9.3q.5.2 1 1.1l1.3 2.2.9-.4c0-.1-1.7-2.6-1.5-3.5"/><path fill="#fff" d="m64.3 178.8-.3-.8-.5-2.2q-.5-3 .4-7.4a20 20 0 0 1 4.4-8.6l.6-.6-1.7 2.5c-1.7 2.4-2.1 4-2.8 6.7q-1 4.3-.5 7.3c.5 3 .5 3 .4 3.1m34.5-21.3c0 .2-1.5 0-3.2.5s-2.8 1.4-2.9 1.3.9-1.3 2.8-1.8 3.3-.1 3.3 0"/><path fill="#a3a3a3" d="m197 72.9-.1-.6-.1-1.9-.1-1.4-.3-1.6-.3-1.9-.5-2.2q-1-4.7-4.4-10.5a30 30 0 0 0-10-11.1l-1.7-1.3-1.8-1.1-1.9-1.1-2-1-1-.5-1.1-.4-2.2-.8-2.3-.6q-1.2-.4-2.4-.5-2.4-.5-5-.6l-2.6-.1-2.6.1-1.3.1-1.3.1-2.6.4q-2.6.6-5.2 1.5t-5.1 2.2l-2.4 1.5-1.2.8-1.2.9q-2.4 1.8-4.4 3.8-2 2.2-3.8 4.5l-.9 1.2-.8 1.3-.8 1.3-.7 1.3-1.3 2.8-1.1 2.9a39 39 0 0 0 0 24.8l1.1 2.9 1.3 2.8.3.7.4.7.8 1.3.8 1.3.9 1.2q1.8 2.5 3.8 4.5 2.2 2 4.5 3.8l1.2.9 1.2.8 2.4 1.5q2.6 1.3 5.1 2.2 2.6 1 5.2 1.5l2.6.4 1.3.2 1.3.1 2.6.1 2.6-.1q2.5 0 5-.6l2.4-.5 2.3-.6 2.2-.8 1.1-.4 1-.5 2-1 1.9-1.1 1.8-1.1 1.7-1.3a39 39 0 0 0 14.4-21.6l.5-2.2.3-1.9.3-1.6.1-1.4.1-1.9-.1 1.9-.1 1.4-.2 1.7-.3 1.9-.5 2.2a40 40 0 0 1-14.3 21.9l-1.7 1.3-3.8 2.3-2.1 1-1 .5-1.1.4-2.2.8-2.3.6-2.4.6q-2.4.4-5 .6l-2.6.1-2.6-.1-1.3-.1-1.3-.2-2.7-.4q-2.7-.6-5.3-1.5-2.7-1-5.2-2.3l-2.5-1.5-1.2-.8-1.2-.9q-2.3-1.7-4.5-3.8-2-2.2-3.9-4.6l-.9-1.2-.8-1.3-.8-1.3-.4-.7-.3-.7-1.4-2.8-1.1-2.9q-2-6-2.1-12.5.1-6.5 2.1-12.5l1.1-2.9 1.4-2.8.7-1.4.8-1.3.8-1.3.9-1.2q1.9-2.5 3.9-4.6 2.2-2 4.5-3.8l1.2-.9 1.2-.8 2.5-1.5q2.5-1.3 5.2-2.3 2.6-1 5.3-1.5l2.7-.4 1.3-.2 1.3-.1 2.6-.1 2.6.1q2.6.1 5 .6l2.4.6 2.3.6 2.2.8 1.1.4 1 .5 2.1 1 1.9 1.1 1.9 1.2 1.7 1.3q6.7 5.3 10 11.3c3.3 6 3.7 7.5 4.3 10.6l.5 2.2.3 1.9.2 1.7.1 1.4.1 1.9z"/><path fill="#e56363" d="m157.3 40.8-.2 17.7-3.8 3.9 2 3.8s4.1-3.4 4.3-6.1c0 0 .7 3 2.8 5.1l.7.6 2.7-2.8s-4.3-2.7-4.4-10.3.4-12 .4-12z"/><path fill="#000" d="m157.3 40.8-.2 17.7-3.8 3.9 2 3.8s4.1-3.4 4.3-6.1c0 0 .7 3 2.8 5.1l.7.6 2.7-2.8s-4.3-2.7-4.4-10.3.4-12 .4-12z" opacity=".3"/><path fill="#e56363" d="M157 73.2q0-1-.2-1.7-.5-2.3-1.5-4.4l1.3-3.8c.5-1.4.5-3.7.1-5.2-1.2-4-3.8-6.4-6.7-7l-.7-.3c-2-.7-3.3-.1-8.2 5.7a38 38 0 0 0-8.3 17.6l-.2 1.5-.3 1.2q-.6 2.8-.7 5.9v-.1 2.6q0 3.4.6 6.1l1.4 5.6q.3 1.3 1.6 2.2c1.5 1.1 5.7.6 8 .1 3-.6 6.5-1.4 9.3-2.5 2.3-1 4-1.6 4.6-4.1s.7-5.2.3-7.8l.2-.9c.9-3.4 1.2-7.5-.6-10.7m27.5 11.7v-1.1l-.2-4q-.4-4.8-2.3-10.6-3.1-9.2-10.2-16c-1-1-2.3-1.9-3.8-1.8q-1.4.2-2.1 1.3-1.2 2.2-1.1 4.5-.2 2.4-1.1 4.7l-2.1 3.8q-1.6 3.3-1 6.9c.6 3.6 1.4 4.6 2.9 6.5q1.6 1.7 3 3.7 1.1 2 1.3 4.2c-.4 3.8 1.6 8.3 5.9 8.7l5 1.1c3.2.3 6-2.1 6.1-5.4z"/><path fill="#263238" d="M184.6 87.4v1.1c-.1.7-.4 1.9-1.4 2.7a6 6 0 0 1-4.4 1.1q-1.4-.1-2.7-.5c-1.3-.4-1.8-.8-2.6-1.4a18 18 0 0 1-3.8-4.1l-2.7-3.6q-1.2-1.5-2.1-2.2l-.9-.7.3.1.7.4q1 .6 2.2 2.1L170 86q1.5 2.2 3.7 4l2.4 1.4q1.3.4 2.5.5 2.6.1 4.2-.9 1.4-1.3 1.5-2.5c.1-1.2.2-1.1.3-1.1m-26.9-3.5-.3 1.1-.5 1.2-.8 1.5a27 27 0 0 1-19.3 11.6h-1.1l4.1-.7a20 20 0 0 0 9-4.1c3.2-2.1 5.6-4.8 7-6.9 1.3-2.2 1.8-3.8 1.9-3.7m-25-8.8v1.4q0 1.4.8 3.7.5 1.1 1.4 2.2a5 5 0 0 0 2.4 1.7c2 .7 4.4.2 6.7-.5q3.6-1.1 6.5-2.5c2.9-1.4 3.4-2.2 4.4-3.5s1.5-2.5 1.7-3.4l.3-1.4v.4l-.1 1.1q-.2 1.5-1.6 3.5a10 10 0 0 1-4.5 3.7q-3 1.5-6.6 2.5c-3.6 1-4.9 1.3-7 .5q-1.6-.7-2.5-1.8c-.9-1.1-1.1-1.6-1.4-2.3q-.8-2.4-.7-3.8l.1-1.1z"/><path fill="#000" d="M156.6 86c.6 3-1.2 6-3.5 8-2.5 2.2-3.8 2.5-7.2 3.8a23 23 0 0 1-9 1.5s9.4-2.3 13.5-5.8c5.5-4.5 6.2-7.5 6.2-7.5m9.1-5c2.3 3.3 3.6 6.5 5.2 8.6s3.9 3.8 6.5 4.1 5.5-.8 6.6-3.2c-3.1 2.2-7.9 2.2-10.7-.3q-1.9-1.9-3.5-4c-1.2-1.5-2.7-4.3-4.2-5.3" opacity=".3"/><path fill="#fff" d="M147.4 52q0 .2-2.6 2.7c-2.6 2.5-3.6 4.3-5.4 7.4s-2.9 6.1-3.6 8.4c-.7 2.2-.9 3.7-1 3.7l.1-1 .6-2.7a37 37 0 0 1 9.1-15.9l2.1-1.9zm-12.2 43.1c-.1.1-1.2-2.4-1.9-5.5-.7-3.2-.7-5.8-.5-5.8s.3 2.6 1 5.7zm33.4-42.3c.1.1-1 .9-1.5 2.8q-.4 1.5-.5 3.5t-.9 4.3q-1 2.2-2 3.9-.9 1.8-1.2 3.3c-.3 2 .3 3.2.2 3.2l-.4-.8q-.3-.8-.2-2.4c.1-1.6.5-2.2 1.1-3.4l1.9-3.9q.8-2.1.9-4.2.2-2 .6-3.5a5 5 0 0 1 1.2-2.1z"/></svg>