<svg fill="none" viewBox="0 0 131 36" xmlns="http://www.w3.org/2000/svg"><path clip-rule="evenodd" d="M12.9952 11.9247C12.9952 11.3827 13.1759 10.5998 13.8381 10.4794C13.8381 9.93736 13.7177 9.45559 13.5973 8.91359C13.4167 8.3716 13.1759 8.01027 12.4534 7.82961C12.032 7.76938 11.6707 7.88983 11.5503 8.31138C11.3095 8.91359 11.2493 9.57603 11.2493 10.2385C11.2493 11.5633 11.3095 13.0087 11.5503 14.2733C11.7309 14.1529 11.9115 14.0926 12.1524 14.0324C12.4534 13.9722 12.7544 13.8518 13.0555 13.6711C13.2963 13.5506 13.4769 13.5506 13.4167 13.2495C13.4167 13.0689 13.1759 13.0689 13.1759 12.7678C13.1759 12.7075 13.1759 12.6473 13.1157 12.5871H13.0555C12.935 12.5871 12.9952 12.5269 12.9952 12.4064C12.9952 12.286 12.9952 12.2258 12.935 12.1656C12.935 12.1053 12.935 12.0451 12.9952 11.9247C12.9952 11.9849 12.9952 11.9849 12.9952 11.9247ZM13.9585 22.1623C13.8381 23.0054 13.8381 23.7883 13.7177 24.6314C13.5973 25.4745 13.5371 26.1369 13.7177 26.98C13.8983 28.064 13.8983 28.9674 13.7177 29.9309C13.6575 30.3524 13.5973 30.7138 13.6575 31.1353C13.7177 31.5569 13.7177 31.9784 13.7177 32.4H13.9585V22.1623C14.0188 22.1623 14.0188 22.1623 13.9585 22.1623ZM12.935 30.1116C12.8748 29.6298 12.6942 29.2685 12.5738 28.7867C12.3932 28.1243 12.333 27.5823 12.3932 26.9198C12.5136 26.1972 12.5136 25.7154 12.333 24.9927C12.2126 24.511 12.1524 23.969 12.1524 23.427C12.0922 22.1021 12.1524 20.717 12.4534 19.4524C12.5738 18.7297 12.5738 18.1877 12.333 17.465C12.2126 17.1639 12.1524 16.8026 12.1524 16.5015C12.1524 16.4413 12.0922 16.4413 12.0922 16.5015C12.0922 16.8026 12.032 17.0435 11.9115 17.3446C11.7309 17.7059 11.6707 18.0673 11.4901 18.4286C11.3697 18.7297 11.1891 19.0308 11.0085 19.3319C10.7676 19.6932 10.4666 19.9943 10.1054 20.3557C9.86454 20.5966 9.80433 20.717 9.80433 21.0181C9.80433 21.3794 9.68392 21.6203 9.56351 21.9214C9.5033 22.1021 9.38289 22.343 9.26248 22.5237C9.20227 22.6441 9.08186 22.5839 9.14206 22.4634C9.20227 22.2828 9.26247 22.1623 9.32268 21.9817C9.32268 21.9214 9.26248 21.9214 9.26248 21.9817C9.20227 22.1623 9.08186 22.343 9.02165 22.5237C8.96144 22.6441 8.78083 22.6441 8.84103 22.4634C8.90124 22.2828 9.02165 22.1021 9.08186 21.9214C9.08186 21.8612 9.02165 21.8612 9.02165 21.9214C8.90124 22.1021 8.84103 22.343 8.72062 22.5237C8.66041 22.6441 8.4798 22.6441 8.54 22.4634C8.66041 22.2828 8.72062 22.0419 8.84103 21.8612C8.84103 21.801 8.84103 21.801 8.78083 21.8612C8.72062 22.0419 8.60021 22.2225 8.54 22.343C8.4798 22.4634 8.35938 22.4634 8.41959 22.2828C8.54 21.9214 8.72062 21.6203 8.84103 21.259C8.90124 21.1386 8.84103 21.1386 8.72062 21.1988C8.66041 21.259 8.60021 21.259 8.54 21.3192C8.4798 21.3192 8.41959 21.3794 8.35938 21.3192C8.23897 21.3192 8.23897 21.1988 8.35938 21.1386C8.41959 21.1386 8.4798 21.0783 8.54 21.0181C8.60021 20.9579 8.66041 20.8977 8.72062 20.8375C8.84103 20.717 8.96145 20.6568 9.08186 20.5966C9.20227 20.5363 9.26247 20.5363 9.32268 20.3557C9.74412 19.4524 10.1656 18.4888 10.6472 17.6457C10.7676 17.4048 10.8278 17.2844 10.8278 17.0435C10.8278 16.6822 10.9482 16.3811 11.0687 16.0197C11.1289 15.7186 11.1289 15.4777 11.1289 15.1164C11.1289 14.8755 11.1289 14.6949 11.1891 14.5744C11.1289 14.3937 11.1289 14.2733 11.1289 14.0926C11.0084 12.7678 10.888 11.3827 11.0085 10.0578C11.0687 9.39536 11.1289 8.73293 11.1289 8.07049C11.1891 7.46828 11.1891 6.92628 11.1891 6.32407C11.1289 5.66163 11.0085 4.9992 10.1656 4.87875C9.56351 4.87875 9.5033 5.24008 9.38289 5.78207C9.26248 7.22739 9.14206 8.67271 8.84103 10.118C8.60021 11.3225 8.4798 12.4064 8.66041 13.6109C8.78083 14.5142 8.84103 15.4175 8.90124 16.2606C8.90124 16.5015 8.90124 16.6822 8.90124 16.9231C8.90124 17.2242 8.54 17.2844 8.54 16.9231C8.54 16.7424 8.54 16.5015 8.54 16.3208C8.54 15.2971 8.35938 14.2131 8.23897 13.1291C8.17877 11.9247 8.29918 10.7805 8.54 9.57603C8.84103 8.07049 9.08186 6.6854 9.14206 5.3003C9.14206 4.51742 9.08186 3.73454 8.17877 3.6141C7.03485 3.49366 6.79403 4.15609 6.493 5.11964C7.09506 5.54119 6.97465 6.1434 6.85423 6.80584C6.61341 7.70916 6.43279 8.67271 6.19197 9.57603C5.95114 10.5998 5.77053 11.5633 5.83073 12.6473C5.95114 14.0926 6.13176 16.0197 6.13176 17.465C6.13176 17.7662 5.77053 17.8264 5.71032 17.465C5.58991 16.5015 5.58991 15.4777 5.5297 14.5142C5.40929 13.0087 5.34908 11.5633 5.65011 10.118C5.77053 9.45559 5.89094 8.85337 6.07156 8.19093C6.19197 7.70916 6.31238 7.22739 6.43279 6.74562C6.79403 4.93897 4.80723 4.69809 4.08476 6.08318C2.57961 8.91359 2.63981 12.5269 2.76023 15.6584C3.84393 17.0435 4.62661 18.7899 4.98785 20.3557C5.28888 21.801 6.07156 22.9452 7.21547 23.8485C7.33588 23.969 7.27568 24.0894 7.15526 24.0292C6.73382 23.969 6.25217 23.5474 5.95114 23.3065C5.4695 22.885 5.16847 22.343 4.92764 21.6203C4.68682 20.717 4.38579 19.8137 4.02455 18.9104C3.60311 17.8264 3.06125 16.8026 2.21837 15.9595C1.79693 15.538 1.25507 15.1164 0.592809 15.3573C-0.00925155 15.538 -0.0694573 16.2004 0.0509547 16.7424C0.291779 18.9104 1.31528 21.0181 1.73672 23.3065C1.97755 24.5712 2.15817 25.7154 3.06126 26.7994C4.26538 28.2447 5.4695 29.8105 6.91444 31.0149C8.29918 32.1591 9.86454 32.1591 12.4534 32.2795C13.1157 31.858 13.0555 31.0149 12.935 30.1116Z" fill="#02AEC4" fill-rule="evenodd"></path><path clip-rule="evenodd" d="M14.32 29.9309C14.3802 30.3525 14.4404 30.7138 14.3802 31.1354C14.32 31.5569 14.32 31.9785 14.32 32.4H14.0791V22.1624C14.0791 22.1624 14.0791 22.1624 14.1393 22.2226C14.2598 23.0657 14.2598 23.8486 14.3802 24.6917C14.5007 25.5348 14.5609 26.1972 14.3802 27.0403C14.1393 28.0641 14.1393 28.9674 14.32 29.9309Z" fill="#02AEC4" fill-rule="evenodd"></path><path clip-rule="evenodd" d="M27.9868 16.5014C27.9868 16.6219 27.9868 16.7423 27.9868 16.923C27.7459 19.0909 26.7224 21.1987 26.301 23.4871C26.0602 24.7518 25.8795 25.896 24.9765 26.98C23.7723 28.4253 22.508 29.991 21.1233 31.1955C19.7385 32.2794 18.1732 32.2794 15.5843 32.3999C14.9221 31.8579 14.9221 30.9546 15.1027 30.1115C15.1629 29.6297 15.3435 29.2684 15.4639 28.7866C15.6445 28.1242 15.7047 27.5822 15.6445 26.9197C15.5241 26.1971 15.5241 25.7153 15.7047 24.9926C15.8251 24.5109 15.8853 23.9689 15.8853 23.4269C15.9456 22.102 15.8853 20.7169 15.5843 19.4523C15.4639 18.7296 15.4639 18.1876 15.7047 17.465C15.8251 17.1639 15.8853 16.8025 15.8853 16.5014C15.8853 16.4412 15.9456 16.4412 15.9456 16.5014C15.9456 16.8025 16.0058 17.0434 16.1262 17.3445C16.3068 17.7058 16.4272 18.0672 16.5476 18.4285C16.668 18.7296 16.8486 19.0307 17.0293 19.3318C17.2701 19.6932 17.5711 19.9943 17.9324 20.3556C18.1732 20.5965 18.2334 20.7169 18.2334 21.018C18.2334 21.3794 18.3538 21.6202 18.4742 21.9213C18.5344 22.102 18.6548 22.3429 18.7752 22.5236C18.8354 22.644 18.9559 22.5838 18.8957 22.4633C18.8354 22.2827 18.7752 22.1622 18.715 21.9816C18.715 21.9214 18.7752 21.9214 18.7752 21.9816C18.8354 22.1622 18.9559 22.3429 19.0161 22.5236C19.0763 22.644 19.2569 22.644 19.1967 22.4633C19.1365 22.2827 19.0161 22.102 18.9559 21.9213C18.9559 21.8611 19.0161 21.8611 19.0161 21.9213C19.1365 22.102 19.1967 22.3429 19.3171 22.5236C19.3773 22.644 19.5579 22.644 19.4977 22.4633C19.3773 22.2827 19.3171 22.0418 19.1967 21.8611C19.1967 21.8009 19.1967 21.8009 19.2569 21.8611C19.3773 22.0418 19.4375 22.2225 19.4977 22.3429C19.5579 22.4633 19.6783 22.4633 19.6783 22.2827C19.5579 21.9214 19.3773 21.6202 19.2569 21.2589C19.1967 21.1385 19.2569 21.1385 19.3773 21.1987C19.4375 21.2589 19.4977 21.2589 19.5579 21.3191C19.6181 21.3191 19.6783 21.3794 19.7385 21.3191C19.8589 21.3191 19.8589 21.1987 19.7385 21.1385C19.6783 21.1385 19.6181 21.0782 19.5579 21.018C19.4977 20.9578 19.4375 20.8976 19.3773 20.8374C19.2569 20.7169 19.1365 20.6567 18.9559 20.5965C18.8354 20.5363 18.7752 20.5363 18.715 20.3556C18.2936 19.4523 17.8721 18.4887 17.4507 17.6456C17.3303 17.4047 17.2701 17.2843 17.2701 17.0434C17.2701 16.6821 17.1497 16.381 17.0293 16.0196C16.9089 15.7185 16.9691 15.4776 16.9691 15.1163C16.9691 14.8754 16.9691 14.6948 16.9089 14.5743C16.9691 14.3937 16.9691 14.2732 16.9691 14.0926C17.0895 12.7677 17.2099 11.3826 17.0895 10.0577C17.0293 9.39528 16.9691 8.73284 16.9691 8.0704C16.9089 7.46819 16.9089 6.9262 16.9089 6.32398C16.9691 5.66154 17.0895 4.99911 17.9324 4.87867C18.5344 4.87867 18.5946 5.23999 18.715 5.78199C18.8354 7.2273 18.9559 8.67262 19.2569 10.1179C19.4977 11.3224 19.6181 12.4064 19.4375 13.6108C19.3171 14.5141 19.2569 15.4174 19.1967 16.2605C19.1967 16.5014 19.1967 16.6821 19.1967 16.923C19.1967 17.2241 19.5579 17.2843 19.6181 16.923C19.6181 16.7423 19.6181 16.5014 19.6181 16.3208C19.6783 15.297 19.7987 14.213 19.9192 13.129C19.9794 11.9246 19.8589 10.7804 19.6181 9.57594C19.3171 8.0704 19.0763 6.68531 19.0161 5.30022C19.0161 4.51734 19.0763 3.73446 19.9794 3.61401C20.0396 3.61401 20.0998 3.61401 20.2202 3.61401C21.1835 3.61401 21.4243 4.27645 21.6651 5.11955C21.0631 5.5411 21.1835 6.14332 21.3039 6.80575C21.5447 7.70908 21.7253 8.67262 21.9662 9.57594C22.207 10.5997 22.3876 11.5633 22.3274 12.6472C22.207 14.0926 22.0264 16.0196 22.0264 17.465C22.0264 17.7661 22.3876 17.8263 22.4478 17.465C22.5682 16.5014 22.5682 15.4776 22.6284 14.5141C22.7488 13.0086 22.809 11.5633 22.508 10.1179C22.3876 9.4555 22.2672 8.85328 22.0866 8.19085C21.9662 7.70908 21.8457 7.2273 21.7855 6.74553C21.4243 4.93889 23.4111 4.698 24.1336 6.0831C25.6387 8.91351 25.5785 12.5268 25.4581 15.6583C24.3744 17.0434 23.5917 18.7898 23.2305 20.3556C22.9295 21.8009 22.1468 22.9451 21.0029 23.8484C20.8824 23.9689 20.9427 24.0893 21.0631 24.0291C21.4845 23.9689 21.9662 23.5473 22.2672 23.3064C22.7488 22.8849 23.0499 22.3429 23.2907 21.6202C23.5315 20.7169 23.8325 19.8136 24.1938 18.9103C24.6152 17.8263 25.1571 16.8025 26 15.9594C26.4214 15.5379 26.9633 15.1163 27.6255 15.3572C27.8663 15.6583 27.9868 16.0799 27.9868 16.5014Z" fill="#02AEC4" fill-rule="evenodd"></path><path clip-rule="evenodd" d="M16.488 14.2733C16.3073 14.1529 16.1266 14.0926 15.8857 14.0324C15.5846 13.9722 15.2835 13.8518 14.9824 13.6711C14.6813 13.5506 14.5609 13.5506 14.6211 13.2495C14.6211 13.0689 14.862 13.0689 14.862 12.7678C14.862 12.7075 14.862 12.6473 14.9222 12.5871H14.9824C15.1029 12.5871 15.0426 12.5269 15.0426 12.4064C15.0426 12.286 15.0426 12.2258 15.1029 12.1656C15.1631 12.1053 15.1631 12.0451 15.1029 11.9849C15.1029 11.9849 15.1029 11.9849 15.1029 11.9247C15.1029 11.3827 14.862 10.5998 14.2598 10.4793C14.2598 9.93736 14.3802 9.45558 14.5007 8.91359C14.6813 8.3716 14.9222 8.01027 15.6449 7.8296C16.0664 7.76938 16.4277 7.88983 16.5482 8.31138C16.7891 8.91359 16.8493 9.57603 16.8493 10.2385C16.7891 11.5633 16.7288 13.0087 16.488 14.2733Z" fill="#02AEC4" fill-rule="evenodd"></path><path clip-rule="evenodd" d="M16.7891 10.2385C16.7891 11.5633 16.7288 13.0087 16.488 14.2733C16.3073 14.1529 16.1266 14.0926 15.8857 14.0324C15.5846 13.9722 15.2835 13.8518 14.9824 13.6711C14.6813 13.5506 14.5609 13.5506 14.6211 13.2495C14.6211 13.0689 14.862 13.0689 14.862 12.7678C14.862 12.7075 14.862 12.6473 14.9222 12.5871H14.9824C15.1029 12.5871 15.0426 12.5269 15.0426 12.4064C15.0426 12.286 15.0426 12.2258 15.1029 12.1656C15.1631 12.1053 15.1631 12.0451 15.1029 11.9849C15.1029 11.9849 15.1029 11.9849 15.1029 11.9247C15.1029 11.3827 14.862 10.5998 14.2598 10.4793C14.2598 9.93736 14.3802 9.45558 14.5007 8.91359C14.6813 8.3716 14.9222 8.01027 15.6449 7.8296C16.0664 7.76938 16.4277 7.88983 16.5482 8.31138C16.7288 8.91359 16.7891 9.63625 16.7891 10.2385Z" fill="#02AEC4" fill-rule="evenodd"></path><path d="M52.069 27.8834H48.3362L48.4566 13.0087C48.4566 12.5871 48.3362 12.3462 48.1556 12.3462C48.0954 12.3462 48.0954 12.3462 48.0352 12.4065C47.975 12.4065 47.9148 12.4667 47.9148 12.5269C47.8546 12.5871 47.8546 12.6473 47.7944 12.7076C47.7342 12.7678 47.674 12.828 47.6137 12.9485C47.5535 13.0689 47.4933 13.1291 47.4331 13.2496L39.4257 26.2574C39.1849 26.6187 38.9441 26.9198 38.8237 27.1607C38.7033 27.3414 38.4022 27.5823 37.9206 27.7629C37.4991 28.0038 36.9573 28.1243 36.3552 28.1243C35.693 28.1243 35.1511 28.0038 34.7297 27.7629C34.3082 27.5221 34.0072 27.221 33.8266 26.7994C33.646 26.3779 33.5857 26.0165 33.5255 25.7756C33.4653 25.4745 33.4653 25.1734 33.4653 24.7519V8.3114H37.1981L37.0777 22.885C37.0777 23.4872 37.1981 23.7883 37.4389 23.7883C37.4991 23.7883 37.4991 23.7883 37.5593 23.7883C37.6195 23.7883 37.6195 23.7281 37.6798 23.6679C37.74 23.6077 37.74 23.5474 37.8002 23.5474C37.8002 23.4872 37.8604 23.427 37.9206 23.3668C37.9808 23.3066 37.9808 23.2463 38.041 23.1861L45.928 10.2987C46.4096 9.45561 46.9515 8.91362 47.4331 8.61251C47.9148 8.3114 48.5168 8.13074 49.1791 8.13074C51.1659 8.13074 52.1894 9.33517 52.1894 11.6236V27.8834H52.069Z" fill="#02AEC4"></path><path d="M54.0557 27.8834V8.3114H57.7282V27.8834H54.0557ZM72.7797 27.8834H68.0235L59.8354 20.4159C59.1732 19.8137 58.8119 18.9706 58.8119 17.8264C58.8119 16.9833 59.113 16.2606 59.7752 15.6584L67.1806 8.3114H71.7562L63.2672 16.3209C63.207 16.3811 63.1468 16.4413 63.0264 16.5617C62.9059 16.6822 62.7855 16.8026 62.7855 16.8026C62.7253 16.8629 62.6651 16.9231 62.6049 17.0435C62.5447 17.164 62.4845 17.2844 62.4243 17.4048C62.4243 17.5253 62.3641 17.6457 62.3641 17.7662C62.3641 18.3082 62.7253 18.9104 63.508 19.5728L72.7797 27.8834Z" fill="#02AEC4"></path><path d="M78.0778 27.8834H74.4053V11.2623C74.4053 9.33517 75.3686 8.3114 77.235 8.3114H88.9149C90.8415 8.3114 91.7446 9.27495 91.7446 11.2623V27.8834H88.072V12.6473C88.072 12.1054 87.9516 11.744 87.771 11.5031C87.5904 11.3225 87.2292 11.202 86.6271 11.202H79.4024C78.8605 11.202 78.4993 11.3225 78.2585 11.5031C78.0778 11.6838 77.9574 12.0451 77.9574 12.6473V27.8834H78.0778Z" fill="#02AEC4"></path><path d="M93.7314 27.8834V8.3114H97.404V27.8834H93.7314ZM112.456 27.8834H107.699L99.5112 20.4159C98.8489 19.8137 98.4877 18.9706 98.4877 17.8264C98.4877 16.9833 98.7887 16.2606 99.451 15.6584L106.856 8.3114H111.432L102.943 16.3209C102.883 16.3811 102.823 16.4413 102.702 16.5617C102.582 16.6822 102.461 16.8026 102.461 16.8026C102.401 16.8629 102.341 16.9231 102.281 17.0435C102.22 17.164 102.16 17.2844 102.1 17.4048C102.1 17.5253 102.04 17.6457 102.04 17.7662C102.04 18.3082 102.401 18.9104 103.184 19.5728L112.456 27.8834Z" fill="#02AEC4"></path></svg>
